<svg width="212" height="48" viewBox="0 0 212 48" fill="none" xmlns="http://www.w3.org/2000/svg">
<g clip-path="url(#clip0_1167_3823)">
<path d="M75.0525 33.4927H57.8868L53.4461 43.3816H49.7891L64.5665 10.8042H68.4847L83.2621 43.3816H79.3439L75.0525 33.4927ZM66.5069 14.2L59.2675 30.3954H73.6717L66.5069 14.2ZM84.8667 10.543H88.2252V31.2164L102.704 19.6856H107.742L96.1364 28.6789L108.637 43.419H104.159L93.5989 30.8806L88.2626 34.9481V43.419H84.9041L84.8667 10.543Z" fill="#6D6E6B"/>
<path d="M132.408 35.844C131.028 40.0234 127.482 44.1656 119.646 44.1656C109.944 44.1656 106.734 37.374 106.734 31.5526C106.734 24.9475 110.802 18.9768 119.646 18.9768C125.766 18.9768 133.005 21.6263 133.005 32.3735H110.093C110.093 37.2993 113.601 41.3295 119.609 41.3295C125.281 41.3295 127.818 39.4637 129.012 35.844H132.408ZM129.609 29.7987C128.639 23.94 124.348 21.7756 119.833 21.7756C115.504 21.7756 110.839 24.0146 110.056 29.7987H129.609ZM136.326 19.6859H139.685V25.1341H139.76C140.991 22.298 143.23 18.9768 148.828 18.9768C149.499 18.9768 150.171 19.0142 150.843 19.1634V22.6339C149.835 22.4473 148.79 22.3727 147.745 22.3727C144.088 22.3727 139.685 24.6117 139.685 31.366V43.4566H136.326V19.6859ZM152.82 10.8418H171.33C177.711 10.8418 180.398 14.4615 180.398 19.0515C180.398 22.1861 178.681 25.1341 174.8 26.0297V26.1043C179.091 26.7387 181.704 29.8733 181.704 34.0901C181.704 40.8817 175.957 43.3819 170.919 43.3819H152.783V10.8418H152.82ZM156.179 24.9848H169.538C174.091 24.9848 177.002 23.5295 177.002 19.2007C177.002 15.2452 174.352 13.9391 170.658 13.9391H156.179V24.9848ZM156.179 40.2847H170.359C174.725 40.2847 178.009 38.5308 178.009 34.0901C178.009 29.3882 175.099 28.0821 171.18 28.0821H156.179V40.2847ZM184.577 10.8418H202.153C207.191 10.8418 211.967 13.342 211.967 20.2456C211.967 26.4029 207.9 29.724 200.66 29.724H187.973V43.4193H184.614L184.577 10.8418ZM187.973 26.6268H201.034C206.706 26.6268 208.348 24.0146 208.348 20.2456C208.348 15.3571 205.624 13.9391 201.743 13.9391H188.01L187.973 26.6268Z" fill="#6D6E6B"/>
<path d="M44.7152 19.9451C44.7899 19.3853 44.8645 18.9002 44.9391 18.4524V18.4897C44.6779 19.9824 43.2972 19.1614 42.7375 18.7883C39.8641 16.8851 35.4607 15.0193 36.3563 20.0943C37.1773 24.8336 43.0733 26.9233 42.9987 27.9682C43.745 25.4306 44.3048 22.8185 44.6779 20.2063L44.7152 19.9451Z" fill="url(#paint0_linear_1167_3823)"/>
<path d="M10.3111 2.44422C10.1246 2.74275 10.4231 3.0786 10.8336 3.48909C12.1397 2.4069 10.8709 1.54862 10.3485 2.36959L10.3111 2.44422ZM9.04238 11.6988C8.51995 10.7658 8.03483 9.64634 8.22141 8.56416C7.62435 9.23586 7.10191 9.98219 6.72875 10.8032C6.54216 11.1763 6.54216 11.5868 9.04238 11.6988ZM5.75851 16.0648C5.64656 15.2065 4.8256 14.7587 4.56438 15.3185C4.41511 15.617 4.48975 16.2887 5.68388 16.7738C5.75851 16.5499 5.79583 16.326 5.75851 16.0648Z" fill="#54284E"/>
<path d="M26.6522 17.8931C25.9805 17.0721 25.1969 16.3631 24.264 15.8407C20.1591 13.3032 13.1436 11.7732 10.1956 11.7359C9.74777 11.7359 9.37461 11.7359 9.03876 11.6985C6.53854 11.5866 6.53854 11.1761 6.72512 10.8029C7.09829 9.98197 7.62072 9.19832 8.25511 8.56394C10.0463 6.66079 12.3226 5.98909 14.1138 5.50397C16.4275 4.83227 20.3457 2.63058 16.9126 0.839382C13.4794 -0.951819 11.427 0.615482 11.0539 1.13792C10.7553 1.5484 10.5314 1.9962 10.3075 2.444L10.3448 2.36937C10.9046 1.5484 12.136 2.40668 10.83 3.48887L10.7553 3.52618C9.29997 4.683 7.73267 7.33249 6.87439 9.27295C5.68025 11.9224 4.52344 15.3183 4.52344 15.3183C4.82197 14.7585 5.60562 15.2063 5.71757 16.0646C5.75489 16.2885 5.71757 16.5497 5.64294 16.7736C5.45635 17.296 5.23245 17.7812 4.93392 18.229C3.73979 20.2814 5.64294 22.0353 7.39682 22.3711C8.92681 22.6696 17.547 21.9233 20.6442 21.5501C21.1294 21.4755 21.4652 21.4382 21.6518 21.4009C22.9206 21.177 28.4434 20.2814 26.6522 17.8931Z" fill="url(#paint1_linear_1167_3823)"/>
<path d="M1.2047 32.446C2.28689 33.267 4.1154 32.9684 6.54099 32.4087C3.6676 29.386 2.69737 27.0724 1.6525 27.2217C1.09275 27.2963 0.831535 28.789 0.682269 29.7219C0.607635 31.3638 0.831535 32.1848 1.2047 32.446Z" fill="url(#paint2_linear_1167_3823)"/>
<path d="M1.98778 38.2309L1.72656 38.1562C2.43558 39.5743 3.29386 40.9177 4.30141 42.1491C10.0482 49.202 21.5044 47.9705 24.1539 47.0376C26.8034 46.1047 24.751 44.2016 23.1463 43.2686C22.2134 42.7089 19.6386 41.7387 16.3174 39.8355C11.6155 39.7236 5.94335 39.3131 1.98778 38.2309Z" fill="url(#paint3_linear_1167_3823)"/>
<path d="M40.6095 12.3337C36.5047 12.371 32.3998 12.9681 28.4069 14.0502C26.9516 14.4234 25.5709 15.0205 24.3021 15.8414V15.8788C25.1977 16.4012 26.0187 17.1102 26.6531 17.9312C28.4443 20.3195 22.9214 21.2151 21.6153 21.4763C21.4287 21.5136 21.0929 21.5509 20.6078 21.6255C20.5331 22.1853 20.5331 22.745 20.6078 23.3048C20.757 24.5362 20.1973 25.805 18.8166 26.1035C17.4358 26.4021 11.092 28.0813 11.0547 29.462C11.092 30.1337 11.2786 30.7681 11.6144 31.3279C12.3981 31.1786 13.2564 31.0293 14.1147 30.9174C20.2346 30.1337 31.7654 28.5664 32.4745 31.2159C35.6837 29.7233 37.6615 27.9694 38.9303 27.3723C40.4229 26.6633 42.6619 28.7903 42.9605 28.0067C43.0351 26.9618 37.1017 24.8721 36.3181 20.1329C35.4598 15.0578 39.8632 16.9236 42.6992 18.8268C43.259 19.2 44.6397 20.0209 44.9009 18.5283V18.4909C45.2368 16.14 45.1621 15.9907 45.3114 14.4607C45.498 12.5949 42.3634 12.259 40.6095 12.3337Z" fill="url(#paint4_linear_1167_3823)"/>
<path d="M14.1529 30.88C13.2946 30.9919 12.4363 31.1412 11.6527 31.2905C9.7495 31.6636 7.99562 32.1114 6.54027 32.41C4.11468 32.9697 2.28617 33.2682 1.20398 32.4473C0.830816 32.1487 0.606916 31.3278 0.681549 29.7232V29.7978C0.457649 31.3278 -0.0274679 34.537 0.00984882 35.9177C0.0471655 37.2238 0.308382 37.7089 1.72642 38.1567L1.98763 38.2314C5.9432 39.3135 11.6153 39.724 16.3546 39.836C20.4221 39.9106 23.7806 39.7613 24.6762 39.6121C26.5793 39.3135 26.3554 37.9701 26.0942 37.0372C25.7957 36.0297 25.5718 35.246 27.0644 34.8729C28.9676 34.3877 32.4007 33.007 32.5873 31.6263C32.6246 31.477 32.5873 31.3278 32.55 31.1785C31.8037 28.529 20.2728 30.0963 14.1529 30.88Z" fill="url(#paint5_linear_1167_3823)"/>
</g>
<defs>
<linearGradient id="paint0_linear_1167_3823" x1="35.5271" y1="20.8026" x2="44.3376" y2="23.329" gradientUnits="userSpaceOnUse">
<stop stop-color="#AC6244"/>
<stop offset="0.49" stop-color="#8D2700"/>
<stop offset="0.63" stop-color="#8F2A04"/>
<stop offset="0.75" stop-color="#94340F"/>
<stop offset="0.87" stop-color="#9C4421"/>
<stop offset="0.98" stop-color="#A85A3A"/>
<stop offset="1" stop-color="#AA5E3F"/>
</linearGradient>
<linearGradient id="paint1_linear_1167_3823" x1="6.75874" y1="9.48807" x2="27.5417" y2="17.6099" gradientUnits="userSpaceOnUse">
<stop stop-color="#8E006D"/>
<stop offset="0.04" stop-color="#AD006D"/>
<stop offset="0.08" stop-color="#C4006D"/>
<stop offset="0.11" stop-color="#D2006D"/>
<stop offset="0.14" stop-color="#D7006D"/>
<stop offset="0.17" stop-color="#D80670"/>
<stop offset="0.2" stop-color="#DB1778"/>
<stop offset="0.24" stop-color="#E13386"/>
<stop offset="0.28" stop-color="#E95A9A"/>
<stop offset="0.32" stop-color="#F28BB2"/>
<stop offset="0.33" stop-color="#F391B6"/>
<stop offset="0.34" stop-color="#F498BB"/>
<stop offset="0.37" stop-color="#F49ABC"/>
<stop offset="0.41" stop-color="#F27BB0"/>
<stop offset="0.48" stop-color="#EF469B"/>
<stop offset="0.54" stop-color="#EC208C"/>
<stop offset="0.59" stop-color="#EB0983"/>
<stop offset="0.62" stop-color="#EA0080"/>
<stop offset="0.69" stop-color="#E0007E"/>
<stop offset="0.81" stop-color="#C60079"/>
<stop offset="0.96" stop-color="#9B0070"/>
<stop offset="1" stop-color="#8E006D"/>
</linearGradient>
<linearGradient id="paint2_linear_1167_3823" x1="0.668835" y1="30.0801" x2="6.54099" y2="30.0801" gradientUnits="userSpaceOnUse">
<stop stop-color="#003824"/>
<stop offset="1" stop-color="#00822C"/>
</linearGradient>
<linearGradient id="paint3_linear_1167_3823" x1="3.10617" y1="36.0433" x2="23.2905" y2="49.3279" gradientUnits="userSpaceOnUse">
<stop stop-color="#003824"/>
<stop offset="0.51" stop-color="#109840"/>
<stop offset="0.72" stop-color="#0D943C"/>
<stop offset="0.93" stop-color="#048831"/>
<stop offset="1" stop-color="#00822C"/>
</linearGradient>
<linearGradient id="paint4_linear_1167_3823" x1="14.1003" y1="18.2645" x2="43.4395" y2="26.2921" gradientUnits="userSpaceOnUse">
<stop offset="0.16" stop-color="#8D2719"/>
<stop offset="0.22" stop-color="#9B391C"/>
<stop offset="0.34" stop-color="#BF6722"/>
<stop offset="0.51" stop-color="#F5AD2C"/>
<stop offset="0.65" stop-color="#F5AD2C"/>
<stop offset="0.69" stop-color="#F2A32C"/>
<stop offset="0.77" stop-color="#E98A2A"/>
<stop offset="0.86" stop-color="#DC6029"/>
<stop offset="0.93" stop-color="#D03C27"/>
</linearGradient>
<linearGradient id="paint5_linear_1167_3823" x1="0.562882" y1="30.1844" x2="31.0338" y2="37.7798" gradientUnits="userSpaceOnUse">
<stop stop-color="#005D33"/>
<stop offset="0.02" stop-color="#096339"/>
<stop offset="0.06" stop-color="#237349"/>
<stop offset="0.11" stop-color="#4D8D62"/>
<stop offset="0.17" stop-color="#86B186"/>
<stop offset="0.21" stop-color="#B2CDA1"/>
<stop offset="0.25" stop-color="#B2CDA1"/>
<stop offset="0.3" stop-color="#73BB7A"/>
<stop offset="0.35" stop-color="#42AD5C"/>
<stop offset="0.4" stop-color="#1EA345"/>
<stop offset="0.43" stop-color="#089C38"/>
<stop offset="0.46" stop-color="#009A33"/>
<stop offset="0.87" stop-color="#005D33"/>
</linearGradient>
<clipPath id="clip0_1167_3823">
<rect width="211.97" height="47.7654" fill="white"/>
</clipPath>
</defs>
</svg>
