<svg width="72" height="62" viewBox="0 0 72 62" fill="none" xmlns="http://www.w3.org/2000/svg">
<g clip-path="url(#clip0_1167_3834)">
<path d="M6.924 33.0987L0 61.9999L4.428 59.4306L6.084 51.8193L13.236 47.6699L15.036 53.2789L18.588 51.2162L11.724 30.3123L6.924 33.0987ZM7.14 47.0186L9.528 36.0781L12.12 44.1357L7.14 47.0186ZM32.34 18.3586L32.304 36.0419L24.636 22.8217L20.784 25.0532V49.9376L24.48 47.8026L24.504 30.1193L32.16 43.3516L36.012 41.1201V16.2357L32.34 18.3586ZM43.956 32.2061L43.944 25.6322L53.076 20.3369L51.216 17.1042L43.944 21.326L43.932 15.9221L53.028 10.6509L51.168 7.43024L40.236 13.775V38.6594L53.088 31.205L51.228 27.9843L43.956 32.2061ZM71.988 10.3614C71.928 7.50261 71.388 5.18666 70.368 3.41351C69.576 2.03841 68.652 1.10962 67.572 0.590939C66.492 0.0722619 65.388 -0.0966097 64.26 0.0601997C63.12 0.204947 61.992 0.590939 60.9 1.23024C58.8 2.44853 57.216 4.37849 56.16 7.03218C55.128 9.67382 54.636 12.412 54.696 15.2707C54.78 18.1174 55.32 20.4334 56.352 22.2065C57.144 23.5816 58.068 24.5104 59.148 25.0291C60.228 25.5477 61.332 25.7287 62.472 25.5839C63.612 25.4271 64.728 25.0291 65.82 24.3898C67.92 23.1715 69.492 21.2415 70.524 18.5999C71.58 15.9583 72.072 13.2081 71.988 10.3614ZM67.08 16.9835C66.48 18.9738 65.532 20.3369 64.26 21.0727C63.744 21.3742 63.24 21.5431 62.724 21.6034C62.208 21.6396 61.704 21.519 61.2 21.2415C60.708 20.952 60.264 20.4816 59.88 19.8061C59.256 18.7205 58.908 17.1042 58.824 14.945C58.752 12.7618 59.016 10.675 59.616 8.69678C60.228 6.68238 61.176 5.30728 62.448 4.57148C62.964 4.26993 63.48 4.10106 63.996 4.06487C64.5 4.00456 65.004 4.11312 65.496 4.40261C65.988 4.68004 66.432 5.16253 66.816 5.83802C67.44 6.92362 67.788 8.55203 67.86 10.7353C67.968 12.8824 67.704 14.9571 67.08 16.9835Z" fill="#FFC328"/>
</g>
<defs>
<clipPath id="clip0_1167_3834">
<rect width="72" height="62" fill="white"/>
</clipPath>
</defs>
</svg>
