<svg width="70" height="30" viewBox="0 0 70 30" fill="none" xmlns="http://www.w3.org/2000/svg">
<g clip-path="url(#clip0_1167_3836)">
<path d="M70 11.4277H0V12.8563H70V11.4277Z" fill="#3F9C35"/>
<path d="M70 14.2852H0V17.1423H70V14.2852Z" fill="#003591"/>
<path d="M70 0H0V8.57143H70V0Z" fill="#99D9F0"/>
<path d="M42.2427 21.4434C41.4627 21.1171 40.6226 20.9593 39.7773 20.9804H34.8945V30.0005H39.7773C40.6226 30.0216 41.4627 29.8638 42.2427 29.5374C42.906 29.2519 43.4618 28.7635 43.8302 28.1424C44.2223 27.4269 44.4135 26.6186 44.3835 25.8032V25.1779C44.4135 24.3625 44.2223 23.5542 43.8302 22.8387C43.4617 22.2176 42.906 21.7291 42.2427 21.4434ZM42.9042 25.7549C42.9367 26.1525 42.8837 26.5524 42.7488 26.9279C42.614 27.3033 42.4004 27.6456 42.1225 27.9317C41.4606 28.4512 40.6283 28.7043 39.7893 28.6413H36.3978V22.3396H39.7893C40.6254 22.2772 41.4554 22.5232 42.1225 23.0311C42.4033 23.3189 42.6186 23.6641 42.7535 24.043C42.8885 24.4218 42.9399 24.8254 42.9042 25.2259V25.7549Z" fill="#0F214A"/>
<path d="M55.6772 28.029L48.7015 20.9805H47.8722H47.2344V30.0005H48.7015V22.9605L55.6772 30.0005H57.1565V20.9805H55.6772V28.029Z" fill="#0F214A"/>
<path d="M68.4001 20.9805L64.9479 28.029L61.4965 20.9805H59.8008L64.3229 30.0005H65.4894L69.9994 20.9805H68.4001Z" fill="#0F214A"/>
</g>
<defs>
<clipPath id="clip0_1167_3836">
<rect width="70" height="30" fill="white"/>
</clipPath>
</defs>
</svg>
