<svg width="124" height="24" viewBox="0 0 124 24" fill="none" xmlns="http://www.w3.org/2000/svg">
<g clip-path="url(#clip0_1167_3843)">
<path d="M36.3008 13.3H47.8008V9.7H36.3008V3.6H49.9008V0H32.3008V23.6H50.2008V20H36.3008V13.3Z" fill="#ED1112"/>
<path d="M57.7984 0H53.8984V23.6H57.7984V0Z" fill="#ED1112"/>
<path d="M78 6.8H73.1L66.4 13.5V0H62.5V23.6H66.4V18.3L68.5 16.2L73.6 23.6H78.3L71.3 13.5L78 6.8Z" fill="#ED1112"/>
<path d="M86.8992 6.4C82.2992 6.4 78.9992 9.8 78.9992 15.2C78.9992 20.9 82.7992 24 86.9992 24C90.8992 24 93.5992 21.8 94.2992 18.5H90.4992C90.1992 19.9 88.8992 20.9 87.2992 20.9H86.9992C85.0992 20.9 82.9992 19.3 82.7992 16.3H94.3992C94.3992 15.7 94.4992 15.2 94.4992 14.6C94.3992 9.8 91.6992 6.4 86.8992 6.4ZM82.8992 13.2C83.1992 10.7 84.8992 9.6 86.6992 9.6H86.9992C88.8992 9.6 90.4992 10.8 90.5992 13.2H82.8992ZM117.699 6.4C115.599 6.4 113.399 7.2 112.099 9.4C111.099 7.4 109.199 6.4 106.799 6.4C104.699 6.4 102.899 7.4 101.699 9.1V6.8H97.7992V23.6H101.699V14.2C101.699 11.5 103.599 9.7 105.599 9.7H105.899C107.999 9.7 108.799 11 108.799 13.3V23.6H112.699V14.2C112.699 11.5 114.599 9.7 116.599 9.7H116.899C118.999 9.7 119.799 11 119.799 13.3V23.6H123.699V12.7C123.799 9.1 121.899 6.4 117.699 6.4ZM20.8992 0H6.09922L0.199219 5.9H17.2992C17.5992 5.9 17.8992 6.1 17.8992 6.5V14.8L23.7992 8.9V3C23.7992 1.4 22.4992 0 20.8992 0ZM6.09922 17.2V8.9L0.199219 14.8V20.7C0.199219 22.3 1.49922 23.6 3.09922 23.6H17.7992L23.6992 17.7H6.69922C6.39922 17.7 6.09922 17.5 6.09922 17.2Z" fill="#ED1112"/>
<path d="M14.2008 9.80039V8.90039H9.80078V14.8004H14.3008V13.9004H10.8008V12.2004H13.7008V11.3004H10.8008V9.80039H14.2008Z" fill="#ED1112"/>
</g>
<defs>
<clipPath id="clip0_1167_3843">
<rect width="124" height="24" fill="white"/>
</clipPath>
</defs>
</svg>
