<svg width="153" height="67" viewBox="0 0 153 67" fill="none" xmlns="http://www.w3.org/2000/svg">
<g clip-path="url(#clip0_1167_4170)">
<path d="M51.8189 30.8633H29.6797V36.14H51.8189V30.8633Z" fill="black"/>
<path d="M33.7174 46.4206C26.5401 46.4206 20.722 40.6368 20.722 33.5018C20.722 26.3668 26.5401 20.583 33.7174 20.583C37.8483 20.583 41.5256 22.5005 43.9049 25.4869L47.8914 22.0013C44.5359 17.9197 39.4335 15.3125 33.7174 15.3125C23.613 15.3125 15.4219 23.4554 15.4219 33.5003C15.4219 43.5451 23.613 51.688 33.7174 51.688C39.4335 51.688 44.5375 49.0809 47.8914 44.9993L43.9049 41.5137C41.5256 44.5015 37.8483 46.4206 33.7174 46.4206Z" fill="black"/>
<path d="M63.2963 15.832H57.9883V51.1684H63.2963V15.832Z" fill="black"/>
<path d="M104.765 25.377H99.457V51.1693H104.765V25.377Z" fill="black"/>
<path d="M88.9946 25.377L81.3276 43.2355L73.6591 25.377H67.7578L79.2622 51.1678H83.3915L94.8974 25.377H88.9946Z" fill="black"/>
<path d="M102.111 21.3994C103.802 21.3994 105.172 20.0372 105.172 18.3569C105.172 16.6766 103.802 15.3145 102.111 15.3145C100.421 15.3145 99.0508 16.6766 99.0508 18.3569C99.0508 20.0372 100.421 21.3994 102.111 21.3994Z" fill="#29D305"/>
<path d="M122.712 49.0815C124.316 49.0815 125.616 47.7892 125.616 46.195C125.616 44.6009 124.316 43.3086 122.712 43.3086C121.109 43.3086 119.809 44.6009 119.809 46.195C119.809 47.7892 121.109 49.0815 122.712 49.0815Z" fill="#29D305"/>
<path d="M124.78 25.377H120.65L108.832 51.1678H114.576L122.716 32.9582L130.854 51.1678H136.599L124.78 25.377Z" fill="black"/>
</g>
<defs>
<clipPath id="clip0_1167_4170">
<rect width="153" height="67" fill="white"/>
</clipPath>
</defs>
</svg>
