<svg width="76" height="63" viewBox="0 0 76 63" fill="none" xmlns="http://www.w3.org/2000/svg">
<mask id="mask0_1167_4183" style="mask-type:luminance" maskUnits="userSpaceOnUse" x="0" y="-1" width="76" height="64">
<path d="M0 62.4434H75.924V-0.203255H0V62.4434Z" fill="white"/>
</mask>
<g mask="url(#mask0_1167_4183)">
<path d="M64.5034 48.7366C64.4227 48.5347 64.2506 48.461 64.0594 48.5747C63.8677 48.689 60.2636 50.8362 60.2636 50.8362V48.8579C60.2636 48.6356 60.1226 48.555 59.9207 48.6356L58.7496 49.0592C58.5883 49.1202 58.5273 49.2415 58.5273 49.4028V58.102C58.5273 58.2836 58.6486 58.4043 58.8303 58.4043H59.9607C60.143 58.4043 60.2636 58.2836 60.2636 58.102V52.7731C60.2636 52.7731 64.5129 50.1509 64.685 50.048C64.8571 49.9451 64.9454 49.8575 64.8666 49.6644C64.7809 49.4523 64.5034 48.7366 64.5034 48.7366Z" fill="#F10044"/>
<path d="M1.91792 52.4101C2.3015 51.0174 3.39128 50.1696 4.92561 50.1696C6.60157 50.1696 7.49003 51.1584 7.57068 52.4101H1.91792ZM9.40794 52.9353C9.40794 50.5125 7.75231 48.4733 4.98658 48.4733C2.26085 48.4733 0 50.4319 0 53.6212C0 56.5286 1.89759 58.6484 5.08756 58.6484C6.54123 58.6484 7.99428 58.1436 9.08469 57.1744C9.22631 57.0538 9.22631 56.8918 9.12534 56.7508L8.57981 55.903C8.47884 55.7411 8.31753 55.7208 8.15622 55.8421C7.16678 56.5692 6.15765 56.9325 5.08756 56.9325C3.04834 56.9325 1.93824 55.6001 1.79662 53.9241H9.10946C9.29617 53.9241 9.40794 53.7889 9.40794 53.6257V52.9353Z" fill="#F10044"/>
<path d="M15.7749 56.9322C14.0589 56.9322 12.5849 55.7611 12.5849 53.5403C12.5849 51.3195 14.0589 50.1693 15.7749 50.1693C17.5715 50.1693 18.9648 51.3195 18.9648 53.5403C18.9648 55.7815 17.5715 56.9322 15.7749 56.9322ZM19.2474 62.4434H20.3778C20.5595 62.4434 20.6808 62.3227 20.6808 62.1404V48.8566C20.6808 48.6344 20.5398 48.5544 20.3175 48.6344L19.1668 49.0586C19.0048 49.1196 18.9445 49.2402 18.9445 49.4022V49.8258C18.3189 48.9779 17.0869 48.4731 15.7545 48.4731C13.1101 48.4731 10.8086 50.4519 10.8086 53.5606C10.8086 56.306 12.5849 58.6482 15.6536 58.6482C17.0469 58.6482 18.3793 58.0226 18.9445 57.3158V62.1404C18.9445 62.3227 19.0658 62.4434 19.2474 62.4434Z" fill="#F10044"/>
<path d="M26.4321 58.6484C27.4819 58.6484 28.6326 58.3055 29.3795 57.2151V58.1035C29.3795 58.2852 29.5008 58.4065 29.6824 58.4065H30.8128C30.9951 58.4065 31.1158 58.2852 31.1158 58.1035V48.8772C31.1158 48.6353 30.9748 48.5546 30.7722 48.6353L29.6017 49.0589C29.4404 49.1198 29.3795 49.2405 29.3795 49.4024V54.2474C29.3795 55.9634 28.2694 56.9325 26.7554 56.9325C25.261 56.9325 24.2519 55.9837 24.2519 54.2474V48.8569C24.2519 48.6353 24.1103 48.5546 23.909 48.6353L22.7379 49.0589C22.576 49.1198 22.5156 49.2405 22.5156 49.4024V54.3077C22.5156 57.1751 24.2519 58.6484 26.4321 58.6484Z" fill="#F10044"/>
<path d="M33.4797 47.6041L34.7111 47.2002C34.913 47.1398 34.9937 47.0389 34.9937 46.8369V45.3635C34.9937 45.1813 34.852 45.0403 34.6304 45.1209L33.4187 45.5655C33.2377 45.6252 33.1367 45.7065 33.1367 45.9078V47.3215C33.1367 47.5431 33.2574 47.6847 33.4797 47.6041Z" fill="#F10044"/>
<path d="M33.4982 58.4043H34.6287C34.8103 58.4043 34.9316 58.283 34.9316 58.1014V48.8554C34.9316 48.6331 34.79 48.5524 34.5887 48.6331L33.4176 49.0573C33.2556 49.1176 33.1953 49.2389 33.1953 49.4003V58.1014C33.1953 58.283 33.3166 58.4043 33.4982 58.4043Z" fill="#F10044"/>
<path d="M37.3146 58.4043H38.4451C38.6267 58.4043 38.748 58.283 38.748 58.1014V52.8728C38.748 51.1569 39.8581 50.1877 41.3728 50.1877C42.8664 50.1877 43.8756 51.1365 43.8756 52.8728V58.1014C43.8756 58.283 43.9969 58.4043 44.1785 58.4043H45.3096C45.4912 58.4043 45.6125 58.283 45.6125 58.1014V52.8125C45.6125 49.9458 43.8756 48.4718 41.6954 48.4718C40.6456 48.4718 39.4948 48.8147 38.748 49.9051V48.8554C38.748 48.6331 38.607 48.5524 38.4051 48.6331L37.234 49.0573C37.0727 49.1176 37.0117 49.2389 37.0117 49.4003V58.1014C37.0117 58.283 37.133 58.4043 37.3146 58.4043Z" fill="#F10044"/>
<path d="M52.0803 56.9528C50.0818 56.9528 48.8707 55.4591 48.8707 53.5615C48.8707 51.6633 50.0818 50.1696 52.0803 50.1696C54.0592 50.1696 55.2703 51.6633 55.2703 53.5615C55.2703 55.4591 54.0592 56.9528 52.0803 56.9528ZM52.0803 48.474C49.173 48.474 47.0938 50.6338 47.0938 53.5615C47.0938 56.4886 49.173 58.6484 52.0803 58.6484C54.9877 58.6484 57.0466 56.4886 57.0466 53.5615C57.0466 50.6338 54.9877 48.474 52.0803 48.474Z" fill="#F10044"/>
<path d="M47.1637 8.16575V18.4818C47.1637 18.7873 47.3167 19.0699 47.5815 19.2223L56.5202 24.3721C56.8993 24.5906 57.3832 24.3169 57.3839 23.8793V13.5632C57.3839 13.2578 57.2207 12.9751 56.9558 12.8227L48.0172 7.67294C47.6381 7.45447 47.1643 7.72755 47.1637 8.16575ZM74.6959 0.110508L61.8268 7.52433C61.4452 7.74406 61.2108 8.15051 61.2108 8.59061V23.4424C61.2121 24.0724 61.9075 24.4661 62.4536 24.1518L75.3227 16.7379C75.7038 16.5182 75.9241 16.1118 75.9241 15.6717V0.819881C75.9235 0.189892 75.2421 -0.203854 74.6959 0.110508ZM57.0422 31.6983L53.4655 33.7585C53.3594 33.8195 53.2946 33.9325 53.2946 34.0551V38.1824C53.2946 38.3577 53.4883 38.4669 53.6401 38.3793L57.2162 36.3191C57.3223 36.2581 57.3839 36.1451 57.3839 36.0225V31.8952C57.3839 31.7199 57.194 31.6107 57.0422 31.6983ZM54.9579 27.8898L49.6017 24.7906C49.4429 24.6992 49.2473 24.6992 49.0886 24.7906L43.733 27.8898C43.5057 28.0213 43.5057 28.3489 43.733 28.481L49.0886 31.5796C49.2473 31.6716 49.4429 31.6716 49.6017 31.5796L54.9579 28.481C55.1853 28.3489 55.1853 28.0213 54.9579 27.8898ZM63.5803 28.448L65.9599 29.8249C66.1009 29.9068 66.2749 29.9068 66.4159 29.8249L68.7955 28.448C68.9974 28.3312 68.9974 28.0397 68.7955 27.9228L66.4159 26.546C66.2749 26.4641 66.1009 26.4641 65.9599 26.546L63.5803 27.9228C63.3783 28.0397 63.3783 28.3312 63.5803 28.448ZM61.6662 31.7625L64.0483 33.1348C64.1893 33.2155 64.2763 33.3666 64.2763 33.5292L64.2738 36.2784C64.2731 36.5122 64.021 36.6576 63.8184 36.5414L61.4363 35.169C61.2953 35.0877 61.2114 34.9365 61.2114 34.774L61.2108 32.0247C61.2108 31.7917 61.4642 31.6456 61.6662 31.7625Z" fill="#F10044"/>
</g>
</svg>
