<svg width="94" height="62" viewBox="0 0 94 62" fill="none" xmlns="http://www.w3.org/2000/svg">
<g clip-path="url(#clip0_1167_4319)">
<path d="M31.6289 45.9207H62.2427V0H31.6289V45.9207Z" fill="#D71539"/>
<path d="M46.6811 15.0524C44.8953 15.0524 43.237 15.3075 41.7063 15.8177L39.793 12.5013C39.793 12.5013 39.793 12.5013 39.793 12.3737C39.793 12.3737 39.793 12.3737 39.9205 12.3737C40.0481 12.3737 40.6859 12.3737 40.6859 12.3737C40.6859 12.3737 40.8134 12.3737 40.8134 12.5013C40.8134 12.6288 40.8134 13.139 40.8134 13.139C40.8134 13.2666 40.941 13.2666 40.941 13.139C40.941 13.0115 41.0685 12.7564 41.0685 12.6288C41.0685 12.5013 41.1961 12.5013 41.3237 12.6288L41.8339 12.8839C41.8339 12.8839 41.8339 12.8839 41.8339 13.0115C41.8339 13.139 41.7063 13.5217 41.7063 13.6493C41.7063 13.6493 41.7063 13.7768 41.5788 13.7768C41.4512 13.7768 41.0685 13.6493 41.0685 13.6493C41.0685 13.6493 40.941 13.6493 40.941 13.7768C41.0685 14.0319 41.3237 14.2871 41.7063 14.4146C42.2166 14.5422 42.7268 14.4146 42.9819 14.0319C43.1095 13.7768 43.237 13.5217 43.237 13.2666V13.139C43.237 13.139 43.237 13.139 43.1095 13.139C42.9819 13.2666 42.9819 13.3942 42.8543 13.3942C42.7268 13.5217 42.5992 13.5217 42.4717 13.5217C42.2166 13.3942 42.089 13.139 42.089 12.8839C42.089 12.7564 42.2166 12.6288 42.3441 12.5013C42.4717 12.3737 42.5992 12.3737 42.7268 12.5013C42.8543 12.5013 42.8543 12.6288 42.9819 12.6288C42.9819 12.6288 43.1095 12.5013 42.9819 12.5013C42.8543 12.3737 42.5992 12.1186 42.4717 11.6084C42.4717 11.2257 42.5992 10.843 42.7268 10.7154C42.7268 10.7154 42.7268 10.7154 42.8543 10.7154C43.237 10.843 43.4921 11.2257 43.4921 11.6084C43.4921 11.991 43.3646 12.3737 43.3646 12.3737V12.5013H43.4921C43.6197 12.3737 43.7472 12.1186 43.8748 12.1186C44.0024 12.1186 44.2575 12.1186 44.2575 12.3737C44.385 12.5013 44.385 12.8839 44.385 13.0115C44.2575 13.139 44.1299 13.2666 44.0024 13.2666C43.8748 13.2666 43.7472 13.139 43.6197 13.139C43.6197 13.139 43.6197 13.139 43.4921 13.139C43.4921 13.139 43.4921 13.2666 43.4921 13.3942C43.6197 13.7768 44.1299 14.1595 44.5126 14.1595C45.0228 14.1595 45.5331 13.9044 45.7882 13.3942C45.9157 13.2666 45.9157 13.139 45.9157 12.8839C45.9157 12.8839 45.9157 12.8839 45.9157 12.7564C45.7882 12.7564 45.7882 12.8839 45.6606 12.8839L45.7882 13.0115C45.7882 13.0115 45.7882 13.0115 45.6606 13.0115C45.5331 12.8839 45.4055 12.6288 45.1504 12.3737C45.1504 12.3737 45.1504 12.3737 45.1504 12.2461C45.2779 11.991 45.4055 11.8635 45.5331 11.6084C45.5331 11.6084 45.5331 11.6084 45.6606 11.6084C45.9157 11.7359 46.0433 11.8635 46.2984 11.991C46.2984 11.991 46.426 11.991 46.426 11.8635C46.426 11.7359 46.1708 11.6083 46.1708 11.4808C46.1708 11.3532 46.0433 11.3532 46.1708 11.3532L46.8086 10.9706C46.8086 10.9706 47.3189 11.3532 47.4464 11.3532C47.574 11.3532 47.4464 11.4808 47.4464 11.4808C47.4464 11.6083 47.1913 11.8635 47.1913 11.991C47.1913 12.1186 47.3189 12.1186 47.3189 12.1186C47.574 11.991 47.7015 11.8635 47.9566 11.7359C47.9566 11.7359 47.9566 11.7359 48.0842 11.7359C48.2118 11.991 48.3393 12.1186 48.4669 12.3737C48.4669 12.3737 48.4669 12.3737 48.4669 12.5013C48.3393 12.7564 48.2118 12.8839 47.9566 13.139C47.9566 13.139 47.9566 13.139 47.8291 13.139L47.3189 12.7564C47.1913 12.7564 47.1913 12.6288 47.0637 12.6288C47.0637 12.6288 47.0637 12.6288 47.0637 12.7564C47.0637 12.8839 47.0637 13.0115 47.1913 13.2666C47.4464 13.7768 47.9566 14.0319 48.4669 14.0319C48.9771 14.0319 49.3598 13.6493 49.4873 13.2666C49.4873 13.2666 49.4873 13.139 49.4873 13.0115C49.4873 13.0115 49.4873 13.0115 49.3598 13.0115C49.2322 13.139 49.1047 13.2666 48.9771 13.139C48.8495 13.139 48.722 13.0115 48.5944 12.8839C48.4669 12.6288 48.5944 12.3737 48.722 12.2461C48.8495 12.1186 48.9771 11.991 49.1047 11.991C49.2322 11.991 49.3598 12.2461 49.4873 12.3737C49.4873 12.3737 49.4873 12.3737 49.6149 12.3737C49.6149 12.3737 49.7424 12.2461 49.6149 12.2461C49.6149 12.2461 49.4873 11.8635 49.4873 11.4808C49.4873 11.0981 49.87 10.7154 50.1251 10.5879H50.2527C50.5078 10.7154 50.6354 11.0981 50.5078 11.4808C50.5078 11.8635 50.1251 12.2461 49.9976 12.3737C49.9976 12.5013 49.9976 12.5013 49.9976 12.5013C50.1251 12.5013 50.2527 12.3737 50.2527 12.3737C50.3802 12.2461 50.5078 12.3737 50.6353 12.3737C50.7629 12.5013 50.8905 12.6288 50.8905 12.7564C50.8905 13.0115 50.7629 13.2666 50.5078 13.3942C50.3802 13.3942 50.2527 13.3942 50.1251 13.2666C49.9976 13.139 49.9976 13.139 49.87 13.0115C49.87 13.0115 49.87 13.0115 49.7424 13.0115V13.139C49.7424 13.3942 49.87 13.7768 49.9976 13.9044C50.2527 14.2871 50.8905 14.5422 51.2731 14.2871C51.5283 14.1595 51.9109 14.0319 52.0385 13.6493C52.0385 13.5217 51.9109 13.5217 51.9109 13.5217C51.9109 13.5217 51.5283 13.6493 51.4007 13.6493C51.2731 13.6493 51.2731 13.6493 51.2731 13.5217C51.2731 13.5217 51.1456 13.0115 51.1456 12.8839C51.1456 12.7564 51.1456 12.7564 51.1456 12.7564L51.6558 12.5013C52.166 12.6288 52.166 12.6288 52.166 12.7564C52.166 12.7564 52.2936 13.0115 52.2936 13.2666C52.2936 13.3942 52.4212 13.3942 52.4212 13.2666C52.4212 13.2666 52.4212 12.7564 52.4212 12.6288C52.4212 12.5013 52.4212 12.5013 52.5487 12.5013H53.3141C53.4416 12.5013 53.4416 12.5013 53.4416 12.5013C53.4416 12.5013 53.4416 12.5013 53.4416 12.6288L51.5283 15.9453C50.1251 15.3075 48.4669 15.0524 46.6811 15.0524Z" fill="#FFF572"/>
<path d="M46.6805 8.93005C47.1907 8.93005 47.5734 9.31273 47.5734 9.82296C47.5734 10.3332 47.1907 10.7159 46.6805 10.7159C46.6805 10.7159 46.6805 10.7159 46.5529 10.7159C46.0427 10.7159 45.66 10.3332 45.66 9.82296C45.9151 9.31273 46.2978 8.93005 46.6805 8.93005ZM39.9199 10.3332C40.3026 10.3332 40.6853 10.5883 40.6853 10.971C40.6853 11.3536 40.4302 11.7363 40.0475 11.7363C39.6648 11.7363 39.4097 11.3536 39.4097 10.971C39.2822 10.5883 39.6648 10.3332 39.9199 10.3332ZM40.8128 8.54738C41.1955 8.54738 41.4506 8.8025 41.4506 9.18517C41.4506 9.56784 41.1955 9.82296 40.8128 9.82296C40.4302 9.82296 40.1751 9.56784 40.1751 9.18517C40.1751 8.93005 40.4302 8.54738 40.8128 8.54738ZM42.7262 8.03715C43.1089 8.03715 43.364 8.29227 43.364 8.67494C43.364 9.05761 43.1089 9.31273 42.7262 9.31273C42.3435 9.31273 42.0884 9.05761 42.0884 8.67494C42.0884 8.29227 42.3435 8.03715 42.7262 8.03715ZM44.7671 8.8025C45.1498 8.8025 45.5325 9.05761 45.5325 9.44028C45.5325 9.82296 45.1498 10.2056 44.7671 10.2056C44.3845 10.2056 44.1293 9.82296 44.1293 9.44028C44.0018 9.18517 44.3845 8.93005 44.7671 8.8025ZM53.5686 10.3332C53.1859 10.3332 52.8032 10.5883 52.8032 10.971C52.8032 11.3536 53.0584 11.7363 53.441 11.7363C53.8237 11.7363 54.0788 11.3536 54.0788 10.971C54.2064 10.5883 53.9513 10.3332 53.5686 10.3332ZM52.8032 8.54738C52.4206 8.54738 52.1655 8.8025 52.1655 9.18517C52.1655 9.56784 52.4206 9.82296 52.8032 9.82296C53.1859 9.82296 53.441 9.56784 53.441 9.18517C53.441 8.93005 53.1859 8.54738 52.8032 8.54738ZM50.7623 8.03715C50.3797 8.03715 50.1245 8.29227 50.1245 8.67494C50.1245 9.05761 50.3797 9.31273 50.7623 9.31273C51.145 9.31273 51.4001 9.05761 51.4001 8.67494C51.5277 8.29227 51.145 8.03715 50.7623 8.03715ZM48.849 8.8025C48.4663 8.8025 48.2112 9.05761 48.2112 9.44028C48.2112 9.82296 48.4663 10.2056 48.849 10.2056C49.2316 10.2056 49.4867 9.95051 49.4867 9.56784C49.4867 9.18517 49.2316 8.8025 48.849 8.8025ZM47.1907 6.37891L46.9356 7.14425C47.1907 7.14425 47.4458 7.01669 47.5734 6.88914V7.9096C47.3183 7.78204 47.0632 7.78204 46.9356 7.65448L47.1907 8.54738C47.0632 8.41982 46.808 8.41982 46.6805 8.41982C46.5529 8.41982 46.2978 8.41982 46.1703 8.54738L46.4254 7.65448C46.1703 7.65448 45.9151 7.78204 45.7876 7.9096V7.01669C46.0427 7.14425 46.2978 7.14425 46.4254 7.27181L46.2978 6.37891H47.1907ZM38.3893 20.4102C38.2617 20.9205 38.2617 21.5582 38.6444 21.9409C38.8995 22.3236 39.4097 22.4511 39.9199 22.3236C40.1751 22.196 40.5577 21.9409 40.5577 21.6858C40.5577 21.4307 40.5577 21.1756 40.3026 20.9205C40.0475 20.7929 39.7924 20.7929 39.5373 20.7929C39.4097 20.9205 39.2822 21.048 39.1546 21.1756C38.7719 21.048 38.5168 20.6653 38.3893 20.4102ZM41.1955 18.1142C41.9609 18.3693 42.5987 19.1346 42.8538 19.9L44.6396 19.0071C43.7467 18.1142 42.4711 17.8591 41.1955 18.1142ZM45.5325 18.4969C45.9151 18.3693 46.1703 18.1142 46.5529 17.9866L47.0632 18.752L42.216 21.3031C42.216 20.5378 41.9609 19.6449 41.3231 19.1346C40.9404 18.752 40.3026 18.6244 39.7924 18.752C39.5373 18.8795 39.1546 19.1346 39.1546 19.5173C39.1546 19.7724 39.1546 20.0276 39.2822 20.1551C39.5373 20.0276 39.9199 19.9 40.3026 20.0275C40.8128 20.1551 41.3231 20.5378 41.4506 20.9205C41.7057 21.5582 41.4506 22.196 41.068 22.7063C40.5577 23.2165 39.6648 23.344 39.027 23.2165C38.1341 22.9614 37.6239 22.0685 37.4964 21.3031C37.3688 19.7724 38.5168 18.3693 40.0475 17.7315C41.1955 17.2213 42.9813 17.0937 44.1293 17.604C44.512 17.7315 45.0222 18.1142 45.5325 18.4969ZM47.5734 34.314C47.1907 34.314 46.808 34.4415 46.6805 34.6967C46.5529 34.9518 46.4254 35.3344 46.6805 35.462C46.808 35.7171 47.0632 35.8447 47.4458 35.8447C47.3183 36.3549 46.9356 36.7376 46.5529 37.1202C47.0632 36.8651 47.5734 36.61 47.9561 36.2273C48.3387 35.8447 48.5938 35.2069 48.2112 34.6967C47.9561 34.5691 47.8285 34.4415 47.5734 34.314ZM45.2774 32.4006C43.4916 32.0179 41.5782 32.1455 40.0475 32.9108C39.027 33.4211 38.2617 34.314 38.2617 35.3344C38.2617 36.2273 39.027 36.8651 39.7924 37.2478C39.5373 36.9927 39.5373 36.61 39.5373 36.2273C39.5373 35.8447 39.6648 35.462 39.9199 35.0793C40.6853 34.1864 41.9609 33.8038 43.2364 34.0589C43.7467 33.2935 44.6396 32.6557 45.5325 32.4006C45.66 32.4006 45.2774 32.4006 45.2774 32.4006ZM49.997 28.4463C50.7623 28.829 51.0174 29.5944 51.0174 30.2321V33.166V34.1864C51.0174 35.0793 51.4001 35.9722 52.0379 36.7376L54.2064 35.5896C53.6961 34.8242 53.3135 34.0589 53.3135 33.0384V31.3802C53.3135 30.9975 53.3135 30.4873 53.0584 30.1046C52.4206 29.0841 51.145 28.829 49.997 28.4463ZM47.7009 25.5125L46.2978 26.2779V30.4873L44.512 31.5077C45.66 31.6353 46.6805 31.8904 47.7009 32.1455C47.7009 32.0179 47.7009 25.5125 47.7009 25.5125ZM48.5938 25.0023V28.1912L49.997 27.4259V26.0227C49.997 25.6401 49.997 25.2574 49.7419 25.0023C49.6143 24.6196 48.9765 24.7472 48.5938 25.0023ZM52.293 23.2165C51.5277 23.344 50.8899 23.7267 50.2521 24.1094C50.7623 24.2369 51.0174 24.7472 51.0174 25.2574V26.9157L53.3135 25.7676V25.0023C53.3135 24.6196 53.3135 24.1094 53.1859 23.7267C52.9308 23.344 52.6757 23.2165 52.293 23.2165ZM45.2774 29.8495V21.4307L43.1089 22.5787V25.8952C42.5986 25.8952 41.9609 25.8952 41.5782 26.0227C41.1955 26.1503 40.8128 26.533 40.6853 27.0432H43.1089V31.125C42.9813 30.9975 45.2774 29.8495 45.2774 29.8495ZM47.7009 24.4921V20.2827L46.2978 21.048V25.2574L47.7009 24.4921ZM52.1655 18.1142C51.4001 18.2417 50.8899 18.6244 50.2521 18.8795C51.145 19.1346 51.145 20.0275 51.145 20.7929L53.3135 19.6449C53.3135 19.2622 53.3135 18.8795 53.1859 18.4969C52.8032 18.1142 52.5481 17.9866 52.1655 18.1142ZM53.9513 18.1142C54.2064 18.6244 54.0788 19.3898 54.0788 20.0275L53.8237 20.1551L49.997 22.196V20.2827C49.997 20.0275 49.997 19.7724 49.7419 19.6449C49.4868 19.3898 48.9765 19.5173 48.5938 19.6449V23.9818L51.0174 22.8338C51.7828 22.4511 52.6757 22.3236 53.441 22.7063C54.2064 23.0889 54.3339 23.8543 54.3339 24.4921V26.2779L51.145 27.9361C52.293 28.3188 53.441 28.829 54.0788 29.8495C54.589 30.8699 54.2064 32.4006 54.4615 33.5486C54.589 34.1864 54.8442 34.6967 55.2268 35.2069L56.2473 34.6967L56.7575 35.462L53.441 37.2478L51.9103 38.0131C50.8899 36.8651 50.1245 35.7171 49.997 34.4415V33.2935V30.6148C49.997 30.1046 49.997 29.4668 49.3592 29.2117C49.1041 29.0841 48.849 29.0841 48.5938 29.2117V32.6557C46.9356 32.6557 45.4049 33.0384 44.3845 34.1864C44.1293 34.4415 43.8742 34.8242 43.6191 35.2069C42.9813 34.9518 41.9609 34.8242 41.3231 35.2069C40.8128 35.462 40.4302 35.9722 40.5577 36.61C40.6853 37.2478 41.3231 37.758 41.9609 37.8856C43.364 38.1407 45.1498 37.8856 45.9151 36.7376L46.0427 36.4825C45.5325 36.0998 45.2774 35.5896 45.4049 34.9518C45.5325 34.314 46.1703 33.8038 46.808 33.6762C47.5734 33.5486 48.2112 33.8038 48.7214 34.314C49.2316 34.8242 49.3592 35.5896 48.9765 36.2273C48.3387 37.758 46.5529 38.3958 45.0222 38.6509C43.1089 39.0336 40.9404 38.906 39.2822 38.1407C38.1341 37.6305 37.2412 36.7376 37.1137 35.5896C36.9861 34.1864 37.879 33.0384 39.1546 32.2731C39.9199 31.8904 40.9404 31.5077 41.8333 31.5077V28.0637H39.4097C39.4097 27.0432 39.7924 25.8952 40.9404 25.385C41.3231 25.2574 41.7057 25.1298 42.0884 25.1298V22.196L43.6191 21.4307L48.7214 18.752L50.7623 17.604C51.4001 17.2213 52.4206 17.0937 53.1859 17.4764C53.5686 17.604 53.8237 17.8591 53.9513 18.1142Z" fill="#FFF572"/>
<path d="M37.1142 61.1021C36.2213 60.9745 35.8386 60.4643 35.456 59.954C35.3284 59.6989 33.0324 56.3824 32.3946 55.2344V59.4438C32.3946 60.0816 32.3946 60.4643 32.9048 60.8469H31.2466C31.7568 60.4643 31.7568 60.0816 31.7568 59.4438V54.9793C31.7568 54.3415 31.6293 54.0864 31.119 53.7037H32.9048L36.4764 59.1887V54.9793C36.4764 54.3415 36.4764 53.9588 35.9662 53.5762H37.6245C37.1142 53.9588 37.1142 54.3415 37.1142 54.9793V61.1021ZM24.2309 57.4029C24.2309 59.0611 24.9963 60.4643 26.3994 60.4643C27.675 60.4643 28.5679 59.0611 28.5679 57.4029C28.5679 55.7446 27.8025 54.3415 26.3994 54.3415C25.1238 54.214 24.2309 55.6171 24.2309 57.4029ZM29.8434 57.2753C29.8434 59.4438 28.3128 61.1021 26.3994 61.1021C24.486 61.1021 22.9553 59.5714 22.9553 57.4029C22.9553 55.362 24.486 53.7037 26.527 53.7037C28.4403 53.7037 29.8434 55.362 29.8434 57.2753ZM43.6196 60.3367V58.6785C43.6196 58.1682 43.6196 57.658 43.1094 57.5304H44.7677V60.9745C44.2574 61.1021 43.1094 61.2296 42.7267 61.2296C42.4716 61.2296 39.0276 61.2296 39.0276 57.5304C39.0276 54.214 41.8338 53.8313 42.4716 53.8313C43.1094 53.8313 44.0023 53.9588 44.5126 54.214V55.6171C44.0023 54.9793 43.6196 54.4691 42.5992 54.4691C41.8338 54.4691 40.3032 55.1069 40.3032 57.658C40.3032 58.2958 40.4307 59.8265 41.7063 60.4643C42.089 60.3367 42.9819 60.5918 43.6196 60.3367ZM76.4019 60.3367V58.6785C76.4019 58.1682 76.4019 57.658 75.8917 57.5304H77.5499V60.9745C77.0397 61.1021 75.8917 61.2296 75.509 61.2296C75.2539 61.2296 71.8098 61.2296 71.8098 57.5304C71.8098 54.214 74.6161 53.8313 75.2539 53.8313C75.8917 53.8313 76.7846 53.9588 77.2948 54.214V55.6171C76.7846 54.9793 76.4019 54.4691 75.3815 54.4691C74.6161 54.4691 73.0854 55.1069 73.0854 57.658C73.0854 58.2958 73.213 59.8265 74.4885 60.4643C74.7437 60.3367 75.6366 60.5918 76.4019 60.3367ZM46.5535 59.0611C46.9361 59.8265 47.7015 60.4643 48.4668 60.4643C49.2322 60.4643 49.7424 59.8265 49.7424 59.0611C49.7424 57.5305 46.681 57.7856 46.681 55.6171C46.681 54.0864 48.0842 53.5762 48.9771 53.5762C49.3597 53.5762 49.9975 53.7037 50.3802 53.8313V55.1069C49.87 54.3415 49.4873 54.0864 48.8495 54.0864C48.3393 54.0864 47.829 54.5966 47.829 55.1069C47.829 56.7651 50.8904 56.2549 50.8904 58.806C50.8904 60.2092 49.7424 60.9745 48.3393 60.9745C48.0842 60.9745 47.3188 60.8469 46.681 60.5918L46.5535 59.0611ZM53.9518 54.4691V60.3367C54.8447 60.4643 56.5029 60.3367 56.3754 58.806C56.3754 57.9131 55.7376 57.2753 54.3345 57.2753L54.5896 56.7651C55.0998 56.6375 55.8652 56.51 55.8652 55.4895C55.8652 54.4691 54.7171 54.214 53.9518 54.4691ZM57.651 58.806C57.651 59.6989 57.1407 60.2092 56.5029 60.5918C55.7376 60.9745 54.8447 60.9745 54.0794 60.9745H52.4211C52.9313 60.7194 52.9313 59.954 52.9313 59.4438V55.362C52.9313 54.8517 53.0589 54.0864 52.4211 53.8313H54.8447C56.2478 53.8313 57.1407 54.3415 57.1407 55.362C57.1407 56.1273 56.6305 56.51 55.6101 56.8927C56.3754 57.0202 57.651 57.4029 57.651 58.806ZM63.5186 55.1069C63.2635 54.7242 63.0084 54.214 60.8399 54.4691V56.7651H62.8808V57.7856C62.7533 57.5305 62.243 57.2753 61.9879 57.2753H60.9675V60.3367C63.5186 60.5918 64.0288 59.5714 64.1564 59.3163L63.6462 60.8469H59.1817C59.6919 60.5918 59.6919 59.954 59.6919 59.4438V55.1069C59.6919 54.5966 59.6919 53.9588 59.1817 53.7037H63.5186C63.5186 53.8313 63.5186 55.1069 63.5186 55.1069ZM71.5547 60.8469H70.5343C70.1516 60.8469 69.6414 60.8469 69.1311 60.0816C68.4933 59.3163 67.2178 57.4029 67.2178 57.4029L67.4729 56.8927C68.1107 56.7651 68.7485 56.3824 68.7485 55.362C68.7485 54.7242 68.1107 54.214 67.4729 54.214C67.2178 54.214 67.0902 54.214 66.8351 54.214V59.1887C66.8351 59.6989 66.7075 60.4643 67.3453 60.7194H65.3044C65.8146 60.4643 65.6871 59.8265 65.8146 59.1887V55.1069C65.8146 54.5966 65.9422 53.8313 65.3044 53.7037H67.8556C69.3862 53.7037 70.1516 54.4691 70.1516 55.4895C70.1516 56.3824 69.3862 56.8927 68.4933 57.1478C69.2587 58.4234 70.6618 60.5918 71.5547 60.8469ZM22.8278 60.8469H21.6798C21.1695 60.8469 20.7869 60.5918 20.4042 60.0816L18.3633 57.0202L20.1491 55.1069C20.6593 54.4691 20.9144 53.9588 20.1491 53.7037H22.19L19.5113 56.6376C20.2766 57.9131 21.8073 60.4643 22.8278 60.8469Z" fill="#001639"/>
<path d="M16.9594 55.3608C16.9594 54.8505 17.087 54.0852 16.4492 53.8301H18.6177C18.1075 54.0852 18.1075 54.8505 18.1075 55.3608V59.4426C18.1075 59.9528 17.9799 60.7182 18.6177 60.9733H16.4492C16.9594 60.7182 16.9594 59.9528 16.9594 59.4426V55.3608Z" fill="#001639"/>
</g>
<defs>
<clipPath id="clip0_1167_4319">
<rect width="94" height="61.1" fill="white"/>
</clipPath>
</defs>
</svg>
