<svg width="72" height="72" viewBox="0 0 72 72" fill="none" xmlns="http://www.w3.org/2000/svg">
<g clip-path="url(#clip0_1167_4230)">
<path d="M3.74266 57.7401V66.4287H0.207031V46.5176H3.74266V54.622H12.237V46.5176H15.7726V66.4287H12.237V57.7401H3.74266Z" fill="#3D4557"/>
<path d="M20.343 71.4421L22.6261 66.0396C20.9561 61.6125 18.9225 56.4044 17.1133 51.8105H20.8445C22.4594 56.4595 23.3784 59.3846 24.409 62.2519C25.2991 59.8296 26.7761 55.2634 27.9734 51.8105H31.6207C29.0592 58.27 26.5253 64.7582 23.7959 71.4421H20.343Z" fill="#3D4557"/>
<path d="M34.7122 59.133C34.7122 61.9176 36.2155 64.0064 38.7493 64.0064C41.3948 64.0064 42.9821 61.89 42.9821 59.0214C42.9821 56.2092 41.228 54.148 38.7769 54.148C36.2155 54.148 34.7122 56.3484 34.7122 59.133ZM43.0109 66.4287V64.3675C42.1746 65.6489 40.4758 66.7622 37.9695 66.7622C33.9875 66.7622 31.2305 63.6441 31.2305 59.0766C31.2305 54.6496 33.8759 51.3358 38.0535 51.3358C40.3642 51.3358 42.0355 52.4767 42.8429 53.6753C42.8153 52.6447 42.8153 51.7809 42.8153 50.7791V46.5176H46.213V66.4287H43.0109Z" fill="#3D4557"/>
<path d="M51.5849 51.7808V52.7838C51.5849 53.1173 51.5849 53.4521 51.5574 53.758C52.0589 52.2823 53.4242 51.4473 55.0942 51.4473C55.4566 51.4473 55.7061 51.4748 55.9017 51.5024V54.7334C55.6509 54.6494 55.261 54.6218 54.9275 54.6218C52.282 54.6218 51.8081 56.515 51.8081 59.5228V66.4285H48.4104V54.4262C48.4104 53.5072 48.4104 52.6722 48.3828 51.7807L51.5849 51.7808Z" fill="#3D4557"/>
<path d="M59.6328 59.1058C59.6328 62.0848 61.1649 64.0344 63.7264 64.0344C66.3167 64.0344 67.8475 62.0848 67.8475 59.1058C67.8475 56.2096 66.2891 54.1484 63.7264 54.1484C61.1925 54.1484 59.6328 56.2096 59.6328 59.1058ZM71.4396 59.1334C71.4396 63.6444 68.4606 66.8741 63.7264 66.8741C59.0197 66.8741 56.1523 63.6168 56.1523 59.1334C56.1523 54.5383 59.1877 51.3086 63.7815 51.3086C68.4042 51.3086 71.4396 54.5383 71.4396 59.1334Z" fill="#3D4557"/>
<path d="M38.5903 35.4286C44.5344 32.2992 48.5991 26.0629 48.5991 18.8901C48.5991 11.7186 44.5344 5.48234 38.5903 2.35168C46.5266 3.67441 52.5961 10.5852 52.5961 18.8901C52.5961 27.1964 46.5266 34.1071 38.5903 35.4286ZM36.7811 18.8901C36.7811 11.7211 32.7226 5.48484 26.781 2.35418C34.7136 3.67942 40.7793 10.5877 40.7793 18.8901C40.7793 27.1926 34.7136 34.1021 26.781 35.4274C32.7226 32.2967 36.7811 26.0604 36.7811 18.8901ZM32.6812 35.4286C38.6254 32.2992 42.6901 26.0629 42.6901 18.8901C42.6901 11.7186 38.6254 5.48234 32.6812 2.35168C40.6176 3.67441 46.6871 10.5852 46.6871 18.8901C46.6871 27.1964 40.6176 34.1071 32.6812 35.4286ZM35.8257 0.208984H18.0999C17.5721 0.208984 17.1445 0.636509 17.1445 1.16434C17.1445 1.69218 17.5721 2.11973 18.0999 2.11973C27.3477 2.11973 34.8703 9.64358 34.8703 18.8901C34.8703 28.1379 27.3477 35.6606 18.0999 35.6606C17.5721 35.6606 17.1445 36.0881 17.1445 36.6172C17.1445 37.1438 17.5721 37.5726 18.0999 37.5726H35.8257C46.1267 37.5726 54.5069 29.1924 54.5069 18.8901C54.5069 8.58916 46.1267 0.208984 35.8257 0.208984Z" fill="#3D4557"/>
</g>
<defs>
<clipPath id="clip0_1167_4230">
<rect width="71.6491" height="71.6503" fill="white"/>
</clipPath>
</defs>
</svg>
