<svg width="155" height="32" viewBox="0 0 155 32" fill="none" xmlns="http://www.w3.org/2000/svg">
<g clip-path="url(#clip0_1317_6861)">
<path d="M-0.757812 26.0217V5.43902C-0.757812 4.11408 0.319153 3.03711 1.6441 3.03711C2.69008 3.03711 3.616 3.71504 3.93362 4.71072L6.54474 12.9237C6.88953 14.0084 8.04785 14.6049 9.12874 14.2602C9.76404 14.0587 10.2638 13.559 10.4653 12.9237L13.0763 4.71072C13.394 3.71504 14.3199 3.03711 15.3659 3.03711H22.2268C23.5517 3.03711 24.6287 4.11408 24.6287 5.43902C24.6287 6.485 23.9508 7.41092 22.9551 7.72854L14.7422 10.3397C13.6575 10.6845 13.0609 11.8428 13.4056 12.9237C13.7504 14.0084 14.9088 14.6049 15.9896 14.2602C16.2531 14.1749 16.4933 14.0432 16.7025 13.8612L20.6656 10.4752C21.6729 9.61135 23.1876 9.73142 24.0515 10.7387C24.4505 11.2036 24.6558 11.8079 24.6248 12.42L24.2839 19.2654C24.2258 20.4005 23.2612 21.2761 22.1261 21.218C21.7154 21.1986 21.3203 21.0553 20.9949 20.8073L16.6056 17.5143C15.6952 16.8325 14.4052 17.0185 13.7233 17.925C13.5838 18.1109 13.4792 18.3163 13.4095 18.5371L10.7984 26.75C10.4807 27.7457 9.55488 28.4236 8.50884 28.4236H1.6441C0.319153 28.4236 -0.757812 27.3467 -0.757812 26.0217Z" fill="black"/>
<path d="M36.6227 13.5963V4.52307H33.2422V3.13281H41.6279V4.52307H38.2471V13.5963H36.6227Z" fill="black"/>
<path d="M42.6094 3.13281H44.0437V13.5963H42.6094V3.13281ZM47.5701 8.81091C47.5701 8.47922 47.5165 8.18652 47.4092 7.93283C47.3117 7.67919 47.1507 7.48406 46.9262 7.3475C46.7116 7.21087 46.4243 7.14261 46.0631 7.14261C45.751 7.14261 45.4677 7.18652 45.2144 7.27428C44.9703 7.36209 44.7609 7.48891 44.5849 7.65479C44.4095 7.82066 44.2728 8.02064 44.1753 8.25478C44.0876 8.47922 44.0437 8.73285 44.0437 9.01579H43.5458V7.0694H44.0726C44.2682 6.78651 44.5653 6.52307 44.9657 6.27918C45.3655 6.03524 45.8877 5.91333 46.5316 5.91333C46.9995 5.91333 47.419 6.00599 47.79 6.19137C48.1609 6.367 48.4581 6.64013 48.6825 7.01089C48.907 7.37184 49.0195 7.84017 49.0195 8.41581V13.5963H47.5701V8.81091Z" fill="black"/>
<path d="M54.0395 13.8137C53.2497 13.8137 52.5763 13.6429 52.0201 13.3014C51.4738 12.96 51.0589 12.4917 50.7762 11.8965C50.4935 11.2917 50.3516 10.6087 50.3516 9.84772C50.3516 9.26239 50.4346 8.73066 50.6008 8.25258C50.7762 7.76482 51.0203 7.3453 51.3324 6.99405C51.6544 6.64285 52.0398 6.37456 52.4886 6.18918C52.9468 5.99405 53.4643 5.89648 54.0395 5.89648C54.8005 5.89648 55.4398 6.05255 55.9568 6.36481C56.4836 6.677 56.8834 7.12086 57.1569 7.6965C57.4396 8.26239 57.5809 8.93069 57.5809 9.7014C57.5809 9.79897 57.5809 9.90138 57.5809 10.0088C57.5809 10.1063 57.5763 10.1843 57.5665 10.2429H51.0687V9.11601H56.0739C56.0739 8.82332 56.0249 8.55503 55.9274 8.31115C55.8299 8.05751 55.6885 7.83798 55.5033 7.6526C55.3273 7.46722 55.1127 7.32575 54.8594 7.22818C54.6055 7.12086 54.3176 7.06721 53.9957 7.06721C53.5762 7.06721 53.2006 7.15992 52.8689 7.3453C52.5469 7.53063 52.2931 7.78916 52.1078 8.12092C51.9226 8.45262 51.8298 8.84288 51.8298 9.29164C51.8298 9.44777 51.8298 9.60384 51.8298 9.75997C51.8298 9.90629 51.8298 10.0429 51.8298 10.1697C51.8298 10.599 51.9128 10.999 52.0784 11.3697C52.2446 11.7405 52.4933 12.0478 52.825 12.2917C53.1568 12.5258 53.5716 12.6429 54.069 12.6429C54.508 12.6429 54.8594 12.5648 55.1225 12.4088C55.396 12.2526 55.6008 12.0722 55.7375 11.8673C55.8835 11.6526 55.981 11.4624 56.0301 11.2965H57.4788C57.3519 11.7746 57.1419 12.2039 56.8494 12.5844C56.5568 12.9648 56.176 13.2673 55.7081 13.4917C55.2494 13.7064 54.6932 13.8137 54.0395 13.8137Z" fill="black"/>
<path d="M62.5859 13.5963V3.13281H66.9472C68.1081 3.13281 68.9914 3.3962 69.5961 3.92303C70.2007 4.4401 70.5037 5.18156 70.5037 6.14746C70.5037 6.58648 70.4206 6.98649 70.2544 7.3475C70.0888 7.69869 69.8598 7.99139 69.5667 8.22552C69.2741 8.45966 68.9378 8.62063 68.557 8.70844V8.73775C68.9568 8.81576 69.2741 8.98164 69.5084 9.23527C69.7524 9.47921 69.9325 9.77675 70.0496 10.128C70.1667 10.4792 70.2446 10.8451 70.2838 11.2256C70.3329 11.6061 70.3669 11.9622 70.3865 12.2939C70.4056 12.6256 70.4304 12.9036 70.4592 13.128C70.4985 13.3426 70.5619 13.4646 70.6496 13.4939V13.5963H68.9228C68.8449 13.5183 68.7958 13.367 68.7768 13.1427C68.767 12.9183 68.7618 12.65 68.7618 12.3378C68.7618 12.0256 68.7376 11.7085 68.6885 11.3865C68.6499 11.0549 68.5714 10.7475 68.4548 10.4646C68.3377 10.1817 68.1519 9.95238 67.8986 9.77675C67.6546 9.59138 67.3182 9.49871 66.889 9.49871H64.1963V13.5963H62.5859ZM64.1963 4.52307V8.10846H66.5959C67.0938 8.10846 67.508 8.04014 67.8398 7.90358C68.1814 7.75726 68.4398 7.54747 68.6158 7.27428C68.7912 7.00114 68.8789 6.66454 68.8789 6.26453C68.8789 5.6987 68.7035 5.26938 68.3521 4.97668C68.0106 4.67429 67.4353 4.52307 66.6253 4.52307H64.1963Z" fill="black"/>
<path d="M75.4458 13.8137C74.6553 13.8137 73.982 13.6429 73.4258 13.3014C72.8794 12.96 72.4652 12.4917 72.1819 11.8965C71.8992 11.2917 71.7578 10.6087 71.7578 9.84772C71.7578 9.26239 71.8409 8.73066 72.0065 8.25258C72.1819 7.76482 72.4259 7.3453 72.7381 6.99405C73.06 6.64285 73.4454 6.37456 73.8943 6.18918C74.353 5.99405 74.87 5.89648 75.4458 5.89648C76.2068 5.89648 76.8455 6.05255 77.3625 6.36481C77.8892 6.677 78.2897 7.12086 78.5626 7.6965C78.8458 8.26239 78.9872 8.93069 78.9872 9.7014C78.9872 9.79897 78.9872 9.90138 78.9872 10.0088C78.9872 10.1063 78.982 10.1843 78.9722 10.2429H72.475V9.11601H77.4796C77.4796 8.82332 77.4311 8.55503 77.3336 8.31115C77.2355 8.05751 77.0942 7.83798 76.909 7.6526C76.7336 7.46722 76.5189 7.32575 76.2651 7.22818C76.0112 7.12086 75.7239 7.06721 75.4014 7.06721C74.9819 7.06721 74.6063 7.15992 74.2745 7.3453C73.9526 7.53063 73.6993 7.78916 73.5141 8.12092C73.3283 8.45262 73.236 8.84288 73.236 9.29164C73.236 9.44777 73.236 9.60384 73.236 9.75997C73.236 9.90629 73.236 10.0429 73.236 10.1697C73.236 10.599 73.3185 10.999 73.4847 11.3697C73.6503 11.7405 73.8989 12.0478 74.2307 12.2917C74.5624 12.5258 74.9773 12.6429 75.4746 12.6429C75.9137 12.6429 76.2651 12.5648 76.5288 12.4088C76.8017 12.2526 77.0065 12.0722 77.1432 11.8673C77.2892 11.6526 77.3873 11.4624 77.4357 11.2965H78.8845C78.7576 11.7746 78.5481 12.2039 78.2556 12.5844C77.9625 12.9648 77.5823 13.2673 77.1138 13.4917C76.6551 13.7064 76.0995 13.8137 75.4458 13.8137Z" fill="black"/>
<path d="M83.4945 9.08773C83.836 9.17555 84.173 9.26821 84.5042 9.36577C84.8457 9.46334 85.1533 9.59996 85.4262 9.77553C85.7095 9.95116 85.9339 10.1755 86.0995 10.4487C86.2657 10.7219 86.3482 11.0634 86.3482 11.4731C86.3482 11.961 86.2264 12.3805 85.9824 12.7317C85.7481 13.0731 85.4019 13.3366 84.9432 13.5219C84.4851 13.7073 83.9289 13.8 83.2752 13.8C82.524 13.8 81.8946 13.6829 81.3874 13.4488C80.8901 13.2146 80.5093 12.8927 80.2456 12.4829C79.9923 12.0731 79.8556 11.6146 79.8359 11.1073H81.2847C81.3141 11.4 81.392 11.6634 81.519 11.8975C81.6557 12.1317 81.8651 12.3171 82.1484 12.4536C82.4311 12.5805 82.8021 12.6439 83.2608 12.6439C83.6803 12.6439 84.0022 12.5902 84.2267 12.4829C84.4603 12.3756 84.6213 12.239 84.7096 12.0731C84.8071 11.8975 84.8555 11.7219 84.8555 11.5463C84.8555 11.2341 84.758 11.0048 84.563 10.8585C84.368 10.7024 84.124 10.5902 83.8314 10.5219C83.5383 10.4438 83.2262 10.3707 82.8944 10.3024C82.5725 10.2244 82.2459 10.1414 81.9142 10.0536C81.5824 9.95607 81.2801 9.82435 81.0066 9.65847C80.7337 9.49259 80.5145 9.28286 80.3483 9.02917C80.1827 8.77554 80.0996 8.45359 80.0996 8.06333C80.0996 7.63407 80.2115 7.25846 80.436 6.93651C80.6604 6.61451 80.9824 6.36578 81.4018 6.19015C81.8311 6.00477 82.3481 5.91211 82.9533 5.91211C83.6266 5.91211 84.1874 6.01942 84.6363 6.23406C85.095 6.44869 85.4412 6.74138 85.6754 7.11208C85.9091 7.47309 86.0412 7.8682 86.0701 8.29746H84.6213C84.5925 8.10233 84.5238 7.91211 84.4165 7.72673C84.319 7.54135 84.158 7.38528 83.9336 7.25846C83.7091 7.13159 83.3872 7.06818 82.9677 7.06818C82.6458 7.06818 82.3827 7.10724 82.1778 7.1853C81.9823 7.26331 81.8363 7.37062 81.7388 7.50725C81.6413 7.64382 81.5922 7.80969 81.5922 8.00477C81.5922 8.25846 81.6753 8.44868 81.8409 8.57556C82.0071 8.70238 82.2361 8.79994 82.5286 8.8682C82.8217 8.92676 83.1437 8.99992 83.4945 9.08773Z" fill="black"/>
<path d="M90.9569 13.8137C90.1671 13.8137 89.4937 13.6429 88.9375 13.3014C88.3912 12.96 87.9769 12.4917 87.6936 11.8965C87.4109 11.2917 87.2695 10.6087 87.2695 9.84772C87.2695 9.26239 87.352 8.73066 87.5182 8.25258C87.6936 7.76482 87.9377 7.3453 88.2498 6.99405C88.5717 6.64285 88.9572 6.37456 89.406 6.18918C89.8647 5.99405 90.3817 5.89648 90.9569 5.89648C91.7179 5.89648 92.3572 6.05255 92.8742 6.36481C93.401 6.677 93.8014 7.12086 94.0743 7.6965C94.357 8.26239 94.4989 8.93069 94.4989 9.7014C94.4989 9.79897 94.4989 9.90138 94.4989 10.0088C94.4989 10.1063 94.4937 10.1843 94.4839 10.2429H87.9867V9.11601H92.9913C92.9913 8.82332 92.9428 8.55503 92.8448 8.31115C92.7473 8.05751 92.6059 7.83798 92.4207 7.6526C92.2447 7.46722 92.0301 7.32575 91.7768 7.22818C91.5229 7.12086 91.235 7.06721 90.9131 7.06721C90.4936 7.06721 90.118 7.15992 89.7863 7.3453C89.4643 7.53063 89.211 7.78916 89.0252 8.12092C88.84 8.45262 88.7471 8.84288 88.7471 9.29164C88.7471 9.44777 88.7471 9.60384 88.7471 9.75997C88.7471 9.90629 88.7471 10.0429 88.7471 10.1697C88.7471 10.599 88.8302 10.999 88.9964 11.3697C89.162 11.7405 89.4107 12.0478 89.7424 12.2917C90.0742 12.5258 90.489 12.6429 90.9863 12.6429C91.4254 12.6429 91.7768 12.5648 92.0399 12.4088C92.3134 12.2526 92.5182 12.0722 92.6549 11.8673C92.8009 11.6526 92.8984 11.4624 92.9475 11.2965H94.3962C94.2693 11.7746 94.0598 12.2039 93.7667 12.5844C93.4742 12.9648 93.094 13.2673 92.6255 13.4917C92.1668 13.7064 91.6106 13.8137 90.9569 13.8137Z" fill="black"/>
<path d="M98.0104 13.799C97.269 13.799 96.6736 13.6039 96.2247 13.2136C95.7857 12.8136 95.5664 12.2965 95.5664 11.6624C95.5664 11.2429 95.6397 10.8917 95.7857 10.6087C95.942 10.3258 96.1566 10.0917 96.4295 9.90628C96.703 9.72091 97.0296 9.56968 97.4104 9.45262C97.8004 9.33555 98.2251 9.23308 98.6832 9.14532C98.9763 9.08676 99.2394 9.0331 99.4736 8.98435C99.7079 8.93554 99.9081 8.87213 100.074 8.79407C100.24 8.716 100.362 8.61844 100.439 8.50137C100.527 8.3843 100.571 8.23308 100.571 8.0477C100.571 7.77457 100.469 7.54038 100.264 7.3453C100.069 7.15017 99.6981 7.05261 99.1517 7.05261C98.498 7.05261 98.0491 7.15992 97.8056 7.37456C97.5616 7.58919 97.4202 7.95014 97.381 8.45746H95.9178C95.9466 7.97945 96.0736 7.55018 96.298 7.16968C96.5322 6.77942 96.8836 6.47212 97.3515 6.24768C97.8298 6.01355 98.4495 5.89648 99.2105 5.89648C99.7275 5.89648 100.191 5.97939 100.6 6.14527C101.02 6.30134 101.352 6.56478 101.596 6.93554C101.85 7.30624 101.976 7.81847 101.976 8.47212V11.8965C101.976 12.1697 102.001 12.3746 102.049 12.5112C102.098 12.6478 102.191 12.7161 102.327 12.7161C102.347 12.7161 102.371 12.7161 102.401 12.7161C102.43 12.7161 102.464 12.7112 102.503 12.7015V13.5795C102.376 13.6088 102.249 13.6283 102.122 13.638C102.005 13.6575 101.888 13.6673 101.771 13.6673C101.42 13.6673 101.147 13.5892 100.952 13.4332C100.757 13.2673 100.64 12.9697 100.6 12.5405H100.571C100.318 12.9209 99.9762 13.2283 99.5469 13.4624C99.1274 13.6868 98.6151 13.799 98.0104 13.799ZM98.3324 12.6429C98.7616 12.6429 99.1419 12.5697 99.4736 12.4234C99.8152 12.277 100.083 12.0575 100.278 11.7649C100.474 11.4722 100.571 11.1112 100.571 10.6819V9.61359C100.493 9.6819 100.371 9.75022 100.205 9.81847C100.049 9.87703 99.859 9.93554 99.6346 9.9941C99.42 10.0429 99.1857 10.0965 98.9324 10.1551C98.4934 10.2429 98.1322 10.3502 97.8495 10.477C97.576 10.5941 97.3764 10.7405 97.2494 10.916C97.1323 11.0819 97.0734 11.2965 97.0734 11.56C97.0734 11.9112 97.1709 12.1795 97.3665 12.3649C97.5714 12.5502 97.8933 12.6429 98.3324 12.6429Z" fill="black"/>
<path d="M103.867 6.13065H105.302V13.5942H103.867V6.13065ZM108.024 7.37459C107.926 7.35509 107.838 7.34534 107.76 7.34534C107.692 7.33553 107.619 7.33068 107.541 7.33068C107.102 7.33068 106.711 7.43309 106.37 7.63797C106.038 7.8331 105.775 8.1112 105.58 8.47215C105.394 8.83316 105.302 9.25267 105.302 9.73069H104.599L104.277 7.55022H105.331C105.526 7.08189 105.78 6.70138 106.092 6.40869C106.414 6.1063 106.828 5.95508 107.336 5.95508C107.472 5.95508 107.594 5.95993 107.702 5.96968C107.809 5.96968 107.916 5.97943 108.024 5.99893V7.37459Z" fill="black"/>
<path d="M114.083 8.83894C114.063 8.58531 113.995 8.32677 113.878 8.06333C113.761 7.79014 113.566 7.56091 113.292 7.37553C113.029 7.19015 112.668 7.09749 112.209 7.09749C111.692 7.09749 111.273 7.23406 110.951 7.50725C110.629 7.77063 110.395 8.11214 110.248 8.53165C110.112 8.95117 110.043 9.39508 110.043 9.86335C110.043 10.3317 110.112 10.7755 110.248 11.1951C110.395 11.6146 110.629 11.9561 110.951 12.2195C111.273 12.4829 111.692 12.6146 112.209 12.6146C112.678 12.6146 113.044 12.5268 113.307 12.3512C113.57 12.1658 113.761 11.9366 113.878 11.6634C113.995 11.3804 114.063 11.1024 114.083 10.8292H115.575C115.546 11.4048 115.385 11.9171 115.092 12.3658C114.8 12.8048 114.405 13.1561 113.907 13.4195C113.419 13.6829 112.858 13.8146 112.224 13.8146C111.482 13.8146 110.834 13.6488 110.278 13.3171C109.731 12.9756 109.307 12.5121 109.004 11.9268C108.702 11.3317 108.551 10.6439 108.551 9.86335C108.551 9.27796 108.634 8.74628 108.799 8.26821C108.975 7.78038 109.224 7.36087 109.546 7.00967C109.868 6.65841 110.253 6.39013 110.702 6.20475C111.151 6.00967 111.653 5.91211 112.209 5.91211C112.843 5.91211 113.405 6.03893 113.892 6.29256C114.38 6.54625 114.765 6.89261 115.049 7.33162C115.341 7.77063 115.516 8.27311 115.575 8.83894H114.083Z" fill="black"/>
<path d="M116.926 3.13281H118.36V13.5963H116.926V3.13281ZM121.887 8.81091C121.887 8.47922 121.833 8.18652 121.726 7.93283C121.628 7.67919 121.467 7.48406 121.243 7.3475C121.028 7.21087 120.74 7.14261 120.38 7.14261C120.067 7.14261 119.784 7.18652 119.531 7.27428C119.287 7.36209 119.077 7.48891 118.901 7.65479C118.726 7.82066 118.589 8.02064 118.492 8.25478C118.404 8.47922 118.36 8.73285 118.36 9.01579H117.862V7.0694H118.389C118.584 6.78651 118.882 6.52307 119.282 6.27918C119.682 6.03524 120.204 5.91333 120.847 5.91333C121.316 5.91333 121.735 6.00599 122.106 6.19137C122.477 6.367 122.774 6.64013 122.999 7.01089C123.223 7.37184 123.335 7.84017 123.335 8.41581V13.5963H121.887V8.81091Z" fill="black"/>
<path d="M41.2484 21.3411C41.1999 21.0777 41.1168 20.8094 40.9997 20.5362C40.8924 20.263 40.7314 20.0093 40.5167 19.7752C40.302 19.5313 40.024 19.3362 39.6825 19.1898C39.3411 19.0435 38.9167 18.9703 38.4094 18.9703C37.8337 18.9703 37.341 19.0825 36.9313 19.3069C36.5313 19.5313 36.2044 19.8338 35.9508 20.2142C35.6972 20.5947 35.5118 21.0289 35.3947 21.5167C35.2776 21.9947 35.2191 22.4923 35.2191 23.0094C35.2191 23.5265 35.2776 24.0289 35.3947 24.5167C35.5118 25.0045 35.6972 25.4387 35.9508 25.8192C36.2044 26.1997 36.5313 26.5021 36.9313 26.7265C37.341 26.9509 37.8337 27.0631 38.4094 27.0631C39.0826 27.0631 39.6191 26.9363 40.0192 26.6826C40.4289 26.4192 40.7265 26.0874 40.912 25.6875C41.107 25.2875 41.219 24.8728 41.2484 24.4436H42.9314C42.8535 25.2143 42.6239 25.907 42.2436 26.5216C41.8727 27.1265 41.3655 27.5997 40.7216 27.9411C40.0777 28.2826 39.3118 28.4534 38.424 28.4534C37.4386 28.4534 36.5801 28.2192 35.8484 27.7509C35.1166 27.2826 34.5508 26.6387 34.1508 25.8192C33.7508 24.9996 33.5508 24.0679 33.5508 23.024C33.5508 22.224 33.6629 21.4972 33.8873 20.8435C34.1215 20.1801 34.4532 19.6045 34.8825 19.1167C35.3117 18.6288 35.824 18.2532 36.4191 17.9898C37.0239 17.7166 37.6971 17.5801 38.4386 17.5801C39.3264 17.5801 40.0874 17.7459 40.7216 18.0776C41.3557 18.4094 41.8628 18.863 42.2436 19.4386C42.6239 20.0045 42.8535 20.6386 42.9314 21.3411H41.2484Z" fill="black"/>
<path d="M47.8484 28.468C47.0684 28.468 46.3997 28.3021 45.8441 27.9704C45.2879 27.6289 44.8586 27.1606 44.5557 26.5655C44.2632 25.9703 44.1172 25.2874 44.1172 24.5167C44.1172 23.9313 44.1997 23.3996 44.3659 22.9215C44.5315 22.4337 44.7755 22.0142 45.0975 21.663C45.4292 21.302 45.8244 21.0289 46.2825 20.8435C46.751 20.6483 47.2732 20.5508 47.8484 20.5508C48.6291 20.5508 49.2926 20.7215 49.839 21.063C50.3952 21.3947 50.8244 21.8581 51.1268 22.4533C51.4291 23.0386 51.5802 23.7216 51.5802 24.502C51.5802 25.0972 51.4926 25.6386 51.3172 26.1265C51.151 26.6045 50.9023 27.0192 50.5706 27.3704C50.2486 27.7216 49.8586 27.9948 49.3999 28.1899C48.9412 28.3753 48.4242 28.468 47.8484 28.468ZM47.8484 27.2826C48.239 27.2826 48.5708 27.2143 48.8437 27.0777C49.127 26.9411 49.356 26.746 49.5314 26.4923C49.7172 26.2289 49.8534 25.9313 49.9411 25.5996C50.0392 25.2679 50.0876 24.9069 50.0876 24.5167C50.0876 23.9898 50.0046 23.5215 49.839 23.1118C49.6826 22.6922 49.4391 22.3606 49.1074 22.1167C48.7756 21.8727 48.3562 21.7508 47.8484 21.7508C47.4682 21.7508 47.1365 21.8191 46.8537 21.9557C46.5705 22.0923 46.3362 22.2874 46.151 22.541C45.9658 22.7947 45.829 23.0923 45.7413 23.4338C45.6537 23.7655 45.6098 24.1264 45.6098 24.5167C45.6098 25.0338 45.6877 25.5021 45.8441 25.9216C45.9998 26.3411 46.2439 26.6728 46.5756 26.9167C46.9172 27.1606 47.3413 27.2826 47.8484 27.2826Z" fill="black"/>
<path d="M59.304 20.7871V28.2506H57.8697V20.7871H59.304ZM54.3433 25.5579C54.3433 25.8896 54.3918 26.1823 54.4893 26.436C54.5966 26.6896 54.7576 26.8896 54.9722 27.036C55.1966 27.1726 55.4897 27.2409 55.8503 27.2409C56.1625 27.2409 56.4406 27.197 56.6846 27.1092C56.9385 27.0213 57.1531 26.8945 57.3285 26.7287C57.5039 26.553 57.636 26.353 57.7237 26.1287C57.8212 25.9043 57.8697 25.6506 57.8697 25.3676H57.8991V27.314H57.8409C57.6458 27.597 57.3481 27.8604 56.9477 28.1043C56.5479 28.3384 56.0263 28.4555 55.3824 28.4555C54.9237 28.4555 54.5043 28.3677 54.1235 28.1921C53.7531 28.0165 53.4553 27.7433 53.2309 27.3725C53.0065 26.9921 52.8945 26.5189 52.8945 25.953V20.7871H54.3433V25.5579Z" fill="black"/>
<path d="M61.125 28.2494V20.7859H62.5588V28.2494H61.125ZM66.0858 23.464C66.0858 23.1323 66.0321 22.8396 65.9248 22.5859C65.8273 22.3323 65.6663 22.1371 65.4419 22.0006C65.2272 21.8639 64.9393 21.7957 64.5781 21.7957C64.266 21.7957 63.9833 21.8396 63.7294 21.9274C63.4859 22.0152 63.2759 22.142 63.1005 22.3079C62.9246 22.4737 62.7884 22.6737 62.6903 22.9079C62.6026 23.1323 62.5588 23.3859 62.5588 23.6689H62.0614V21.7225H62.5882C62.7832 21.4396 63.0809 21.1761 63.4808 20.9323C63.8806 20.6883 64.4027 20.5664 65.0466 20.5664C65.5151 20.5664 65.9346 20.6591 66.305 20.8444C66.676 21.0201 66.9737 21.2932 67.1981 21.664C67.4226 22.0249 67.5345 22.4932 67.5345 23.0689V28.2494H66.0858V23.464Z" fill="black"/>
<path d="M74.3991 23.4932C74.3795 23.2396 74.3109 22.9811 74.1943 22.7176C74.0772 22.4444 73.8816 22.2152 73.6087 22.0298C73.345 21.8444 72.9844 21.7518 72.5257 21.7518C72.0088 21.7518 71.5893 21.8884 71.2674 22.1615C70.9454 22.4249 70.7112 22.7664 70.5646 23.186C70.4279 23.6055 70.3598 24.0494 70.3598 24.5176C70.3598 24.986 70.4279 25.4298 70.5646 25.8494C70.7112 26.2689 70.9454 26.6104 71.2674 26.8738C71.5893 27.1372 72.0088 27.2689 72.5257 27.2689C72.9942 27.2689 73.36 27.1811 73.6231 27.0055C73.8868 26.8201 74.0772 26.5909 74.1943 26.3177C74.3109 26.0347 74.3795 25.7567 74.3991 25.4835H75.8918C75.8623 26.0591 75.7014 26.5714 75.4088 27.0201C75.1163 27.4591 74.7211 27.8104 74.2232 28.0738C73.7356 28.3372 73.1748 28.4689 72.5402 28.4689C71.7988 28.4689 71.1502 28.3031 70.5941 27.9714C70.0477 27.6299 69.623 27.1664 69.3207 26.5811C69.0184 25.986 68.8672 25.2982 68.8672 24.5176C68.8672 23.9323 68.9503 23.4006 69.1159 22.9225C69.2918 22.4347 69.5405 22.0152 69.8625 21.664C70.1844 21.3127 70.5698 21.0444 71.0187 20.859C71.467 20.664 71.9695 20.5664 72.5257 20.5664C73.1598 20.5664 73.7206 20.6932 74.2087 20.9469C74.6963 21.2006 75.0817 21.5469 75.365 21.9859C75.6575 22.4249 75.8329 22.9274 75.8918 23.4932H74.3991Z" fill="black"/>
<path d="M77.2136 28.2508V20.7872H78.6479V28.2508H77.2136ZM77.082 18.7092C77.082 18.4848 77.1553 18.2897 77.3013 18.1238C77.4478 17.958 77.6573 17.875 77.9307 17.875C78.2037 17.875 78.4137 17.958 78.5596 18.1238C78.7062 18.2897 78.7795 18.4848 78.7795 18.7092C78.7795 18.9336 78.7062 19.1287 78.5596 19.2946C78.4137 19.4604 78.2037 19.5434 77.9307 19.5434C77.6573 19.5434 77.4478 19.4604 77.3013 19.2946C77.1553 19.1287 77.082 18.9336 77.082 18.7092Z" fill="black"/>
<path d="M80.4844 17.7871H81.9181V28.2506H80.4844V17.7871Z" fill="black"/>
<path d="M90.4818 28.468C89.7018 28.468 89.0331 28.3021 88.4769 27.9704C87.9212 27.6289 87.492 27.1606 87.1891 26.5655C86.8965 25.9703 86.75 25.2874 86.75 24.5167C86.75 23.9313 86.8331 23.3996 86.9992 22.9215C87.1648 22.4337 87.4089 22.0142 87.7308 21.663C88.0626 21.302 88.4578 21.0289 88.9159 20.8435C89.3844 20.6483 89.9066 20.5508 90.4818 20.5508C91.2625 20.5508 91.926 20.7215 92.4723 21.063C93.0285 21.3947 93.4578 21.8581 93.7601 22.4533C94.0625 23.0386 94.2136 23.7216 94.2136 24.502C94.2136 25.0972 94.1259 25.6386 93.9505 26.1265C93.7844 26.6045 93.5357 27.0192 93.2039 27.3704C92.882 27.7216 92.492 27.9948 92.0333 28.1899C91.5746 28.3753 91.0576 28.468 90.4818 28.468ZM90.4818 27.2826C90.8724 27.2826 91.2042 27.2143 91.4771 27.0777C91.7604 26.9411 91.9894 26.746 92.1648 26.4923C92.3506 26.2289 92.4868 25.9313 92.5745 25.5996C92.6726 25.2679 92.721 24.9069 92.721 24.5167C92.721 23.9898 92.6379 23.5215 92.4723 23.1118C92.316 22.6922 92.0725 22.3606 91.7408 22.1167C91.409 21.8727 90.9895 21.7508 90.4818 21.7508C90.1016 21.7508 89.7698 21.8191 89.4871 21.9557C89.2038 22.0923 88.9696 22.2874 88.7844 22.541C88.5992 22.7947 88.4624 23.0923 88.3747 23.4338C88.287 23.7655 88.2432 24.1264 88.2432 24.5167C88.2432 25.0338 88.3211 25.5021 88.4769 25.9216C88.6332 26.3411 88.8773 26.6728 89.209 26.9167C89.5506 27.1606 89.9747 27.2826 90.4818 27.2826Z" fill="black"/>
<path d="M94.8672 20.7861H98.7306V21.9714H94.8672V20.7861ZM97.3256 28.2496H95.8913V19.8787C95.8913 19.3031 95.9692 18.8592 96.1255 18.547C96.2813 18.2251 96.5012 18.0007 96.7839 17.8738C97.077 17.747 97.4231 17.6836 97.823 17.6836C97.9597 17.6836 98.0913 17.6933 98.2182 17.7128C98.3549 17.7226 98.5257 17.7422 98.7306 17.7714V18.9275C98.584 18.908 98.4721 18.8982 98.3936 18.8982C98.3157 18.8885 98.2228 18.8836 98.1155 18.8836C97.9205 18.8836 97.7647 18.908 97.6476 18.9568C97.5305 19.0055 97.4474 19.1031 97.3989 19.2495C97.3499 19.386 97.3256 19.5861 97.3256 19.8495V28.2496Z" fill="black"/>
<path d="M103.652 28.2506V17.7871H105.496L110.355 25.836H110.384V17.7871H112.009V28.2506H110.165L105.292 20.2018H105.262V28.2506H103.652Z" fill="black"/>
<path d="M117.193 28.468C116.412 28.468 115.744 28.3021 115.188 27.9704C114.632 27.6289 114.202 27.1606 113.9 26.5655C113.607 25.9703 113.461 25.2874 113.461 24.5167C113.461 23.9313 113.543 23.3996 113.71 22.9215C113.875 22.4337 114.119 22.0142 114.441 21.663C114.773 21.302 115.168 21.0289 115.627 20.8435C116.095 20.6483 116.617 20.5508 117.193 20.5508C117.973 20.5508 118.636 20.7215 119.183 21.063C119.739 21.3947 120.168 21.8581 120.471 22.4533C120.773 23.0386 120.925 23.7216 120.925 24.502C120.925 25.0972 120.836 25.6386 120.661 26.1265C120.495 26.6045 120.246 27.0192 119.914 27.3704C119.592 27.7216 119.202 27.9948 118.744 28.1899C118.285 28.3753 117.768 28.468 117.193 28.468ZM117.193 27.2826C117.583 27.2826 117.915 27.2143 118.187 27.0777C118.471 26.9411 118.7 26.746 118.876 26.4923C119.061 26.2289 119.198 25.9313 119.285 25.5996C119.383 25.2679 119.431 24.9069 119.431 24.5167C119.431 23.9898 119.349 23.5215 119.183 23.1118C119.027 22.6922 118.783 22.3606 118.451 22.1167C118.119 21.8727 117.7 21.7508 117.193 21.7508C116.812 21.7508 116.48 21.8191 116.197 21.9557C115.914 22.0923 115.681 22.2874 115.495 22.541C115.31 22.7947 115.173 23.0923 115.085 23.4338C114.997 23.7655 114.954 24.1264 114.954 24.5167C114.954 25.0338 115.031 25.5021 115.188 25.9216C115.344 26.3411 115.588 26.6728 115.919 26.9167C116.261 27.1606 116.685 27.2826 117.193 27.2826Z" fill="black"/>
<path d="M122.324 20.7849H123.758V28.2485H122.324V20.7849ZM126.48 22.0289C126.383 22.0094 126.295 21.9996 126.217 21.9996C126.148 21.9899 126.075 21.985 125.997 21.985C125.558 21.985 125.168 22.0874 124.827 22.2923C124.495 22.4874 124.231 22.7655 124.036 23.1264C123.851 23.4875 123.758 23.907 123.758 24.385H123.056L122.734 22.2045H123.787C123.982 21.7362 124.236 21.3557 124.548 21.063C124.87 20.7606 125.285 20.6094 125.792 20.6094C125.929 20.6094 126.051 20.6142 126.158 20.624C126.265 20.624 126.373 20.6337 126.48 20.6532V22.0289Z" fill="black"/>
<path d="M127.145 20.7871H128.696L130.276 26.5677H130.306L131.857 20.7871H133.306L134.857 26.5677H134.901L136.482 20.7871H137.989L135.662 28.2506H134.184L132.574 22.4993H132.545L130.935 28.2506H129.457L127.145 20.7871Z" fill="black"/>
<path d="M140.803 28.4533C140.062 28.4533 139.467 28.2582 139.018 27.8679C138.579 27.4679 138.359 26.9508 138.359 26.3167C138.359 25.8972 138.433 25.546 138.579 25.263C138.735 24.9801 138.95 24.746 139.223 24.5606C139.496 24.3752 139.823 24.224 140.203 24.1069C140.594 23.9898 141.018 23.8874 141.477 23.7996C141.769 23.7411 142.033 23.6874 142.267 23.6386C142.501 23.5898 142.701 23.5264 142.867 23.4484C143.033 23.3703 143.155 23.2727 143.233 23.1557C143.321 23.0386 143.365 22.8874 143.365 22.702C143.365 22.4289 143.262 22.1947 143.057 21.9996C142.862 21.8045 142.491 21.7069 141.945 21.7069C141.292 21.7069 140.843 21.8142 140.599 22.0289C140.355 22.2435 140.213 22.6044 140.174 23.1118H138.711C138.74 22.6337 138.867 22.2045 139.092 21.824C139.325 21.4337 139.677 21.1264 140.145 20.902C140.623 20.6678 141.242 20.5508 142.004 20.5508C142.52 20.5508 142.984 20.6337 143.394 20.7996C143.813 20.9556 144.145 21.2191 144.389 21.5898C144.643 21.9605 144.769 22.4728 144.769 23.1264V26.5508C144.769 26.824 144.794 27.0289 144.843 27.1655C144.891 27.3021 144.984 27.3704 145.121 27.3704C145.14 27.3704 145.165 27.3704 145.194 27.3704C145.223 27.3704 145.257 27.3655 145.296 27.3558V28.2338C145.169 28.2631 145.042 28.2826 144.915 28.2923C144.799 28.3118 144.682 28.3216 144.565 28.3216C144.213 28.3216 143.94 28.2435 143.745 28.0875C143.55 27.9216 143.433 27.624 143.394 27.1948H143.365C143.111 27.5752 142.769 27.8826 142.34 28.1167C141.92 28.3411 141.409 28.4533 140.803 28.4533ZM141.125 27.2972C141.555 27.2972 141.935 27.224 142.267 27.0777C142.608 26.9313 142.876 26.7118 143.072 26.4192C143.267 26.1265 143.365 25.7655 143.365 25.3362V24.2679C143.287 24.3362 143.164 24.4045 142.999 24.4728C142.842 24.5313 142.652 24.5898 142.428 24.6484C142.214 24.6972 141.979 24.7508 141.725 24.8094C141.286 24.8972 140.925 25.0045 140.642 25.1313C140.37 25.2484 140.169 25.3948 140.042 25.5703C139.925 25.7362 139.867 25.9508 139.867 26.2143C139.867 26.5655 139.964 26.8338 140.16 27.0192C140.364 27.2045 140.686 27.2972 141.125 27.2972Z" fill="black"/>
<path d="M148.521 28.1775L145.492 20.7871H147.058L149.238 26.4945H149.268L151.331 20.7871H152.824L149.882 28.4263C149.639 29.0312 149.39 29.5141 149.136 29.875C148.882 30.236 148.604 30.4897 148.302 30.636C148.009 30.7921 147.668 30.8702 147.278 30.8702C147.122 30.8702 146.975 30.8604 146.839 30.8409C146.702 30.8312 146.541 30.8068 146.356 30.7677V29.597C146.482 29.6067 146.59 29.6165 146.678 29.6262C146.766 29.636 146.863 29.6409 146.97 29.6409C147.165 29.6409 147.36 29.597 147.555 29.5092C147.761 29.4311 147.946 29.2848 148.112 29.0702C148.278 28.8653 148.414 28.5677 148.521 28.1775Z" fill="black"/>
</g>
<defs>
<clipPath id="clip0_1317_6861">
<rect width="154.353" height="32" fill="white"/>
</clipPath>
</defs>
</svg>
