<svg width="168" height="32" viewBox="0 0 168 32" fill="none" xmlns="http://www.w3.org/2000/svg">
<g clip-path="url(#clip0_1272_570)">
<path d="M23.4653 0H7.81746C3.50148 0 0 3.50993 0 7.84547V23.5386C0 27.8676 3.50148 31.3797 7.81746 31.3797H23.4653C27.7813 31.3797 31.2828 27.8655 31.2828 23.5386V7.84547C31.2828 3.50993 27.7813 0 23.4653 0ZM7.81746 7.84547H23.4653V23.5386H7.81746V7.84547Z" fill="#00509E"/>
<path d="M15.5931 9.19922C12.0442 9.19922 9.17188 12.0845 9.17188 15.6399C9.17188 19.1952 12.0442 22.074 15.5931 22.074C19.1419 22.074 22.0078 19.193 22.0078 15.6399C22.0078 12.0867 19.1355 9.19922 15.5931 9.19922Z" fill="#00509E"/>
<path d="M59.1294 0.0351562V1.61938H63.4367V21.8663L48.4655 0.0351562H38.4609V1.61938H42.2447V29.7961H38.4609V31.3825H48.6853V29.7961H44.2378V2.51847L64.4452 32.0027L65.4967 31.6785V1.61938H69.0025V1.10067V0.0351562H59.1315H59.1294Z" fill="#231F20"/>
<path d="M122.776 0.0351562V1.61938H127.092V21.8685L112.118 0.0351562H110.677H102.114H102.109V1.61938H105.91V29.7961H102.114V31.3825H112.34V29.7961H107.904V2.54009L128.1 32.0027L129.152 31.7239V1.61938H132.657V0.0351562H122.786H122.776Z" fill="#231F20"/>
<path d="M158.215 0.0351562H158.21V1.61938H162.386C162.386 1.61938 162.378 19.9276 162.378 23.3209C162.378 26.7141 161.298 29.7096 153.789 29.7096C145.551 29.7096 145.467 26.2278 145.422 21.8339L145.461 1.61722H149.848V0.0351562H136.656V1.61938H140.468L140.507 21.2136C140.552 25.4757 140.64 28.9402 144.579 30.6282C147.057 31.6504 150.955 31.8255 152.589 31.8255C162.559 31.8255 164.44 27.7104 164.44 23.336C164.44 18.9615 164.448 1.61938 164.448 1.61938H167.997V0.0351562H158.215Z" fill="#231F20"/>
<path d="M71.8359 10.0657H73.1202C73.2085 8.56143 73.3443 6.69408 74.803 4.3426C75.8546 2.66112 77.3909 1.96518 79.0005 1.96518H83.2152L83.2583 5.3195V25.789L83.2195 29.7961H78.436V31.3803H92.9547V29.7939H88.1668L88.1302 25.7869V5.3195L88.1712 1.96518H91.8623C93.7735 1.96518 95.465 2.42986 96.5402 4.25399C97.9128 6.56224 98.0895 8.51172 98.221 10.0657H99.5504V0.0351562H71.8403V10.0657H71.8359Z" fill="#231F20"/>
</g>
<defs>
<clipPath id="clip0_1272_570">
<rect width="168" height="32" fill="white"/>
</clipPath>
</defs>
</svg>
