<svg width="156" height="32" viewBox="0 0 156 32" fill="none" xmlns="http://www.w3.org/2000/svg">
<g clip-path="url(#clip0_1272_579)">
<path d="M59.7648 12.1919C56.3468 11.0107 54.309 10.556 52.3037 10.556C50.1969 10.556 48.6665 11.3273 48.6665 12.2406C48.6665 15.001 60.532 14.4084 60.532 20.7856C60.532 24.297 57.0369 25.9694 51.7881 25.9694C47.676 25.9694 45.6382 25.1373 43.2919 24.1995V20.2579C46.6774 21.9994 48.7477 22.6164 51.3416 22.6164C53.5865 22.6164 54.9179 21.5731 54.9179 20.5015C54.9179 17.5016 43.1133 18.5976 43.1133 12.0336C43.1133 8.87137 46.3324 7.20703 51.7922 7.20703C54.4186 7.20703 56.8015 7.63732 59.7729 8.62781V12.1919H59.7648Z" fill="#00447C"/>
<path d="M69.8746 25.7287H64.9141V7.44531H69.8746V25.7246V25.7287Z" fill="#00447C"/>
<path d="M80.1313 25.7287H74.9922V7.44531H79.7092L90.8156 18.8643V7.44531H95.7721V25.7246H91.6234L80.1273 13.7049V25.7246L80.1313 25.7287Z" fill="#00447C"/>
<path d="M136.017 25.7287H120.242V7.44531H136.033V10.6116H125.138V14.6872H134.953V17.9144H125.138V22.4934H136.017V25.7246V25.7287Z" fill="#00447C"/>
<path d="M155.175 10.6157H144.146V14.9348H154.01V18.1661H144.146V25.7328H139.25V7.44531H155.175V10.6116V10.6157Z" fill="#00447C"/>
<path d="M33.2787 16.002C33.2787 23.2318 30.0231 32 16.6394 32C3.25561 32 0 23.2318 0 16.002C0 8.77229 3.25561 0 16.6394 0C30.0231 0 33.2787 8.76823 33.2787 16.002ZM15.5596 29.3289C15.9087 29.3452 16.2699 29.3492 16.6394 29.3492C28.5495 29.3492 31.4479 21.5431 31.4479 15.109C31.4479 8.67487 28.8337 1.64404 18.3524 0.929595L17.7191 2.67106C17.366 2.65483 17.0088 2.65077 16.6394 2.65077C4.72916 2.65077 1.83078 10.4529 1.83078 16.891C1.83078 23.3292 4.44907 30.356 14.9304 31.0745L15.5636 29.333L15.5596 29.3289Z" fill="#00447C"/>
<path d="M29.2899 16.0013C29.2899 21.3516 26.8137 27.8425 16.6449 27.8425C6.47622 27.8425 4 21.3516 4 16.0013C4 10.6511 6.47216 4.16016 16.6449 4.16016C26.8177 4.16016 29.2899 10.6511 29.2899 16.0013ZM16.2106 6.81498C8.1365 7.00171 6.15552 12.4129 6.15552 16.8903C6.15552 21.3678 8.16897 26.8723 16.4217 26.9697L17.0712 25.1877C25.1453 25.005 27.1262 19.5898 27.1262 15.1123C27.1262 10.6348 25.1128 5.13035 16.8601 5.03292L16.2106 6.81498Z" fill="#00447C"/>
<path d="M17.7089 23.4246L18.7562 20.5465C19.6046 18.2083 19.1297 16.6698 16.6372 16.0041C14.1448 15.3383 13.6658 13.7958 14.5182 11.4617L15.5656 8.58356C15.9065 8.55921 16.2638 8.54297 16.6372 8.54297C23.1972 8.54297 24.7925 12.6308 24.7925 16C24.7925 19.1785 23.3717 22.9943 17.7089 23.4206V23.4246Z" fill="#00447C"/>
<path d="M110.485 25.7287V10.6766H117.735V7.44531H98.25V10.6766H105.549V25.7287H110.485Z" fill="#00447C"/>
</g>
<defs>
<clipPath id="clip0_1272_579">
<rect width="155.173" height="32" fill="white"/>
</clipPath>
</defs>
</svg>
