<svg width="470" height="58" viewBox="0 0 470 58" fill="none" xmlns="http://www.w3.org/2000/svg">
<g clip-path="url(#clip0_1167_4326)">
<path d="M96.4016 8.7C93.6016 7.5 91.3016 6.8 89.4016 6.8C87.5016 6.8 85.3016 7.7 85.3016 9.4C85.3016 11.1 86.0016 11.3 87.9016 12.2C92.1016 14.5 94.8016 16.1 96.2016 17.5C97.4016 18.7 98.1016 20.5 98.1016 22.4C98.1016 27.3 94.6016 30.1 88.5016 30.1C82.4016 30.1 86.9016 30 86.1016 30C84.2016 29.7 83.3016 29.5 80.4016 28.1C80.0016 28 79.5016 27.7 78.6016 27.3L80.8016 22.6C82.8016 23.7 83.6016 24.1 84.7016 24.5C86.1016 25 87.5016 25.3 88.6016 25.3C91.0016 25.3 92.5016 24.2 92.5016 22.6C92.5016 21 91.8016 20.7 90.1016 19.6L85.9016 17.2C81.0016 14.4 79.5016 12.6 79.5016 9.6C79.5016 6.6 79.9016 6.9 80.6016 5.8C81.0016 5.1 81.8016 4.4 82.6016 3.8C84.6016 2.4 86.3016 2 89.5016 2C92.7016 2 92.9016 2.3 94.6016 2.7C96.0016 3.1 96.6016 3.4 98.5016 4.3L96.3016 8.8L96.4016 8.7Z" fill="#003087"/>
<path d="M115.298 6.59922V29.4992H109.998V6.59922H101.898V2.19922H123.598V6.69922H115.298V6.59922Z" fill="#003087"/>
<path d="M127.499 30.1C125.699 30.1 124.199 28.6 124.199 26.8C124.199 25 125.699 23.5 127.499 23.5C129.299 23.5 130.799 25 130.799 26.8C130.799 28.6 129.299 30.1 127.499 30.1Z" fill="#003087"/>
<path d="M158 6.19922C152.9 6.19922 149.1 10.3992 149.1 15.7992C149.1 21.1992 152.9 25.3992 158 25.3992C163.1 25.3992 166.9 21.2992 166.9 15.7992C166.9 10.2992 163 6.19922 158 6.19922ZM158 30.0992C149.5 30.0992 143.5 24.2992 143.5 15.8992C143.5 7.49922 149.3 1.69922 158 1.69922C166.7 1.69922 172.5 7.39922 172.5 15.8992C172.5 24.3992 166.4 30.0992 158 30.0992Z" fill="#003087"/>
<path d="M177.1 29.4992V2.19922H182.2V25.1992H193.4V29.4992H177H177.1Z" fill="#003087"/>
<path d="M210.3 8.49961L207.2 18.3996H213.6L210.3 8.49961ZM217.1 29.4996L214.9 22.6996H205.7L203.4 29.4996H198L207.9 2.09961H212.6L222.5 29.4996H217.1Z" fill="#003087"/>
<path d="M236.201 30.3992H232.501L222.301 2.19922H228.001L234.201 20.5992L234.501 21.3992V21.8992C234.601 21.8992 234.601 21.5992 234.601 21.5992C234.601 21.1992 234.601 21.0992 234.701 20.8992V20.5992C234.801 20.5992 240.801 2.19922 240.801 2.19922H246.201L236.001 30.2992L236.201 30.3992Z" fill="#003087"/>
<path d="M265.698 8.7C262.898 7.5 260.398 6.8 258.698 6.8C256.998 6.8 254.598 7.7 254.598 9.4C254.598 11.1 255.298 11.3 257.198 12.2C261.398 14.5 264.098 16.1 265.498 17.5C266.698 18.7 267.398 20.5 267.398 22.4C267.398 27.3 263.898 30.1 257.798 30.1C251.698 30.1 256.198 30 255.398 30C253.498 29.7 252.598 29.5 249.698 28.1C249.298 28 248.798 27.7 247.898 27.3L250.098 22.6C252.098 23.7 252.898 24.1 253.998 24.5C255.398 25 256.798 25.3 257.898 25.3C260.298 25.3 261.798 24.2 261.798 22.6C261.798 21 261.098 20.7 259.398 19.6L255.198 17.2C250.298 14.4 248.798 12.6 248.798 9.6C248.798 6.6 249.198 6.9 249.898 5.8C250.298 5.1 251.098 4.4 251.898 3.8C253.898 2.4 255.598 2 258.798 2C261.998 2 262.198 2.3 263.898 2.7C265.298 3.1 265.898 3.4 267.798 4.3L265.598 8.8L265.698 8.7Z" fill="#003087"/>
<path d="M304.099 29.4992V17.7992H289.999V29.4992H284.699V2.19922H289.999V13.1992H304.099V2.19922H309.199V29.5992H304.099V29.4992Z" fill="#003087"/>
<path d="M327.898 6.19922C322.798 6.19922 318.998 10.3992 318.998 15.7992C318.998 21.1992 322.798 25.3992 327.898 25.3992C332.998 25.3992 336.798 21.2992 336.798 15.7992C336.898 10.3992 332.998 6.19922 327.898 6.19922ZM327.898 30.0992C319.398 30.0992 313.398 24.2992 313.398 15.8992C313.398 7.49922 319.198 1.69922 327.898 1.69922C336.598 1.69922 342.398 7.39922 342.398 15.8992C342.498 24.2992 336.398 30.0992 327.898 30.0992Z" fill="#003087"/>
<path d="M362.601 8.7C359.801 7.5 357.301 6.8 355.601 6.8C353.901 6.8 351.501 7.7 351.501 9.4C351.501 11.1 352.201 11.3 354.101 12.2C358.301 14.5 361.001 16.1 362.401 17.5C363.601 18.7 364.301 20.5 364.301 22.4C364.301 27.3 360.801 30.1 354.701 30.1C348.601 30.1 353.101 30 352.301 30C350.401 29.7 349.501 29.5 346.601 28.1C346.201 28 345.701 27.7 344.801 27.3L347.001 22.6C349.001 23.7 349.801 24.1 350.901 24.5C352.301 25 353.701 25.3 354.801 25.3C357.201 25.3 358.701 24.2 358.701 22.6C358.701 21 358.001 20.7 356.301 19.6L352.101 17.2C347.201 14.4 345.701 12.6 345.701 9.6C345.701 6.6 346.101 6.9 346.801 5.8C347.201 5.1 348.001 4.4 348.801 3.8C350.801 2.4 352.501 2 355.701 2C358.901 2 359.101 2.3 360.801 2.7C362.201 3.1 362.801 3.4 364.701 4.3L362.501 8.8L362.601 8.7Z" fill="#003087"/>
<path d="M377.5 6.59922H373.8V15.6992H376.4C380.5 15.6992 382.2 14.1992 382.2 10.7992C382.1 7.99922 380.7 6.59922 377.5 6.59922ZM384.5 17.9992C382.6 19.5992 380.2 20.2992 376.4 20.2992C372.6 20.2992 374.8 20.2992 373.8 20.1992V29.5992H368.5V2.19922H377.9C381.4 2.19922 383.5 2.89922 385.2 4.49922C386.7 5.99922 387.5 8.19922 387.5 10.5992C387.6 13.6992 386.6 16.2992 384.5 18.0992V17.9992Z" fill="#003087"/>
<path d="M397.101 2.19922H391.801V29.5992H397.101V2.19922Z" fill="#003087"/>
<path d="M415.4 6.59922V29.4992H410.3V6.59922H402V2.19922H423.7V6.69922H415.4V6.59922Z" fill="#003087"/>
<path d="M435.902 8.49961L432.802 18.3996H439.202L435.902 8.49961ZM442.702 29.4996L440.502 22.6996H431.302L429.002 29.4996H423.602L433.502 2.09961H438.202L448.102 29.4996H442.702Z" fill="#003087"/>
<path d="M452.801 29.4992V2.19922H458.101V25.1992H469.301V29.4992H452.801Z" fill="#003087"/>
<path d="M87.8016 56.7996C87.0016 57.2996 85.6016 57.5996 84.5016 57.5996C83.4016 57.5996 82.1016 57.1996 81.2016 56.7996C80.0016 56.0996 79.6016 54.8996 79.6016 52.5996V45.7996H81.4016V52.7996C81.4016 54.7996 82.5016 55.8996 84.5016 55.8996C86.5016 55.8996 87.6016 54.7996 87.6016 52.7996V45.5996H89.5016V52.3996C89.5016 54.7996 89.0016 55.8996 87.7016 56.6996L87.8016 56.7996Z" fill="#003087"/>
<path d="M103.702 57.5008L97.2016 49.2008C96.8016 48.7008 96.7016 48.4008 96.7016 48.1008V57.3008H95.1016V45.8008H97.0016L103.502 54.1008C103.802 54.4008 103.902 54.8008 103.902 55.2008V46.0008H105.502V57.7008H103.702" fill="#003087"/>
<path d="M112.9 45.8008H111V57.3008H112.9V45.8008Z" fill="#003087"/>
<path d="M122.099 57.6008H121.199L116.199 45.8008H118.199L121.699 54.1008C121.799 54.2008 121.799 54.4008 121.799 54.6008C121.799 54.4008 121.833 54.2341 121.899 54.1008L125.199 45.8008H127.199L121.999 57.6008H122.099Z" fill="#003087"/>
<path d="M130.5 57.3008V45.8008H137.7V47.3008H132.4V50.6008H136.7V52.2008H132.4V55.7008H137.8V57.3008H130.5Z" fill="#003087"/>
<path d="M147.599 47.6008C147.199 47.3008 147.099 47.3008 145.699 47.3008H143.899V51.1008H145.699C146.899 51.1008 147.099 51.1008 147.599 50.6008C147.999 50.2008 148.299 49.8008 148.299 49.1008C148.299 48.4008 147.999 48.0008 147.599 47.6008ZM148.699 57.3008L145.699 52.6008H144.099V57.3008H142.199V45.8008H146.099C148.799 45.8008 150.399 47.0008 150.399 49.1008C150.399 51.2008 149.299 52.2008 147.699 52.5008L150.999 57.4008H148.699V57.3008Z" fill="#003087"/>
<path d="M160.702 48.0992C160.202 47.6992 159.902 47.5992 159.202 47.3992C158.702 47.2992 158.102 47.0992 157.602 47.0992C156.102 47.0992 155.302 47.5992 155.302 48.5992C155.302 49.5992 155.302 48.9992 155.402 49.0992C155.702 49.5992 156.102 49.7992 158.402 50.8992C160.602 51.9992 161.202 52.7992 161.202 54.1992C161.202 56.1992 159.602 57.4992 157.002 57.4992C154.402 57.4992 155.402 57.3992 154.702 57.0992C154.202 56.9992 153.902 56.6992 153.102 56.2992L153.902 54.6992C154.602 55.1992 155.002 55.3992 155.402 55.5992C155.902 55.8992 156.602 55.9992 157.302 55.9992C158.702 55.9992 159.502 55.4992 159.502 54.4992C159.502 53.4992 159.102 53.2992 158.102 52.6992L156.102 51.7992C154.302 50.9992 153.502 49.9992 153.502 48.7992C153.502 46.8992 155.102 45.6992 157.702 45.6992C160.302 45.6992 159.202 45.7992 159.902 45.9992C160.402 46.0992 160.702 46.2992 161.402 46.6992L160.702 48.1992V48.0992Z" fill="#003087"/>
<path d="M167.502 45.8008H165.602V57.3008H167.502V45.8008Z" fill="#003087"/>
<path d="M176.599 47.3008V57.3008H174.799V47.3008H170.699V45.8008H180.599V47.3008H176.499H176.599Z" fill="#003087"/>
<path d="M183.898 57.3008V45.8008H191.098V47.3008H185.798V50.6008H190.098V52.2008H185.798V55.7008H191.198V57.3008H183.898Z" fill="#003087"/>
<path d="M198.898 47.3008V57.3008H197.098V47.3008H192.898V45.8008H202.898V47.3008H198.798H198.898Z" fill="#003087"/>
<path d="M212.498 48.0992C211.998 47.6992 211.698 47.5992 210.998 47.3992C210.498 47.2992 209.898 47.0992 209.398 47.0992C207.898 47.0992 207.098 47.5992 207.098 48.5992C207.098 49.5992 207.098 48.9992 207.198 49.0992C207.498 49.5992 207.898 49.7992 210.198 50.8992C212.398 51.9992 212.998 52.7992 212.998 54.1992C212.998 56.1992 211.398 57.4992 208.798 57.4992C206.198 57.4992 207.198 57.3992 206.498 57.0992C205.998 56.9992 205.698 56.6992 204.898 56.2992L205.698 54.6992C206.398 55.1992 206.798 55.3992 207.198 55.5992C207.698 55.8992 208.398 55.9992 209.098 55.9992C210.498 55.9992 211.298 55.4992 211.298 54.4992C211.298 53.4992 210.898 53.2992 209.898 52.6992L207.898 51.7992C206.098 50.9992 205.298 49.9992 205.298 48.7992C205.298 46.8992 206.898 45.6992 209.498 45.6992C212.098 45.6992 210.998 45.7992 211.698 45.9992C212.198 46.0992 212.498 46.2992 213.198 46.6992L212.498 48.1992V48.0992Z" fill="#003087"/>
<path d="M223.6 48.0992C223.1 47.6992 222.8 47.5992 222.1 47.3992C221.6 47.2992 221 47.0992 220.5 47.0992C219 47.0992 218.2 47.5992 218.2 48.5992C218.2 49.5992 218.2 48.9992 218.3 49.0992C218.6 49.5992 219 49.7992 221.3 50.8992C223.5 51.9992 224.1 52.7992 224.1 54.1992C224.1 56.1992 222.5 57.4992 219.9 57.4992C217.3 57.4992 218.3 57.3992 217.6 57.0992C217.1 56.9992 216.8 56.6992 216 56.2992L216.8 54.6992C217.5 55.1992 217.9 55.3992 218.3 55.5992C218.8 55.8992 219.5 55.9992 220.2 55.9992C221.6 55.9992 222.4 55.4992 222.4 54.4992C222.4 53.4992 222 53.2992 221 52.6992L219 51.7992C217.2 50.9992 216.4 49.9992 216.4 48.7992C216.4 46.8992 218 45.6992 220.6 45.6992C223.2 45.6992 222.1 45.7992 222.8 45.9992C223.3 46.0992 223.6 46.2992 224.3 46.6992L223.6 48.1992V48.0992Z" fill="#003087"/>
<path d="M232.298 52.2008V57.3008H230.498V52.2008L226.398 45.8008H228.398L231.498 50.4008L234.498 45.8008H236.698L232.198 52.2008H232.298Z" fill="#003087"/>
<path d="M247.002 57.2992L242.102 51.4992L246.802 45.6992H249.202L244.302 51.4992L249.402 57.2992H246.802H247.002ZM240.102 45.7992H242.002V57.2992H240.102V45.7992Z" fill="#003087"/>
<path d="M253 57.3008V45.8008H260.2V47.3008H254.9V50.6008H259.2V52.2008H254.9V55.7008H260.3V57.3008H253Z" fill="#003087"/>
<path d="M273.7 57.3008V52.2008H266.4V57.3008H264.5V45.8008H266.4V50.5008H273.7V45.8008H275.5V57.3008H273.7Z" fill="#003087"/>
<path d="M289.098 56.7996C288.298 57.2996 286.898 57.5996 285.798 57.5996C284.698 57.5996 283.398 57.1996 282.498 56.7996C281.298 56.0996 280.898 54.8996 280.898 52.5996V45.7996H282.698V52.7996C282.698 54.7996 283.798 55.8996 285.798 55.8996C287.798 55.8996 288.898 54.7996 288.898 52.7996V45.5996H290.698V52.3996C290.698 54.7996 290.298 55.8996 289.098 56.6996V56.7996Z" fill="#003087"/>
<path d="M302.202 48.0992C301.702 47.6992 301.402 47.5992 300.702 47.3992C300.202 47.2992 299.602 47.0992 299.102 47.0992C297.602 47.0992 296.802 47.5992 296.802 48.5992C296.802 49.5992 296.802 48.9992 296.902 49.0992C297.202 49.5992 297.602 49.7992 299.902 50.8992C302.102 51.9992 302.702 52.7992 302.702 54.1992C302.702 56.1992 301.102 57.4992 298.502 57.4992C295.902 57.4992 296.902 57.3992 296.202 57.0992C295.702 56.9992 295.402 56.6992 294.602 56.2992L295.402 54.6992C296.102 55.1992 296.502 55.3992 296.902 55.5992C297.402 55.8992 298.102 55.9992 298.802 55.9992C300.202 55.9992 301.002 55.4992 301.002 54.4992C301.002 53.4992 300.602 53.2992 299.602 52.6992L297.602 51.7992C295.802 50.9992 295.002 49.9992 295.002 48.7992C295.002 46.8992 296.602 45.6992 299.202 45.6992C301.802 45.6992 300.702 45.7992 301.402 45.9992C301.902 46.0992 302.202 46.2992 302.902 46.6992L302.202 48.1992V48.0992Z" fill="#003087"/>
<path d="M307.202 57.3008V45.8008H314.202V47.3008H308.902V50.6008H313.202V52.2008H308.902V55.7008H314.302V57.3008H307.102H307.202Z" fill="#003087"/>
<path d="M322.099 47.3008V57.3008H320.299V47.3008H316.199V45.8008H326.199V47.3008H321.999H322.099Z" fill="#003087"/>
<path d="M337.4 45.8008H335.5V57.3008H337.4V45.8008Z" fill="#003087"/>
<path d="M352.502 47.3008V57.3008H350.702V47.3008H346.602V45.8008H356.602V47.3008H352.402H352.502Z" fill="#003087"/>
<path d="M365.298 47.6008C364.898 47.3008 364.798 47.3008 363.398 47.3008H361.598V51.1008H363.398C364.598 51.1008 364.798 51.1008 365.298 50.6008C365.698 50.2008 365.998 49.8008 365.998 49.1008C365.998 48.4008 365.698 48.0008 365.298 47.6008ZM366.398 57.3008L363.398 52.6008H361.798V57.3008H359.898V45.8008H363.798C366.498 45.8008 368.098 47.0008 368.098 49.1008C368.098 51.2008 366.998 52.2008 365.398 52.5008L368.698 57.4008H366.398V57.3008Z" fill="#003087"/>
<path d="M377.099 47C374.499 47 372.599 48.9 372.599 51.5C372.599 54.1 374.499 56 377.099 56C379.699 56 381.599 54.1 381.599 51.5C381.599 48.9 379.699 47 377.099 47ZM377.099 57.5C373.399 57.5 370.699 54.9 370.699 51.5C370.699 48.1 373.399 45.5 377.099 45.5C380.799 45.5 383.499 48.1 383.499 51.5C383.599 55 380.899 57.5 377.099 57.5Z" fill="#003087"/>
<path d="M396.702 57.5008L390.202 49.2008C389.802 48.7008 389.702 48.4008 389.702 48.1008V57.3008H388.102V45.8008H390.002L396.502 54.1008C396.802 54.4008 396.902 54.8008 396.902 55.2008V46.0008H398.502V57.7008H396.702" fill="#003087"/>
<path d="M411.2 48.1008C410.5 47.6008 409.7 47.3008 408.1 47.3008H405.8V55.8008H408C409.6 55.8008 410.4 55.5008 411.3 55.0008C412.2 54.2008 412.8 52.8008 412.8 51.6008C412.8 50.4008 412.3 48.9008 411.3 48.1008H411.2ZM412.9 55.7008C411.8 56.8008 410.3 57.3008 408.2 57.3008H404V45.8008H408.2C410.4 45.8008 411.9 46.3008 412.9 47.4008C413.8 48.3008 414.5 50.1008 414.5 51.6008C414.5 53.1008 414 54.6008 412.9 55.7008Z" fill="#003087"/>
<path d="M427.702 57.3008V52.2008H420.502V57.3008H418.602V45.8008H420.502V50.5008H427.702V45.8008H429.602V57.3008H427.702Z" fill="#003087"/>
<path d="M435.102 57.3008V45.8008H442.302V47.3008H437.002V50.6008H441.302V52.2008H437.002V55.7008H442.402V57.3008H435.102Z" fill="#003087"/>
<path d="M448.599 45.8008H446.699V57.3008H448.599V45.8008Z" fill="#003087"/>
<path d="M465.101 57.3V48.1C465.001 48.6 464.801 48.9 464.701 49.5L461.201 57.4H459.701L456.601 50.1C456.301 49.4 456.201 49.3 456.201 48.6V57.5H454.301V46H456.601L460.401 54.5C460.467 54.7667 460.567 55.0667 460.701 55.4C460.834 55.7333 460.934 55.4333 461.001 54.5L464.901 46H467.201V57.5H465.201" fill="#003087"/>
<path d="M36.2008 7.2C36.2008 11.1 32.9008 14.4 29.0008 14.4C25.1008 14.4 21.8008 11.1 21.8008 7.2C21.8008 3.3 25.1008 0 29.0008 0C32.9008 0 36.2008 3.3 36.2008 7.2Z" fill="#6CACE4"/>
<path d="M36.2008 29.0008C36.2008 32.9008 32.9008 36.2008 29.0008 36.2008C25.1008 36.2008 21.8008 32.9008 21.8008 29.0008C21.8008 25.1008 25.1008 21.8008 29.0008 21.8008C32.9008 21.8008 36.2008 24.9008 36.2008 29.0008Z" fill="#003087"/>
<path d="M14.4 29.0008C14.4 32.9008 11.1 36.2008 7.2 36.2008C3.3 36.2008 0 32.9008 0 29.0008C0 25.1008 3.3 21.8008 7.2 21.8008C11.1 21.8008 14.4 24.9008 14.4 29.0008Z" fill="#6CACE4"/>
<path d="M58.0016 29.0008C58.0016 32.9008 54.7016 36.2008 50.8016 36.2008C46.9016 36.2008 43.6016 32.9008 43.6016 29.0008C43.6016 25.1008 46.9016 21.8008 50.8016 21.8008C54.7016 21.8008 58.0016 24.9008 58.0016 29.0008Z" fill="#6CACE4"/>
<path d="M36.2008 50.7996C36.2008 54.6996 32.9008 57.9996 29.0008 57.9996C25.1008 57.9996 21.8008 54.6996 21.8008 50.7996C21.8008 46.8996 25.1008 43.5996 29.0008 43.5996C32.9008 43.5996 36.2008 46.6996 36.2008 50.7996Z" fill="#6CACE4"/>
</g>
<defs>
<clipPath id="clip0_1167_4326">
<rect width="469.3" height="58" fill="white"/>
</clipPath>
</defs>
</svg>
