<svg width="116" height="24" viewBox="0 0 116 24" fill="none" xmlns="http://www.w3.org/2000/svg">
<g clip-path="url(#clip0_1272_1666)">
<mask id="mask0_1272_1666" style="mask-type:luminance" maskUnits="userSpaceOnUse" x="0" y="0" width="115" height="24">
<path d="M0.570312 23.2695H114.571V0.569746H0.570312V23.2695Z" fill="white"/>
</mask>
<g mask="url(#mask0_1272_1666)">
<path d="M6.24363 15.4881C6.36594 18.0507 7.95306 18.8771 10.3636 18.8771C12.073 18.8771 13.8451 18.2655 13.8451 16.6486C13.8451 14.7273 10.7275 14.3604 7.58611 13.4743C4.47453 12.5913 1.2108 11.1831 1.2108 7.18851C1.2108 2.42716 5.999 0.568562 10.0891 0.568562C14.4209 0.568562 18.7854 2.67179 18.8153 7.58529H13.141C13.2335 5.60139 11.3719 4.95998 9.62968 4.95998C8.40951 4.95998 6.88504 5.38958 6.88504 6.82156C6.88504 8.50116 10.0265 8.80546 13.2007 9.6915C16.3451 10.5746 19.5163 12.0394 19.5163 15.9773C19.5163 21.4994 14.8176 23.2715 10.0265 23.2715C5.02346 23.2715 0.599223 21.0728 0.566406 15.4881H6.24363Z" fill="#646363"/>
<path d="M29.7514 10.3316H26.5473V17.5333C26.5473 18.7833 27.2782 19.0577 28.4089 19.0577C28.8355 19.0577 29.292 18.9981 29.7514 18.9981V22.8107C28.8027 22.8436 27.86 22.9629 26.9143 22.9629C22.49 22.9629 21.3594 21.6831 21.3594 17.3781V2.1842H26.5473V6.97538H29.7514V10.3316Z" fill="#646363"/>
<path d="M38.4984 20.0655C40.9685 20.0655 41.7949 18.6633 41.6726 15.3966C40.9387 15.856 39.5962 15.9485 38.4685 16.2498C37.305 16.5243 36.3325 17.0135 36.3325 18.2665C36.3325 19.5464 37.3379 20.0655 38.4984 20.0655ZM31.783 11.8584C31.8754 9.78203 32.854 8.43954 34.2561 7.61317C35.6612 6.82259 37.493 6.5183 39.2889 6.5183C43.0479 6.5183 46.6756 7.34169 46.6756 11.8256V18.7528C46.6756 20.0983 46.6756 21.5571 47.2842 22.8101H42.0664C41.8844 22.3238 41.8218 21.8346 41.7621 21.3155C40.4196 22.7206 38.4387 23.2695 36.5443 23.2695C33.5252 23.2695 31.1445 21.7451 31.1445 18.4783C31.1445 13.3202 36.7591 13.717 40.3599 12.9891C41.243 12.8011 41.7323 12.4968 41.7323 11.5213C41.7323 10.331 40.3003 9.87451 39.2293 9.87451C37.7943 9.87451 36.8814 10.5129 36.6368 11.8584H31.783Z" fill="#646363"/>
<path d="M57.5405 10.3316H54.3364V17.5333C54.3364 18.7833 55.0673 19.0577 56.198 19.0577C56.6246 19.0577 57.081 18.9981 57.5405 18.9981V22.8107C56.5948 22.8436 55.6491 22.9629 54.7004 22.9629C50.2761 22.9629 49.1484 21.6831 49.1484 17.3781V2.1842H54.3364V6.97538H57.5405V10.3316Z" fill="#646363"/>
<path d="M60.1914 6.95956H65.2242V9.12543H65.2839C66.2326 7.50849 68.3686 6.50013 70.2571 6.50013C75.5375 6.50013 75.9641 10.3456 75.9641 12.6338V22.7949H70.7791V15.1338C70.7791 12.9709 71.0238 10.7722 68.1867 10.7722C66.2326 10.7722 65.3794 12.422 65.3794 14.1612V22.7949H60.1914V6.95956Z" fill="#E30613"/>
<path d="M89.2705 13.2469C89.181 11.4748 87.928 10.01 86.1857 10.01C84.357 10.01 83.1368 11.3227 82.8295 13.2469H89.2705ZM82.8295 16.1467C82.925 18.3095 84.175 19.7445 86.3707 19.7445C87.6237 19.7445 88.8438 19.1658 89.3331 18.0052H94.184C93.2382 21.6687 89.8522 23.2559 86.311 23.2559C81.1529 23.2559 77.6445 20.1413 77.6445 14.831C77.6445 9.98017 81.5198 6.50164 86.1857 6.50164C91.8629 6.50164 94.703 10.7737 94.4584 16.1467H82.8295Z" fill="#E30613"/>
<path d="M104.525 10.3169H101.321V17.5186C101.321 18.7686 102.055 19.043 103.182 19.043C103.609 19.043 104.068 18.9834 104.525 18.9834V22.796C103.579 22.8289 102.63 22.9512 101.688 22.9512C97.2635 22.9512 96.1328 21.6684 96.1328 17.3634V2.16949H101.321V6.96068H104.525V10.3169Z" fill="#E30613"/>
<path d="M114.572 10.3169H111.368V17.5186C111.368 18.7686 112.099 19.043 113.229 19.043C113.656 19.043 114.115 18.9834 114.572 18.9834V22.796C113.626 22.8289 112.68 22.9512 111.732 22.9512C107.307 22.9512 106.18 21.6684 106.18 17.3634V2.16949H111.368V6.96068H114.572V10.3169Z" fill="#E30613"/>
</g>
</g>
<defs>
<clipPath id="clip0_1272_1666">
<rect width="115.14" height="23.8399" fill="white"/>
</clipPath>
</defs>
</svg>
