<svg width="136" height="70" viewBox="0 0 136 70" fill="none" xmlns="http://www.w3.org/2000/svg">
<g clip-path="url(#clip0_1167_4379)">
<path d="M89.97 0.353516H45.543V44.7805H89.97V0.353516Z" fill="#EE3124"/>
<path d="M45.1914 0V45.1307H90.3221V0H45.1914ZM89.6184 0.703701V44.4322H45.8899V0.703701H89.6184Z" fill="#231F20"/>
<path d="M66.3768 3.68964H67.4297V2.66797H68.0865V3.68964H69.1343V4.32036H68.0865V5.85287C68.5713 5.96754 69.0821 6.26988 69.2906 6.74943C69.4991 7.18729 69.4731 7.85451 69.2229 8.26109C69.1186 8.58427 68.5087 8.76671 68.8788 9.14723C69.4314 9.15765 69.937 8.91788 70.5104 8.90745C71.4017 8.77192 72.3452 8.88139 73.0124 9.48084C74.743 8.98564 77.391 8.29236 78.6942 9.98646C78.9704 10.4243 79.1685 10.9091 79.1998 11.4512L77.4953 18.4882H57.8959L56.2383 11.3574C56.3894 10.4347 56.8117 9.50169 57.7239 9.16808C59.199 8.56863 60.94 9.02734 62.3422 9.45477C63.4473 8.52172 65.2248 8.86575 66.5019 9.16808C66.6531 9.19936 66.7677 9.12117 66.8146 9.00649C66.8251 8.61555 66.3872 8.46438 66.2621 8.13077C66.0432 7.63558 66.0797 6.92145 66.4237 6.48359C66.6635 6.13956 67.0284 5.93106 67.4297 5.89457V4.31515H66.3768V3.68443V3.68964Z" fill="#FFD500"/>
<path d="M66.78 2.01628V3.03795H65.7271V4.97183H66.78V5.43575C66.4308 5.5817 66.1128 5.79021 65.8887 6.11339C65.6124 6.46263 65.4664 6.94219 65.4664 7.43739C65.4664 7.73972 65.5342 8.04205 65.6489 8.32353C64.6064 8.14109 63.3241 8.12024 62.2815 8.7666C60.7543 8.31311 59.0341 7.92737 57.4703 8.56331C56.4851 8.92298 55.8075 9.8821 55.5834 11.253L55.5625 11.3781L57.3713 19.1397H77.9246L78.1226 18.6393L79.8532 11.5032V11.4042C79.8115 10.7995 79.6134 10.2209 79.2433 9.63189C77.6691 7.57813 74.797 8.29747 73.0873 8.77703C72.3731 8.30268 71.4557 8.08896 70.408 8.25055H70.4132C70.4132 8.25055 70.1161 8.29747 69.8711 8.33917C69.9962 8.1046 70.09 7.80748 70.09 7.46345C70.09 7.11942 70.0223 6.76496 69.8815 6.46263C69.6886 6.01435 69.2508 5.68074 68.74 5.44096V4.9614H69.7877V3.02753H68.74V2.00586H66.7748L66.78 2.01628ZM66.9885 8.02641L66.8634 7.89089C66.8009 7.75015 66.7748 7.59377 66.7748 7.43739C66.7748 7.22367 66.8269 7.01517 66.9312 6.88485C67.0823 6.67114 67.27 6.56167 67.4785 6.54603C67.4785 6.54603 67.8121 6.51997 67.9633 6.50433C68.3021 6.59816 68.594 6.78581 68.6878 7.00474C68.7452 7.12985 68.7712 7.28622 68.7712 7.4426C68.7712 7.62504 68.7347 7.79706 68.6618 7.91174C68.6253 7.99514 68.5262 8.09418 68.5262 8.09418L68.0988 8.89692L68.5992 10.0541L68.8546 9.7987L69.8502 9.66317L70.5174 9.5537C71.0804 9.4703 71.9718 9.4286 72.5712 9.96029L72.8423 10.2001L73.1915 10.101C75.2244 9.52243 77.2313 9.15233 78.1748 10.3773C78.3833 10.7109 78.4979 11.0706 78.5292 11.4302C78.4667 11.6857 77.1844 16.9869 76.9759 17.8261H58.4034C58.2053 16.9764 56.9647 11.644 56.8969 11.3625C56.9908 10.8412 57.2357 10.0281 57.9342 9.77263C59.2061 9.25659 60.7699 9.65796 62.1408 10.0698L62.4796 10.174L62.7507 9.94465C63.5586 9.2618 64.9556 9.4703 66.3422 9.79348C66.7957 9.89774 67.2439 9.65796 67.4107 9.23574L67.515 8.96989L67.4577 9.01159L66.9833 8.01078L66.9885 8.02641Z" fill="#231F20"/>
<path d="M66.253 3.56529H67.3059V2.54883H68.2077V3.56529H69.2555V4.441H68.2077V5.8484C68.6925 5.96308 69.0782 6.26541 69.2867 6.74497C69.4952 7.18283 69.4692 7.85004 69.219 8.25663C69.1147 8.57981 68.5048 8.76225 68.8749 9.14277C69.4275 9.15319 69.9331 8.91341 70.5065 8.90299C71.3978 8.76746 72.3413 8.87692 73.0085 9.47637C74.7391 8.98118 77.3871 8.2879 78.6903 9.982C78.9665 10.4199 79.1646 10.9046 79.1959 11.4467L77.4914 18.4837H57.892L56.2344 11.3529C56.3855 10.4303 56.8078 9.49722 57.72 9.16362C59.1951 8.56417 60.9361 9.02288 62.3383 9.45031C63.4434 8.51725 65.2209 8.86129 66.498 9.16362C66.6491 9.19489 66.7638 9.1167 66.8107 9.00203C66.8212 8.61108 66.4198 8.4547 66.2374 8.12631C66.0184 7.63111 66.0758 6.91699 66.4198 6.47913C66.6648 6.14552 66.9046 5.98914 67.3059 5.91095V4.441H66.253V3.56529Z" fill="#FFD200"/>
<path d="M67.2591 3.56468L66.2582 3.51255H66.2061V4.43518L67.3112 4.48731L67.2591 5.91035C66.889 5.94162 66.6388 6.10321 66.3833 6.45246C66.0393 6.89032 65.9611 7.62008 66.1957 8.15176L66.472 8.48537L66.7639 9.00663C66.7378 9.06918 66.6492 9.15258 66.5137 9.12131C64.9499 8.75643 63.36 8.5375 62.3123 9.41843C60.8736 8.95972 59.1691 8.52707 57.7044 9.12131C56.6358 9.51225 56.297 10.6851 56.1875 11.3471C56.1875 11.3679 57.8503 18.4988 57.8503 18.4988L77.4236 18.5353C77.4236 18.5353 77.4393 18.4831 77.4445 18.4727C77.4289 18.4727 57.9024 18.4362 57.8972 18.4362C57.8972 18.2694 56.2865 11.3471 56.2865 11.3471C56.3908 10.7216 56.7192 9.59044 57.7409 9.21513C59.1743 8.63132 60.8632 9.05876 62.3279 9.50704C63.3913 8.64175 64.9499 8.86068 66.4928 9.22035C66.6544 9.25684 66.8056 9.17865 66.8629 9.02748L66.5449 8.41761L66.2895 8.11006C66.2061 7.9172 66.1644 7.70348 66.1644 7.48455C66.1644 7.13009 66.2687 6.77043 66.4667 6.52022C66.7065 6.19183 66.9359 6.04066 67.3216 5.96768L67.3633 4.44561L66.2582 4.39348C66.2582 4.39348 66.2999 3.71063 66.3052 3.62202H67.3112L67.3633 2.55343L68.2182 2.60556L68.1661 3.5751L69.2607 3.62723L69.2086 4.45082L68.213 4.39869L68.1608 5.85822C68.6873 6.02502 69.0522 6.32735 69.2451 6.77564C69.4484 7.20307 69.4171 7.85986 69.1773 8.24038C69.1773 8.2508 68.9479 8.5375 68.9479 8.5375L68.703 8.91802L68.8333 9.18907C68.8698 9.20471 69.7194 9.08482 69.7194 9.08482L70.5065 8.96493C71.5178 8.80855 72.3987 9.00663 72.9721 9.52789C74.5254 9.10567 77.3246 8.30814 78.6434 10.0283C78.9457 10.5079 79.1125 10.9822 79.1386 11.4618C79.1386 11.4618 77.5331 18.0766 77.4497 18.4206C77.7103 17.7586 79.2376 11.467 79.2376 11.467C79.2063 10.9509 79.0395 10.4662 78.7216 9.96575C77.3559 8.18825 74.5098 9.00142 72.9825 9.43406C72.43 8.90759 71.523 8.69387 70.4857 8.85547C70.4909 8.85547 69.6881 8.98057 69.6881 8.98057C69.6881 8.98057 68.875 9.09525 68.8645 9.09525C68.8645 9.06397 68.7864 8.9128 68.7864 8.9128L69.0001 8.60526L69.2503 8.27687C69.391 8.05794 69.464 7.75039 69.464 7.43764C69.464 7.18743 69.4171 6.93723 69.318 6.72872C69.1147 6.24917 68.729 5.9312 68.2025 5.80088L68.239 4.44039L69.2346 4.49252L69.2868 3.56989L68.1921 3.51776L68.2442 2.54822L67.2903 2.49609L67.2382 3.56468H67.2591ZM77.4393 18.4779H77.4445C77.4445 18.4779 77.4601 18.4258 77.4601 18.4154C77.4549 18.431 77.4393 18.4675 77.4393 18.4779Z" fill="#231F20"/>
<path d="M72.7959 11.0611C72.6239 11.0507 72.4988 11.1393 72.3684 11.2331C72.2538 11.3739 72.2433 11.5772 72.285 11.7492C72.3528 12.0724 72.848 12.4268 72.6968 12.6197C72.3737 12.9429 72.1547 12.4685 71.8837 12.3538C71.7064 12.2861 71.5709 12.3017 71.4458 12.3799C71.1226 12.7031 71.1904 13.3234 71.352 13.6883C71.451 13.8186 71.6126 13.8863 71.7794 13.8134C72.0922 13.756 72.4362 13.2296 72.6968 13.6414C72.848 14.2512 72.6082 14.8455 72.1443 15.226C71.352 15.7994 70.1218 15.8567 69.194 15.4918C68.6414 15.226 68.2088 14.6995 68.1827 14.0792C68.1932 13.8707 68.1254 13.6101 68.3547 13.5058C68.7926 13.4381 69.4598 14.2252 69.6058 13.5997C69.6892 13.2348 69.7674 12.7969 69.5484 12.4737C69.4285 12.333 69.2617 12.2652 69.0793 12.3382C68.7926 12.432 68.5163 12.9116 68.2296 12.604C68.0837 12.2913 68.6988 12.1245 68.6675 11.5928C68.6779 11.3999 68.5789 11.2592 68.4277 11.1341C68.3235 11.0976 68.2922 11.0663 68.1619 11.0663C68.141 10.7796 68.313 10.4929 68.5268 10.2949C69.538 9.47128 71.18 9.55989 72.2642 10.102C72.8741 10.4408 72.7907 11.0142 72.7907 11.0142V11.0715L72.7959 11.0611Z" fill="#231F20"/>
<path d="M68.4932 10.2536C68.2325 10.4934 68.0866 10.7957 68.1074 11.0668C68.1596 11.1137 68.3368 11.1502 68.3368 11.1502C68.5557 11.3118 68.6235 11.4317 68.6131 11.5881C68.6131 11.5933 68.3472 12.1667 68.3472 12.1667C68.2169 12.3074 68.097 12.4429 68.1804 12.6254C68.415 12.8808 68.6391 12.6983 68.8268 12.5576L69.0926 12.3908C69.3011 12.3126 69.4367 12.4325 69.5096 12.5107C69.7129 12.8026 69.6452 13.2092 69.5565 13.5949C69.5305 13.6992 69.494 13.7617 69.4367 13.7878C69.3272 13.8399 69.1395 13.7461 68.9467 13.647L68.342 13.4646C68.1179 13.5636 68.1231 13.7774 68.1283 13.9546C68.1491 14.6843 68.5557 15.2577 69.1656 15.5496C70.1716 15.9458 71.407 15.8363 72.168 15.2786C72.6685 14.8668 72.8874 14.2413 72.7414 13.6418C72.7362 13.6262 72.5121 13.4542 72.5121 13.4542L72.0638 13.621L71.7615 13.7774C71.5947 13.8451 71.4591 13.7669 71.3862 13.6679C71.2558 13.3656 71.1516 12.7453 71.4748 12.4273C71.579 12.3647 71.7041 12.3595 71.8605 12.4169L72.0899 12.5837C72.2619 12.7348 72.4756 12.9225 72.7258 12.6671C72.7519 12.6306 72.7675 12.5889 72.7675 12.5472C72.7675 12.4273 72.6632 12.2918 72.559 12.151L72.3244 11.7497C72.3088 11.6871 72.3036 11.6298 72.3036 11.5724C72.3036 11.4525 72.3349 11.3483 72.3974 11.2753L72.7831 11.1241L72.8092 11.1137L72.8353 11.0251C72.8353 11.0251 72.9135 10.4152 72.2827 10.066C71.2141 9.5343 69.5253 9.42483 68.4932 10.2641V10.2536ZM68.2638 12.568C68.2169 12.4638 68.2899 12.3752 68.4254 12.2292L68.7173 11.5881C68.7329 11.3587 68.587 11.2023 68.4567 11.0929C68.3785 11.0564 68.1596 11.0095 68.1596 11.0095C68.1908 10.8166 68.3212 10.5403 68.5609 10.3266C69.5617 9.51345 71.2037 9.62291 72.241 10.139C72.8092 10.4517 72.7467 10.973 72.7414 10.999L72.7936 11.0147L72.3401 11.1919C72.2098 11.3431 72.1785 11.5516 72.2306 11.7653L72.4808 12.2031C72.6007 12.3647 72.7154 12.5159 72.6528 12.5941C72.4756 12.7661 72.3505 12.6723 72.1576 12.5003L71.897 12.3126C71.7093 12.2449 71.5582 12.2501 71.4174 12.3387C71.0526 12.7036 71.1568 13.3708 71.3028 13.7096C71.4331 13.8816 71.6259 13.9337 71.7927 13.8608L72.1211 13.694L72.4912 13.5428L72.6476 13.6731C72.7779 14.2204 72.5746 14.8094 72.1055 15.1952C71.3705 15.7269 70.1768 15.8363 69.2021 15.4506C68.6287 15.1743 68.243 14.6374 68.2221 14.0797C68.2221 14.038 68.2221 13.9963 68.2221 13.9598C68.2221 13.7096 68.243 13.6053 68.3628 13.5532C68.3628 13.5636 68.8945 13.7304 68.8945 13.7304C69.1135 13.8399 69.3168 13.9442 69.4731 13.8712C69.5565 13.8295 69.6139 13.7461 69.6452 13.6106C69.7338 13.2196 69.8067 12.7765 69.5826 12.4481C69.4367 12.2761 69.2438 12.2188 69.0561 12.2918L68.759 12.4742C68.5505 12.641 68.415 12.7296 68.2586 12.568H68.2638Z" fill="#231F20"/>
<path d="M67.3046 11.0609C67.1795 11.0609 67.0648 11.1183 66.9605 11.1964C66.7885 11.3215 66.825 11.577 66.8459 11.7594C66.8459 12.0982 67.5131 12.4266 67.1117 12.7133C66.8198 12.8228 66.3455 11.9523 65.9024 12.4475C65.7095 12.7811 65.6835 13.3753 65.9284 13.6985C66.0223 13.834 66.2047 13.8236 66.3402 13.7871C66.6269 13.7298 66.8667 13.2919 67.1795 13.5473C67.4401 14.0425 67.1899 14.6055 66.8928 15.0069C66.0744 15.7783 64.7452 15.893 63.7235 15.4656C63.1397 15.1893 62.6914 14.6159 62.6758 13.9487C62.7018 13.7558 62.7018 13.5265 62.9208 13.4535C63.343 13.4639 63.8069 14.1781 64.1614 13.5682C64.276 13.2346 64.2552 12.7863 64.0936 12.4892C63.9685 12.3276 63.7704 12.2702 63.588 12.3276C63.3117 12.4318 62.9573 12.9479 62.7488 12.583C62.7488 12.1347 63.3795 11.775 63.1501 11.2746C63.0407 11.1183 62.8634 11.0453 62.6758 11.0349C62.7123 10.6908 62.8478 10.3781 63.1032 10.1487C64.0467 9.58575 65.5844 9.61181 66.5852 10.0445C66.9293 10.1487 67.2055 10.5136 67.3306 10.8368C67.3619 10.9098 67.3775 11.0505 67.3775 11.0505H67.3098L67.3046 11.0609Z" fill="#231F20"/>
<path d="M63.0733 10.1079C62.8127 10.3425 62.6615 10.6604 62.625 11.0305C62.8596 11.0983 63.0107 11.1765 63.1046 11.3068C63.2244 11.5674 63.0785 11.7916 62.9221 12.0313L62.6928 12.5891L62.8856 12.7663L63.3391 12.5578L63.5998 12.3858C63.7666 12.3337 63.9386 12.3858 64.048 12.5317C64.1367 12.6933 64.1784 12.9071 64.1784 13.1208C64.1784 13.2719 64.1575 13.4283 64.1054 13.5691L63.876 13.7723L63.3913 13.6108L62.9117 13.4179C62.6667 13.4909 62.6459 13.715 62.625 13.8922C62.625 14.6064 63.0524 15.2214 63.6936 15.5238C64.8091 15.9877 66.1383 15.7948 66.9202 15.0546C67.1652 14.7263 67.5196 14.1007 67.2173 13.5326C66.9775 13.3293 66.7742 13.4752 66.6022 13.6003L66.3259 13.7515C66.2217 13.7776 66.0445 13.8036 65.9663 13.6837C65.7317 13.371 65.763 12.7924 65.9454 12.4848C66.18 12.2242 66.4302 12.4066 66.67 12.5891C66.8316 12.709 66.9879 12.8237 67.1235 12.7715C67.1339 12.7663 67.2799 12.5578 67.2799 12.5578L67.0818 12.1408L66.8889 11.7759C66.8628 11.5778 66.8368 11.3589 66.9827 11.2547L67.3372 11.1087L67.4154 11.0618L67.3633 10.8324C67.2434 10.5249 66.9671 10.1235 66.5866 10.0141C65.6431 9.60226 64.0637 9.52929 63.0629 10.1235L63.0733 10.1079ZM63.0055 12.0887C63.1671 11.8385 63.3339 11.5778 63.188 11.2599C63.0733 11.0931 62.8908 10.9992 62.6719 10.9888C62.7553 10.6969 62.8961 10.405 63.1254 10.1913C64.0897 9.6179 65.6275 9.69088 66.5553 10.0975C66.8837 10.1965 67.1547 10.551 67.2746 10.8637L67.3163 11.0618L67.3007 11.0149L66.9254 11.166C66.7325 11.3068 66.769 11.5674 66.7899 11.7603C66.7899 11.7655 67.0036 12.1929 67.0036 12.1929L67.1808 12.537L67.0766 12.6777C67.0036 12.7038 66.8681 12.6047 66.7273 12.5057C66.4875 12.3285 66.1591 12.0835 65.862 12.4223C65.6587 12.7663 65.6222 13.3866 65.8829 13.7359C65.9663 13.861 66.1331 13.9027 66.3468 13.8453L66.6596 13.6785C66.8264 13.5586 66.9723 13.4544 67.1391 13.5951C67.3997 14.0955 67.0661 14.6845 66.842 14.9869C66.0914 15.6906 64.8091 15.8782 63.7301 15.43C63.1254 15.1433 62.724 14.5647 62.7136 13.96C62.7397 13.7306 62.7553 13.5691 62.9221 13.5169C62.9221 13.5274 63.3339 13.6942 63.3339 13.6942L63.8969 13.8662L64.1888 13.6055C64.3139 13.2459 64.2878 12.782 64.121 12.4744C63.9803 12.292 63.7666 12.2242 63.5581 12.292L63.2662 12.4796L62.8961 12.6725C62.7866 12.5943 63.0055 12.0887 63.0003 12.0939L63.0055 12.0887Z" fill="#231F20"/>
<path d="M66.8435 10.8211C66.6506 10.915 66.4213 11.0401 66.3848 11.2798C66.317 11.53 66.4213 11.775 66.5099 11.994C66.2597 11.8897 65.8531 11.8689 65.6498 12.0982C65.238 12.5256 65.238 13.3023 65.4778 13.8444C65.629 14.0738 65.8218 14.2354 66.0981 14.2458C66.3848 14.2458 66.5933 14.0842 66.8226 13.9591C66.8435 14.4335 66.5255 14.7775 66.145 15.0381C65.3735 15.3509 64.331 15.4082 63.6325 14.9026C63.3458 14.6628 63.1008 14.3501 63.1269 13.9591C63.4397 14.1311 63.8045 14.3605 64.1851 14.178C64.6907 13.8444 64.7272 13.1772 64.6229 12.6038C64.576 12.3641 64.3936 12.1556 64.1851 11.994C64.0026 11.8897 63.6899 11.8897 63.497 11.994C63.643 11.7281 63.7524 11.3268 63.5439 11.0609C63.4397 10.9462 63.325 10.8316 63.1738 10.8211C63.1999 10.6387 63.3563 10.4667 63.5439 10.3833C64.4613 10.0705 65.8427 9.97148 66.6558 10.5761L66.8487 10.8159L66.8435 10.8211Z" fill="#EE2037"/>
<path d="M63.5059 10.2897C63.2714 10.3887 63.0994 10.5972 63.0733 10.8058C63.1619 10.9152 63.4642 11.1237 63.4642 11.1237C63.6362 11.3426 63.5424 11.7023 63.4069 11.9421L63.5424 12.0776C63.7092 11.989 63.9803 11.989 64.1367 12.0776L64.5276 12.6197C64.5537 12.7709 64.5745 12.9325 64.5745 13.0993C64.5745 13.4798 64.4755 13.8655 64.1367 14.0897C63.8343 14.2356 63.532 14.0636 63.2349 13.8968L63.0941 13.8186L63.0368 13.9489C63.016 14.3138 63.1932 14.6527 63.5789 14.9758C64.3712 15.5492 65.4867 15.4137 66.1956 15.127C66.7221 14.7673 66.9567 14.3868 66.9358 13.9489V13.8134L66.6596 13.9437L66.1122 14.147C65.9037 14.1366 65.7265 14.0219 65.5753 13.7874C65.3616 13.3078 65.3408 12.5676 65.7369 12.1662C65.9037 11.9786 66.253 11.989 66.4875 12.0881L66.6543 12.1558L66.6074 11.9421L66.4928 11.3062C66.524 11.1029 66.7169 10.9934 66.8993 10.91L67.014 10.8579L66.743 10.5191C65.8985 9.88833 64.5224 9.9561 63.5216 10.2949L63.5059 10.2897ZM63.7509 11.4261C63.7509 11.2697 63.7092 11.1237 63.6154 10.9986L63.1775 10.7171C63.287 10.6911 63.4121 10.5451 63.5789 10.4721C64.4911 10.1646 65.8308 10.0864 66.5918 10.6546C66.5918 10.6546 66.6491 10.7276 66.696 10.7901C66.5292 10.8787 66.326 11.0038 66.2895 11.2645C66.2895 11.254 66.3624 11.6763 66.3937 11.8691C66.107 11.7961 65.7734 11.817 65.5805 12.0307C65.1271 12.4946 65.1427 13.3339 65.3929 13.8812C65.5858 14.1835 65.8151 14.3295 66.1018 14.3451L66.7534 14.1158C66.7482 14.3243 66.5397 14.6474 66.0966 14.955C65.3981 15.2312 64.3712 15.3094 63.6988 14.8195C63.3704 14.5432 63.214 14.2617 63.2349 13.9594C63.4434 14.2409 63.8291 14.4598 64.2357 14.2617C64.8247 13.876 64.8247 13.1358 64.7257 12.5832L64.2513 11.916C64.0793 11.817 63.8448 11.817 63.6415 11.8639C63.6988 11.7232 63.7666 11.5824 63.7666 11.4313L63.7509 11.4261Z" fill="#231F20"/>
<path d="M72.3103 10.8214C72.1122 10.9152 71.909 11.0403 71.8412 11.2592C71.7839 11.5355 71.8516 11.8117 71.9767 12.0411C71.7734 11.8899 71.4919 11.9264 71.2678 12.015C70.783 12.2913 70.7257 12.9012 70.8091 13.4381C70.8769 13.7352 71.0176 14.048 71.2939 14.1939C71.6379 14.3451 72.008 14.1626 72.2947 13.9646C72.352 14.2877 72.1487 14.6057 71.9194 14.8246C71.2991 15.4084 70.1732 15.398 69.4225 15.0905C69.0003 14.8976 68.6198 14.4702 68.6094 13.9646C68.9221 14.147 69.3235 14.392 69.6884 14.1731C70.0428 13.9802 70.1002 13.5319 70.1575 13.1514C70.1367 12.724 70.0689 12.234 69.6415 11.989C69.459 11.9056 69.1723 11.8743 68.9899 11.989C69.1515 11.7023 69.1723 11.2853 68.9638 11.0142C68.8596 10.936 68.7605 10.8422 68.6302 10.8214C69.3027 9.77883 71.8255 9.93521 72.2895 10.7588L72.3155 10.8214H72.3103Z" fill="#EE2037"/>
<path d="M68.5352 10.7652C68.6029 10.9163 68.8479 11.0623 68.8479 11.0623C69.0564 11.3229 69.02 11.6982 68.8896 11.9432L69.0304 12.0735C69.1763 11.9797 69.4213 12.0058 69.5933 12.0787C69.953 12.282 70.026 12.7147 70.052 13.1525C69.9947 13.5174 69.9322 13.9188 69.635 14.0804C69.3171 14.268 68.9522 14.0491 68.6603 13.8771L68.5039 13.7885V13.9657C68.5143 14.5339 68.9522 14.9874 69.3744 15.1802C70.1511 15.5034 71.3291 15.5138 71.9807 14.8987C72.1319 14.758 72.4655 14.3827 72.3873 13.9501L72.3612 13.7989L72.2361 13.8875C71.8608 14.1429 71.5741 14.2159 71.3344 14.1064C71.1363 13.997 70.9903 13.7676 70.9069 13.4184C70.8548 13.0535 70.8339 12.3811 71.3187 12.1048C71.449 12.0527 71.7201 11.9745 71.9234 12.1204L72.0693 11.9901L71.9442 11.276C71.9442 11.2812 72.3612 10.9111 72.3612 10.9111L72.4238 10.859L72.3769 10.7078C72.1423 10.296 71.4438 10.0145 70.5942 9.99369C69.8592 9.97284 68.9366 10.1657 68.5456 10.7652H68.5352ZM69.2024 11.4949C69.2024 11.3073 69.1555 11.1144 69.0304 10.9528C68.973 10.9059 68.6394 10.7182 68.6394 10.7182C69.0512 10.3377 69.9009 10.1657 70.5785 10.1866C71.3448 10.2074 71.9911 10.4576 72.1892 10.7964C72.0798 10.9007 71.7409 11.2187 71.7409 11.2187C71.7409 11.2395 71.8139 11.6721 71.8556 11.8963C71.621 11.8181 71.3708 11.8546 71.2249 11.9171C70.7766 12.1726 70.5942 12.7147 70.7036 13.4496C70.7975 13.8667 70.9799 14.1429 71.2353 14.2837C71.6315 14.4557 71.9703 14.2367 72.184 14.1064C72.1684 14.3983 71.9442 14.6538 71.8348 14.758C71.2457 15.3158 70.1667 15.3001 69.4474 15.003C69.1346 14.857 68.8479 14.5287 68.7593 14.1377C69.0512 14.2993 69.3848 14.4661 69.7237 14.2628C70.1094 14.0491 70.1772 13.58 70.2345 13.2047C70.2136 12.6834 70.1302 12.1673 69.6715 11.9119C69.5099 11.839 69.291 11.8233 69.1034 11.865C69.1451 11.7451 69.1972 11.6304 69.1972 11.5001L69.2024 11.4949Z" fill="#231F20"/>
<path d="M78.4703 10.9475L78.5068 11.13C78.1836 11.1977 77.7354 11.13 77.6311 11.5209C77.4904 12.1047 78.2253 12.527 78.022 12.7407C77.6415 13.0378 77.4226 12.3602 77.0369 12.3862C76.844 12.3602 76.6668 12.5113 76.5886 12.6729C76.5104 12.9961 76.4635 13.4652 76.6355 13.7519C76.7502 13.8927 76.9118 13.95 77.0838 13.8927C77.3392 13.8093 77.5529 13.5591 77.8552 13.6268C78.1107 13.8093 78.0168 14.1898 77.9595 14.466C77.7406 15.2584 76.8805 15.6962 76.0882 15.764C75.1812 15.8213 74.3315 15.6024 73.7998 14.9039C73.5601 14.5494 73.4089 14.0647 73.5705 13.6268C73.8676 13.0795 74.6182 14.4191 74.9831 13.5591C75.0509 13.215 75.0769 12.7667 74.8789 12.48C74.7537 12.3758 74.5817 12.308 74.4097 12.3654C74.1126 12.454 73.8363 12.9961 73.5496 12.5947C73.4402 12.3654 74.3159 11.7763 73.8572 11.203C73.7529 11.1248 73.6383 11.0779 73.5132 11.0674C73.5027 10.7807 73.4558 10.5045 73.3516 10.2543C74.5192 9.82683 75.6399 9.79556 76.7971 9.89981C77.4278 10.0614 78.1263 10.3116 78.4755 10.958" fill="#231F20"/>
<path d="M73.3323 10.1964C73.301 10.2642 73.4574 11.0617 73.4574 11.0617C73.5043 11.1086 73.8222 11.2389 73.8222 11.2389C74.0829 11.5673 73.8483 11.9166 73.6554 12.1928C73.5408 12.3648 73.4469 12.5004 73.4939 12.6098C73.4991 12.615 73.7336 12.7818 73.7336 12.7818L74.1454 12.5838L74.4165 12.4065C74.5989 12.344 74.7605 12.4482 74.8387 12.5108C74.943 12.662 74.9742 12.8757 74.9742 13.0738C74.9742 13.251 74.9482 13.4178 74.9273 13.5429C74.9273 13.5377 74.7084 13.7879 74.7084 13.7879L73.6971 13.4438L73.5199 13.595C73.374 13.9964 73.4626 14.4864 73.7545 14.9242C74.2393 15.5654 75.0472 15.8729 76.0845 15.8052C76.8768 15.7374 77.7734 15.2995 78.0028 14.4707C78.0705 14.1632 78.1539 13.7775 77.8776 13.5794C77.862 13.5689 77.3095 13.7149 77.3095 13.7149L77.0645 13.8348C76.9185 13.8869 76.7778 13.8348 76.6735 13.7097C76.4807 13.3865 76.5954 12.834 76.6371 12.6724C76.7048 12.5421 76.8612 12.4013 77.0332 12.4222C77.0436 12.4222 77.445 12.6359 77.445 12.6359C77.617 12.7871 77.8151 12.9591 78.0601 12.7662C78.18 12.6359 78.0705 12.4795 77.9454 12.2971C77.7995 12.0886 77.617 11.8279 77.69 11.5204C77.7578 11.2546 78.0132 11.2285 78.279 11.2024L78.524 11.1659C78.5605 11.1086 78.524 10.9262 78.524 10.9262V10.9105C78.1643 10.2485 77.4554 9.99311 76.8091 9.83151C75.3965 9.70641 74.3591 9.81066 73.3323 10.1912V10.1964ZM73.5199 10.9939C73.5199 10.8688 73.3948 10.2277 73.3948 10.2277C74.38 9.92013 75.4017 9.81588 76.7882 9.94098C77.4033 10.0974 78.0862 10.3476 78.4198 10.9679C78.4198 10.9887 78.4458 11.1034 78.451 11.1242C78.4354 11.0878 78.2582 11.1138 78.2582 11.1138C77.9819 11.1451 77.6691 11.1764 77.5805 11.5048C77.4971 11.854 77.7004 12.1459 77.8516 12.3596C77.9715 12.5316 78.0392 12.6359 77.9819 12.6984C77.8151 12.8288 77.69 12.7349 77.5023 12.5681L77.028 12.3283C76.8143 12.3023 76.6266 12.4639 76.538 12.6411C76.4911 12.8235 76.3712 13.4126 76.5849 13.7722C76.7205 13.939 76.9029 13.9964 77.0905 13.9338L77.3512 13.8035L77.8307 13.668C78.034 13.8192 77.9611 14.1528 77.9037 14.4238C77.6848 15.2266 76.8247 15.6384 76.0689 15.7061C75.0628 15.7687 74.2862 15.4768 73.8275 14.8669C73.5564 14.4655 73.473 14.0016 73.6033 13.6367C73.7128 13.5377 74.1298 13.6993 74.1298 13.6993L74.7292 13.8817L75.0159 13.5689C75.0837 13.2197 75.1202 12.7558 74.9065 12.443C74.7345 12.2971 74.5416 12.2554 74.38 12.3075L74.0777 12.5004L73.7441 12.6776L73.5773 12.5525C73.5773 12.5525 73.5773 12.5421 73.5773 12.5369C73.5773 12.4795 73.6554 12.3596 73.7389 12.2449C73.8692 12.0521 74.036 11.8123 74.036 11.5517C74.036 11.4214 73.9943 11.291 73.89 11.1607C73.8796 11.1503 73.5199 11.0096 73.5147 11.0043C73.5147 11.0043 73.5147 10.9991 73.5147 10.9835L73.5199 10.9939Z" fill="#231F20"/>
<path d="M77.7085 10.7012L77.8701 10.8628C77.6303 10.8837 77.4114 10.9879 77.2758 11.2069C77.1038 11.4831 77.2185 11.8376 77.3436 12.093C77.1247 11.9888 76.7806 11.921 76.5617 12.0669C76.0352 12.411 76.0352 13.099 76.1238 13.6881C76.2385 13.9643 76.3897 14.251 76.7233 14.2979C77.0204 14.3553 77.2967 14.2041 77.5365 14.0582C77.6511 14.5169 77.2133 14.8401 76.8692 15.0903C76.0769 15.403 74.9823 15.4134 74.3151 14.8244C74.1222 14.6159 73.8772 14.3188 73.9346 13.9852C74.2212 14.251 74.68 14.3396 75.0396 14.1676C75.4306 13.8914 75.4566 13.4326 75.4775 12.9948C75.4671 12.5934 75.295 12.166 74.9249 11.9835C74.7425 11.9262 74.4662 11.8897 74.2942 12.0044C74.3985 11.775 74.4662 11.4988 74.3985 11.2225C74.3776 10.8211 73.627 10.9462 73.8928 10.4771C75.097 10.2582 76.6243 10.0966 77.7033 10.696" fill="#EE2037"/>
<path d="M73.8829 10.3883C73.8152 10.4352 73.7578 10.7428 73.7578 10.7428L74.0549 10.9982C74.2061 11.0712 74.2999 11.1233 74.3103 11.238C74.3103 11.2536 74.2165 11.973 74.2165 11.973L74.3625 12.0981C74.5032 12.0042 74.743 12.0355 74.9098 12.0876C75.2486 12.2544 75.3841 12.6715 75.3946 13.0051C75.3737 13.4116 75.3529 13.8443 74.9984 14.0945C74.7065 14.2352 74.2895 14.1623 74.0237 13.9173L73.8881 13.7922L73.8569 13.9694C73.7943 14.3395 74.0393 14.6575 74.2634 14.892C74.988 15.528 76.1191 15.4967 76.9219 15.1787C77.2972 14.9077 77.7819 14.5584 77.6464 14.0267C77.5005 13.9694 76.7551 14.1935 76.7551 14.1935C76.4944 14.157 76.3589 13.9538 76.2286 13.6462C76.1139 12.8956 76.239 12.3952 76.63 12.145C76.8072 12.0251 77.1095 12.0772 77.318 12.1763L77.4483 12.0407C77.3337 11.8114 77.2294 11.4882 77.3754 11.2536C77.4848 11.0764 77.6621 10.9774 77.8966 10.9565L77.9592 10.7897L77.7871 10.6177H77.7767C76.6404 9.98175 75.0193 10.1798 73.8986 10.3831L73.8829 10.3883ZM74.498 11.2067C74.4876 10.9878 74.2843 10.8887 74.1331 10.8158L73.9403 10.6802C75.0036 10.3831 76.5726 10.1903 77.6516 10.7845C77.6621 10.7949 77.6829 10.8158 77.7142 10.847C77.5057 10.9044 77.3024 10.9721 77.1877 11.1546C77.1199 11.2641 77.0835 11.3892 77.0835 11.5299C77.0835 11.6602 77.146 11.8114 77.1981 11.9573C76.9688 11.8844 76.7029 11.8479 76.4996 11.9834C76.0409 12.2805 75.8846 12.8435 76.0201 13.6983C76.1139 13.9329 76.2807 14.3343 76.7029 14.3916L77.5839 14.1362C77.5265 14.4437 77.2033 14.7148 76.8072 15.0067C76.1035 15.2778 75.0297 15.3195 74.3781 14.7513C74.2217 14.5845 74.0706 14.3656 74.0497 14.131C74.3677 14.3291 74.7586 14.4177 75.0818 14.2613C75.5301 13.9485 75.5509 13.4481 75.577 13.0051C75.5666 12.6089 75.3998 12.1137 74.9723 11.9C74.8785 11.8687 74.6335 11.827 74.4094 11.8844C74.4355 11.6706 74.498 11.2067 74.498 11.2067Z" fill="#231F20"/>
<path d="M61.9312 11.0083C61.9207 10.7581 61.9833 10.534 62.0667 10.2212C61.0763 9.88761 60.0233 9.76251 58.8714 9.83027C58.0999 9.94495 57.1929 10.2316 56.9531 11.0813L57.4327 11.1282C57.6516 11.2325 57.8341 11.4149 57.8132 11.6807C57.7663 12.0352 57.4327 12.301 57.4118 12.6451C57.6881 12.9526 57.9644 12.4157 58.2719 12.3584C58.4439 12.3115 58.6159 12.348 58.7306 12.4939C58.9026 12.8379 58.986 13.3801 58.7515 13.7241C58.3605 14.0942 58.0269 13.5312 57.6256 13.5312C57.5213 13.5781 57.4275 13.6563 57.4066 13.771C57.3806 14.5268 57.7611 15.1732 58.4387 15.4703C59.3926 15.8508 60.7166 15.7935 61.462 15.0116C61.78 14.6311 61.9416 14.115 61.8425 13.6459C61.462 13.1403 61.1441 13.9222 60.6697 13.7971C60.5446 13.7658 60.4508 13.625 60.4039 13.5104C60.2892 13.1559 60.3152 12.7076 60.5185 12.4105C60.6124 12.3271 60.7114 12.2906 60.8521 12.3063C61.2222 12.2958 61.4881 12.9318 61.8165 12.6294C61.952 12.2698 61.3682 11.9727 61.4047 11.5244C61.4307 11.3784 61.4724 11.2377 61.5975 11.1334C61.7122 11.0083 61.9207 11.0135 61.9207 11.0135" fill="#231F20"/>
<path d="M58.8701 9.77907C57.7442 9.94588 57.103 10.3681 56.9102 11.0666C56.9519 11.1291 57.4314 11.176 57.4314 11.176C57.4888 11.2073 57.5722 11.2542 57.6399 11.3272C57.5722 11.249 57.5774 11.1343 57.4575 11.0822C57.4418 11.0822 56.9623 11.0301 56.9623 11.0301C57.1916 10.4359 57.8067 10.0397 58.8805 9.87811C60.0325 9.81035 61.0698 9.93545 62.0498 10.2638C62.0133 10.2638 61.9038 10.905 61.8934 10.9728C61.8308 10.9728 61.6797 10.9728 61.5754 11.0926L61.3669 11.5044L61.6119 12.1143C61.711 12.2551 61.7996 12.3802 61.7996 12.5053C61.7996 12.5365 61.7996 12.5678 61.7839 12.5991C61.6484 12.719 61.5181 12.6304 61.32 12.4688L60.8613 12.2446L60.4964 12.3645C60.2879 12.6616 60.241 13.1203 60.3661 13.5165C60.4026 13.5999 60.4964 13.7928 60.6632 13.8397L61.247 13.6677C61.4868 13.5113 61.6276 13.4331 61.81 13.6729C61.8986 14.0899 61.7579 14.5955 61.4347 14.976C60.6945 15.7475 59.3809 15.784 58.4687 15.4191C57.838 15.1428 57.4679 14.5486 57.4679 13.8345C57.4679 13.8136 57.4679 13.7928 57.4679 13.7667C57.4888 13.6625 57.593 13.5999 57.6556 13.5686C57.6556 13.5791 58.0517 13.7302 58.0517 13.7302C58.2759 13.8605 58.5313 14.0065 58.7971 13.7511C59.0473 13.3758 58.9639 12.8232 58.7867 12.4636C58.6616 12.302 58.4791 12.2446 58.2706 12.302L57.9162 12.5105C57.7129 12.6721 57.593 12.7555 57.4627 12.6095C57.4888 12.6095 57.666 12.1769 57.666 12.1769L57.8745 11.6817C57.8745 11.6817 57.8745 11.6504 57.8745 11.6348C57.8745 11.5097 57.7337 11.4367 57.6556 11.3376C57.7233 11.4106 57.7754 11.5097 57.7754 11.6348C57.7754 11.6452 57.7754 11.6608 57.7754 11.6765L57.5774 12.13L57.3689 12.6408C57.5826 12.9066 57.7911 12.7398 57.9735 12.5939L58.2863 12.4062C58.4583 12.3593 58.6043 12.4062 58.6981 12.5261C58.8649 12.8649 58.9326 13.381 58.7189 13.6989C58.5156 13.8918 58.3228 13.7823 58.0986 13.652L57.6347 13.48C57.4783 13.5478 57.3897 13.6468 57.3689 13.7615C57.3428 14.559 57.739 15.2106 58.4322 15.5181C59.3809 15.8935 60.7414 15.8518 61.5129 15.049C61.8569 14.6424 62.0081 14.1003 61.9038 13.6364C61.6536 13.2924 61.4138 13.4487 61.2001 13.5843L60.6997 13.7459C60.6111 13.7198 60.5277 13.626 60.4651 13.4852C60.4234 13.3497 60.4026 13.2037 60.4026 13.063C60.4026 12.8232 60.4599 12.5939 60.5746 12.4323C60.5746 12.4375 60.8613 12.3489 60.8613 12.3489C60.8665 12.3489 61.2627 12.5522 61.2627 12.5522C61.4399 12.6981 61.6432 12.8597 61.8673 12.6564C61.8882 12.6043 61.8986 12.5522 61.8986 12.5053C61.8986 12.3437 61.7944 12.1977 61.6953 12.0622L61.4712 11.5253L61.6484 11.1708C61.7474 11.0614 61.9403 11.0614 61.9403 11.0614H61.982L62.1175 10.2534C61.0959 9.83641 60.0429 9.71131 58.8753 9.77907H58.8701ZM57.6451 11.3429C57.6451 11.3429 57.6451 11.3324 57.6347 11.3324C57.6347 11.3324 57.6347 11.3376 57.6451 11.3429Z" fill="#231F20"/>
<path d="M61.5189 10.488V10.7747C61.2217 10.8216 61.0341 11.0718 60.9663 11.3481C60.9194 11.6035 61.0341 11.786 61.1279 11.9945C60.8516 11.9111 60.5076 11.8329 60.2887 12.0518C59.9238 12.4323 59.8769 13.0266 59.9811 13.5582C60.0489 13.7876 60.2001 14.043 60.4138 14.1577C60.7682 14.3193 61.1592 14.1681 61.425 13.9388C61.4928 14.4652 61.0341 14.8562 60.6327 15.0647C60.1271 15.3201 59.3817 15.3201 58.8292 15.1481C58.36 14.9865 57.8857 14.5747 57.8283 14.043V13.9961C58.115 14.1577 58.4017 14.3401 58.7562 14.2515C59.0794 14.1368 59.2253 13.8032 59.3087 13.4905C59.3869 12.9536 59.3087 12.401 58.8969 12.057C58.678 11.9319 58.3131 11.8954 58.1046 12.0466C58.2297 11.8381 58.2871 11.5827 58.2297 11.3325C58.1411 11.0458 57.8753 10.8268 57.5625 10.806C58.6207 10.0032 60.2261 10.2899 61.4928 10.4724L61.5137 10.4984L61.5189 10.488Z" fill="#EE2037"/>
<path d="M57.5052 10.7163L57.5573 10.8935C57.8232 10.9144 58.0577 11.0968 58.1359 11.3522L58.0213 11.9829L58.162 12.1133C58.334 11.9881 58.6624 12.0194 58.8449 12.1289C59.2566 12.4729 59.2723 13.0463 59.2097 13.4633C59.1107 13.8334 58.9543 14.0628 58.725 14.141C58.4435 14.2139 58.1985 14.0732 57.9379 13.9272L57.7711 13.8334L57.7346 14.0367C57.7971 14.6257 58.3184 15.0584 58.7979 15.2252C59.3244 15.3868 60.1063 15.4233 60.6797 15.1366C60.9664 14.9906 61.6127 14.5788 61.5241 13.9064L61.4981 13.7239L61.3573 13.8438C61.1332 14.0367 60.7787 14.1931 60.4503 14.0471L60.0698 13.5102C60.0177 13.2392 59.9343 12.5355 60.3565 12.1028C60.5337 11.9256 60.8309 11.9934 61.0967 12.0715L61.2583 12.1185L61.1697 11.837L61.0602 11.347C61.128 11.0759 61.3052 10.8883 61.5293 10.8518L61.6127 10.4661V10.3827L61.5033 10.3462L61.3156 10.3201C60.0802 10.1377 58.5425 9.90832 57.5 10.7006L57.5052 10.7163ZM61.2896 10.5338C61.2896 10.5338 61.3625 10.5443 61.4147 10.5547V10.7736C61.1957 10.7215 60.956 10.9665 60.8673 11.3209C60.8673 11.3261 60.9924 11.936 60.9924 11.936C60.9247 11.8266 60.492 11.6962 60.2158 11.9725C59.8717 12.327 59.7518 12.9056 59.8822 13.5676C59.8822 13.578 60.3669 14.2348 60.3669 14.2348C60.7162 14.3964 61.0446 14.2504 61.3156 14.0784C61.2843 14.5423 60.8152 14.8551 60.5911 14.9698C60.148 15.1939 59.4339 15.2252 58.8605 15.0427C58.4539 14.902 57.9848 14.5215 57.9274 14.0211C58.1099 14.2556 58.4122 14.4276 58.7823 14.3338C59.0898 14.2244 59.2879 13.9533 59.4078 13.505C59.4808 13.0255 59.4599 12.3843 58.9595 11.9673C58.751 11.8474 58.4591 11.8266 58.2193 11.8995C58.2558 11.6858 58.3236 11.2949 58.3236 11.2949C58.2402 11.029 57.9796 10.9039 57.7294 10.8205C58.7041 10.1637 60.1272 10.3566 61.2896 10.5286V10.5338Z" fill="#231F20"/>
<path d="M67.7579 5.76562C68.6805 5.76562 69.4259 6.51103 69.4259 7.43366C69.4259 8.35629 68.6805 9.10169 67.7579 9.10169C66.8352 9.10169 66.0898 8.35107 66.0898 7.43366C66.0898 6.51624 66.8352 5.76562 67.7579 5.76562Z" fill="#FFD200"/>
<path d="M77.8439 22.785C78.0315 22.4931 78.1514 22.1282 78.0315 21.7633C77.9481 21.5965 77.7084 21.3672 77.406 21.3672H57.9213C57.619 21.3672 57.3792 21.6018 57.2958 21.7633C57.1811 22.1282 57.2958 22.4931 57.4835 22.785L66.4179 38.9753C66.7358 39.408 66.96 40.1742 67.6637 40.1847C68.3674 40.169 68.5915 39.408 68.9095 38.9753L77.8439 22.785Z" fill="#FFD500"/>
<path d="M57.9216 20.6582C57.3273 20.6582 56.853 21.07 56.6653 21.4505C56.462 22.0656 56.5559 22.639 56.8895 23.1655C56.8686 23.129 65.7978 39.3141 65.7978 39.3141C65.8447 39.3923 66.022 39.6738 66.022 39.6738C66.2774 40.122 66.71 40.8675 67.6483 40.8883C68.6126 40.8727 69.04 40.122 69.3007 39.6738L69.4779 39.3871C69.5248 39.3141 78.4592 23.1238 78.4592 23.1238L78.4331 23.1655C78.772 22.639 78.8658 22.0656 78.699 21.5496C78.4696 21.0752 78.0005 20.6634 77.4063 20.6634H57.9216V20.6582ZM58.0988 22.4461C58.0154 22.3106 57.9164 22.1282 57.9633 21.977L67.2052 22.0656H77.4063C77.4115 22.1229 77.3177 22.3106 77.2551 22.4044L68.2946 38.6312C68.3416 38.5583 68.0809 38.9701 68.0809 38.9701C67.8776 39.3245 67.7682 39.4757 67.6483 39.4809C67.5545 39.4809 67.445 39.3297 67.2417 38.9701L66.9811 38.5531C67.028 38.6312 58.0936 22.4409 58.0936 22.4409L58.0988 22.4461Z" fill="#231F20"/>
<path d="M77.8439 22.785C78.0315 22.4931 78.1514 22.1282 78.0315 21.7633C77.9481 21.5965 77.7084 21.3672 77.406 21.3672H57.9213C57.619 21.3672 57.3792 21.6018 57.2958 21.7633C57.1811 22.1282 57.2958 22.4931 57.4835 22.785L66.4179 38.9753C66.7358 39.408 66.96 40.1742 67.6637 40.1847C68.3674 40.169 68.5915 39.408 68.9095 38.9753L77.8439 22.785Z" fill="#FFD200"/>
<path d="M71.9239 25.8228C72.0021 25.7029 72.0542 25.5465 72.0021 25.3953C71.9656 25.3276 71.8665 25.2285 71.7414 25.2285H63.5629C63.4378 25.2285 63.3335 25.3276 63.3022 25.3953C63.2501 25.5465 63.3022 25.7029 63.3804 25.8228L67.1283 32.62C67.2638 32.8024 67.3576 33.1204 67.6495 33.1308C67.9467 33.1256 68.0405 32.8024 68.1708 32.62L71.9187 25.8228H71.9239Z" fill="#E20025"/>
<path d="M63.5599 24.5254C63.1324 24.5254 62.804 24.8069 62.6685 25.0884C62.5226 25.5158 62.5747 25.8807 62.7884 26.2091C62.7676 26.1726 66.5102 32.9646 66.5102 32.9646C66.5571 33.0376 66.6092 33.121 66.6092 33.121C66.7291 33.3295 67.0106 33.8247 67.6361 33.8351C68.2877 33.8247 68.5692 33.3295 68.6943 33.121L68.7881 32.9646L72.536 26.1674L72.5099 26.2143C72.7236 25.8859 72.781 25.521 72.6715 25.1822C72.4943 24.8121 72.1659 24.5306 71.7384 24.5306H63.5599V24.5254ZM71.0556 25.9328C70.6386 26.6938 67.8029 31.8282 67.6466 32.1201C67.4224 31.7084 65.009 27.3298 64.2375 25.9328H71.0556Z" fill="#231F20"/>
<path d="M71.9239 25.8228C72.0021 25.7029 72.0542 25.5465 72.0021 25.3953C71.9656 25.3276 71.8665 25.2285 71.7414 25.2285H63.5629C63.4378 25.2285 63.3335 25.3276 63.3022 25.3953C63.2501 25.5465 63.3022 25.7029 63.3804 25.8228L67.1283 32.62C67.2638 32.8024 67.3576 33.1204 67.6495 33.1308C67.9467 33.1256 68.0405 32.8024 68.1708 32.62L71.9187 25.8228H71.9239Z" fill="#EE2037"/>
<path d="M56.2211 31.7928C57.2323 31.8345 58.9368 31.7928 58.9368 31.7928C59.4216 31.7928 59.604 31.8814 59.8125 32.2723C60.021 32.6633 62.0957 36.3277 62.0957 36.3277C62.9766 37.5996 62.4241 38.6786 60.9333 38.6161C59.0567 38.5379 59.3226 36.7187 59.2965 36.2808C59.2965 36.2808 58.7387 35.4416 58.1862 34.6389H51.2118C48.4491 34.6389 49.3873 32.9291 49.8565 31.8032C50.1067 31.1985 49.7053 30.1612 47.9747 30.1612H42.8924C42.465 30.1612 42.2148 29.8328 42.2148 29.8328L36.7259 23.6455C36.5591 23.4526 36.606 23.2754 36.8771 23.2754H53.6877C54.0474 23.3223 54.0735 23.3692 54.3237 23.7967C54.5739 24.2241 55.1994 25.3292 55.3766 25.6784C55.5538 26.0276 55.6529 26.2831 55.2984 26.8825C54.9492 27.4872 53.5157 29.9684 53.2655 30.3958C53.0153 30.8232 52.6869 31.7876 53.7659 31.7876H56.2211V31.7928Z" fill="#FFD500"/>
<path d="M36.0058 23.0917C35.8546 23.4201 35.9328 23.8006 36.2038 24.1081L41.6927 30.2955C41.7084 30.3163 42.141 30.8584 42.8968 30.8584H47.9791C48.8079 30.8584 49.0842 31.1347 49.1624 31.2494C49.2353 31.3641 49.2354 31.4683 49.2145 31.5309L49.1155 31.7602C48.7819 32.5369 48.3231 33.6003 48.8809 34.4551C49.2718 35.0494 50.0381 35.3413 51.2161 35.3413H57.8153C58.0551 35.6905 58.4512 36.2795 58.5972 36.4985V36.5402C58.5972 38.7555 59.8534 39.2768 60.9064 39.3185C61.8759 39.355 62.6422 39.0005 63.007 38.3385C63.3823 37.6557 63.2625 36.7747 62.6734 35.9251C62.7047 35.972 60.432 31.9427 60.432 31.9427C60.0567 31.2337 59.5615 31.093 58.936 31.093H53.7703C53.7234 31.2077 53.8746 30.7594 53.8746 30.7594L55.9075 27.2461C56.4235 26.3652 56.2463 25.8596 56.0065 25.3748L54.9327 23.4513C54.6304 22.9353 54.4427 22.6747 53.7807 22.586H36.8815C36.4801 22.5808 36.1517 22.7737 36.0058 23.0969V23.0917ZM53.6921 23.983L53.7234 24.155L54.7555 26.0003C54.8702 26.2296 54.8754 26.2349 54.6982 26.532L52.6705 30.0453C52.5245 30.2903 52.0866 31.1503 52.488 31.854C52.6548 32.1459 53.0145 32.4952 53.7755 32.4952H56.2307H56.1994H58.9569C58.9412 32.4952 59.1654 32.5108 59.1654 32.5108C59.1966 32.5994 61.4902 36.6705 61.4902 36.6705C61.7821 37.0979 61.8863 37.468 61.7821 37.6609C61.6883 37.8329 61.3755 37.9319 60.9689 37.9111C60.2183 37.8798 59.9942 37.5514 60.0046 36.488V36.0189L59.8847 35.8834L58.5607 33.9234H58.1906H51.2161C50.2518 33.9234 50.0746 33.6941 50.0537 33.668C49.9078 33.4491 50.231 32.7037 50.403 32.3023L50.5072 32.0573C50.7209 31.5413 50.6532 30.9418 50.33 30.4571C50.0746 30.0765 49.4334 29.4406 47.9791 29.4406H42.8968L42.7457 29.3468C42.7457 29.3468 39.0447 25.1767 37.9657 23.9622H53.6869L53.6921 23.983Z" fill="#231F20"/>
<path d="M56.2211 31.7928C57.2323 31.8345 58.9368 31.7928 58.9368 31.7928C59.4216 31.7928 59.604 31.8814 59.8125 32.2723C60.021 32.6633 62.0957 36.3277 62.0957 36.3277C62.9766 37.5996 62.4241 38.6786 60.9333 38.6161C59.0567 38.5379 59.3226 36.7187 59.2965 36.2808C59.2965 36.2808 58.7387 35.4416 58.1862 34.6389H51.2118C48.4491 34.6389 49.3873 32.9291 49.8565 31.8032C50.1067 31.1985 49.7053 30.1612 47.9747 30.1612H42.8924C42.465 30.1612 42.2148 29.8328 42.2148 29.8328L36.7259 23.6455C36.5591 23.4526 36.606 23.2754 36.8771 23.2754H53.6877C54.0474 23.3223 54.0735 23.3692 54.3237 23.7967C54.5739 24.2241 55.1994 25.3292 55.3766 25.6784C55.5538 26.0276 55.6529 26.2831 55.2984 26.8825C54.9492 27.4872 53.5157 29.9684 53.2655 30.3958C53.0153 30.8232 52.6869 31.7876 53.7659 31.7876H56.2211V31.7928Z" fill="#FFD200"/>
<path d="M38.0156 25.166H51.2191C51.6778 25.2234 51.5892 25.7967 51.2191 25.8384H38.6099" fill="#231F20"/>
<path d="M40.1211 27.5391H49.9729C50.3951 27.5391 50.3482 28.2063 49.999 28.2063H40.7153" fill="#231F20"/>
<path d="M79.0906 31.7928C78.0793 31.8345 76.3748 31.7928 76.3748 31.7928C75.89 31.7928 75.7076 31.8814 75.4991 32.2723C75.2906 32.6633 73.2107 36.3277 73.2107 36.3277C72.3298 37.5996 72.8823 38.6786 74.3731 38.6161C76.2497 38.5379 75.9838 36.7187 76.0151 36.2808C76.0151 36.2808 76.5729 35.4416 77.1254 34.6389H84.0999C86.8625 34.6389 85.9243 32.9291 85.4551 31.8032C85.2049 31.1985 85.6063 30.1612 87.3369 30.1612H92.4192C92.8466 30.1612 93.0968 29.8328 93.0968 29.8328L98.5857 23.6455C98.7525 23.4526 98.7056 23.2754 98.4397 23.2754H81.6291C81.2694 23.3223 81.2434 23.3692 80.9932 23.7967C80.743 24.2241 80.1174 25.3292 79.9402 25.6784C79.763 26.0276 79.6639 26.2831 80.0132 26.8825C80.3676 27.4872 81.7959 29.9684 82.0461 30.3958C82.3015 30.8232 82.6247 31.7876 81.5457 31.7876H79.0958L79.0906 31.7928Z" fill="#FFD500"/>
<path d="M81.6242 22.5749C80.8684 22.6687 80.686 22.9293 80.3889 23.4297C80.3784 23.4454 79.3046 25.3688 79.3046 25.3688C79.1743 25.6242 79.0701 25.8849 79.0701 26.2028C79.0701 26.4895 79.1587 26.8231 79.3985 27.2402L81.4314 30.7534C81.4314 30.7534 81.4939 30.9411 81.5408 31.0714C81.2802 31.0714 79.0544 31.0871 79.0544 31.0871H76.3856C75.7392 31.0871 75.2492 31.233 74.8739 31.9367L72.596 35.9765C72.0435 36.774 71.9236 37.6497 72.2989 38.3326C72.6638 38.9946 73.43 39.3542 74.3996 39.3125C75.4577 39.2708 76.714 38.7496 76.714 36.5342V36.4925C76.8599 36.2736 77.2613 35.6846 77.4959 35.3353H84.095C85.2731 35.3353 86.0341 35.0434 86.4303 34.4492C86.6179 34.1625 86.6909 33.8445 86.6909 33.5265C86.6909 32.9062 86.4146 32.2703 86.1957 31.7543L86.0966 31.5249C86.0966 31.5249 86.081 31.478 86.081 31.4415C86.081 31.3842 86.0966 31.3164 86.1436 31.2486C86.2217 31.1288 86.498 30.8525 87.3268 30.8525H92.4091C93.1649 30.8525 93.5976 30.3104 93.6445 30.2478C93.6132 30.2843 99.1021 24.1022 99.1021 24.1022C99.3783 23.7842 99.4513 23.4037 99.3002 23.0805C99.1542 22.7573 98.8258 22.5645 98.4244 22.5645H81.6138L81.6242 22.5749ZM81.5408 32.4945C82.3019 32.4945 82.6615 32.1452 82.8336 31.8481C83.2349 31.1392 82.7971 30.2843 82.6511 30.0393L80.6182 26.5312C80.4462 26.2341 80.4462 26.2289 80.5661 25.9943L81.5982 24.1543L81.7493 23.9041C81.7493 23.9041 95.4585 23.9666 97.3559 23.9771C95.8911 25.6295 92.5759 29.3669 92.5759 29.3669C92.5551 29.3877 92.4247 29.4607 92.4247 29.4607H87.3425C85.8829 29.4607 85.2418 30.1019 84.9864 30.4824C84.7883 30.7795 84.684 31.1183 84.684 31.4571C84.684 31.6709 84.7257 31.8794 84.8091 32.0774L84.9134 32.3224C85.0541 32.6508 85.2991 33.219 85.2991 33.5265C85.2991 33.5943 85.2887 33.6464 85.2626 33.6829C85.247 33.709 85.0698 33.9383 84.1054 33.9383H76.7557L75.3118 36.0703V36.2423C75.3118 36.2423 75.3118 36.5499 75.3118 36.5707C75.3118 37.5715 75.0824 37.8895 74.3475 37.9156C73.9409 37.9312 73.6333 37.8374 73.5343 37.6654C73.43 37.4725 73.5291 37.1024 73.7897 36.7323C73.821 36.6802 76.1197 32.6091 76.1197 32.6091C76.151 32.5205 76.3752 32.5049 76.3752 32.5049C76.3595 32.5049 79.1222 32.5049 79.1222 32.5049H79.0909H81.5408V32.4945Z" fill="#231F20"/>
<path d="M79.0906 31.7928C78.0793 31.8345 76.3748 31.7928 76.3748 31.7928C75.89 31.7928 75.7076 31.8814 75.4991 32.2723C75.2906 32.6633 73.2107 36.3277 73.2107 36.3277C72.3298 37.5996 72.8823 38.6786 74.3731 38.6161C76.2497 38.5379 75.9838 36.7187 76.0151 36.2808C76.0151 36.2808 76.5729 35.4416 77.1254 34.6389H84.0999C86.8625 34.6389 85.9243 32.9291 85.4551 31.8032C85.2049 31.1985 85.6063 30.1612 87.3369 30.1612H92.4192C92.8466 30.1612 93.0968 29.8328 93.0968 29.8328L98.5857 23.6455C98.7525 23.4526 98.7056 23.2754 98.4397 23.2754H81.6291C81.2694 23.3223 81.2434 23.3692 80.9932 23.7967C80.743 24.2241 80.1174 25.3292 79.9402 25.6784C79.763 26.0276 79.6639 26.2831 80.0132 26.8825C80.3676 27.4872 81.7959 29.9684 82.0461 30.3958C82.3015 30.8232 82.6247 31.7876 81.5457 31.7876H79.0958L79.0906 31.7928Z" fill="#FFD200"/>
<path d="M97.2965 25.166H84.0929C83.6342 25.2234 83.7228 25.7967 84.0929 25.8384H96.7022" fill="#231F20"/>
<path d="M95.1913 27.5391H85.3395C84.9225 27.5391 84.9642 28.2063 85.3134 28.2063H94.597" fill="#231F20"/>
<path d="M0.349244 64.0776C1.0738 64.4685 2.08504 64.7709 3.24224 64.7709C4.12838 64.7709 4.96761 64.5884 4.96761 63.744C4.96761 61.7788 0 63.0194 0 59.1778C0 56.6549 2.47598 55.9668 4.57666 55.9668C5.58269 55.9668 6.5783 56.1127 7.28721 56.3577L7.10477 58.5158C6.38022 58.1822 5.56706 58.031 4.76953 58.031C4.06583 58.031 2.89299 58.0935 2.89299 59.0162C2.89299 60.7259 7.8606 59.5739 7.8606 63.3843C7.8606 66.1053 5.56706 66.8403 3.24224 66.8403C2.26748 66.8403 1.04252 66.6891 0.109465 66.392L0.349244 64.0828V64.0776Z" fill="#231F20"/>
<path d="M8.69531 58.8198H10.2904V57.058L12.9592 56.2344V58.8198H14.8566V60.7224H12.9592V63.6102C12.9592 64.5537 13.1886 65.0385 14.0434 65.0385C14.3145 65.0385 14.6012 64.9811 14.8722 64.9342L14.9609 66.6909C14.45 66.7534 13.934 66.842 13.2616 66.842C10.8325 66.842 10.2487 65.7786 10.2487 63.9125V60.7224H8.69531V58.8198Z" fill="#231F20"/>
<path d="M18.2286 64.1719C18.2286 63.416 18.948 63.1293 19.8654 63.1293C20.272 63.1293 20.6577 63.1606 21.007 63.1762C21.007 64.0989 20.3606 65.0371 19.3389 65.0371C18.7082 65.0371 18.2286 64.7192 18.2286 64.1771M23.6862 66.653C23.5663 66.038 23.5351 65.4229 23.5351 64.8078V61.8835C23.5351 59.4909 21.8045 58.6309 19.8028 58.6309C18.6456 58.6309 17.6396 58.7924 16.6753 59.1834L16.7222 61.0182C17.4728 60.596 18.3485 60.4292 19.219 60.4292C20.1938 60.4292 20.9913 60.7159 21.0017 61.7897C20.6577 61.7324 20.1781 61.6854 19.7403 61.6854C18.3016 61.6854 15.6953 61.9669 15.6953 64.3647C15.6953 66.0692 17.0819 66.8355 18.63 66.8355C19.7351 66.8355 20.4857 66.4028 21.1008 65.4229H21.1321C21.1321 65.8242 21.179 66.2308 21.1946 66.6478H23.681L23.6862 66.653Z" fill="#231F20"/>
<path d="M24.5742 58.8198H26.1693V57.058L28.8381 56.2344V58.8198H30.7355V60.7224H28.8381V63.6102C28.8381 64.5537 29.0675 65.0385 29.9223 65.0385C30.1934 65.0385 30.4801 64.9811 30.7512 64.9342L30.845 66.6909C30.3341 66.7534 29.8181 66.842 29.1457 66.842C26.7166 66.842 26.1328 65.7786 26.1328 63.9125V60.7224H24.5846V58.8198H24.5742Z" fill="#231F20"/>
<path d="M34.2939 61.9832C34.3564 61.0866 34.8204 60.3569 35.8003 60.3569C36.8846 60.3569 37.3068 61.0866 37.3068 61.9832H34.2991H34.2939ZM39.7306 63.5157V63.0205C39.7306 60.7009 38.6777 58.6367 35.7795 58.6367C33.34 58.6367 31.5781 60.1432 31.5781 62.7182C31.5781 65.2932 33.5537 66.8361 36.1391 66.8361C37.1452 66.8361 38.1356 66.685 39.0061 66.3409V64.4279C38.1981 64.871 37.3589 65.0326 36.6187 65.0326C35.2947 65.0326 34.4711 64.6051 34.3199 63.5157H39.7306Z" fill="#231F20"/>
<path d="M41.1458 58.8139H43.6166V60.2526H43.6479C44.19 59.1267 45.269 58.6367 46.5044 58.6367C48.6416 58.6367 49.5016 60.1327 49.5016 61.7591V66.6589H46.7911V62.8589C46.7911 61.3838 46.2802 60.8834 45.5401 60.8834C44.4298 60.8834 43.8564 61.6496 43.8564 63.3385V66.6537H41.1406V58.8139H41.1458Z" fill="#231F20"/>
<path d="M51.0327 64.495C51.6634 64.7661 52.5965 65.0371 53.5817 65.0371C54.1446 65.0371 54.692 64.9485 54.692 64.4064C54.692 63.0824 50.8242 64.0155 50.8242 61.1746C50.8242 59.3658 52.6017 58.6309 54.1759 58.6309C55.1142 58.6309 56.0629 58.7351 56.9386 59.0844L56.7301 60.9661C56.1567 60.6221 55.2966 60.4396 54.619 60.4396C54.03 60.4396 53.3575 60.5439 53.3575 60.9817C53.3575 62.2015 57.4077 61.2372 57.4077 64.224C57.4077 66.3142 55.5208 66.8407 53.7381 66.8407C52.5131 66.8407 51.6843 66.7208 50.8868 66.4654L51.0379 64.495H51.0327Z" fill="#231F20"/>
<path d="M62.6289 58.8145H65.5375L67.1639 64.4076H67.1899L68.8319 58.8145H71.5216L68.6182 66.6542H65.5375L62.6289 58.8145Z" fill="#231F20"/>
<path d="M74.8642 61.9832C74.9267 61.0866 75.3907 60.3569 76.3706 60.3569C77.4549 60.3569 77.8771 61.0866 77.8771 61.9832H74.8694H74.8642ZM80.3009 63.5157V63.0205C80.3009 60.7009 79.248 58.6367 76.3498 58.6367C73.9103 58.6367 72.1484 60.1432 72.1484 62.7182C72.1484 65.2932 74.124 66.8361 76.7095 66.8361C77.7207 66.8361 78.7059 66.685 79.5816 66.3409V64.4279C78.7684 64.871 77.9292 65.0326 77.1942 65.0326C75.8702 65.0326 75.0414 64.6051 74.8955 63.5157H80.3062H80.3009Z" fill="#231F20"/>
<path d="M84.1429 62.6713C84.1429 61.5923 84.6694 60.7009 85.6754 60.7009C86.89 60.7009 87.4008 61.6861 87.4008 62.567C87.4008 63.7763 86.6345 64.5947 85.6754 64.5947C84.8623 64.5947 84.1429 63.9014 84.1429 62.6713ZM90.0227 58.8192H87.5676V60.2266H87.5363C86.9681 59.2622 86.0351 58.6367 84.8779 58.6367C82.4436 58.6367 81.3438 60.3725 81.3438 62.7182C81.3438 65.0639 82.6834 66.6589 84.831 66.6589C85.9152 66.6589 86.8118 66.2419 87.4581 65.3297H87.4842V65.7467C87.4842 67.2792 86.645 68.0194 85.0812 68.0194C83.9553 68.0194 83.262 67.7796 82.4384 67.373L82.3029 69.5102C82.9336 69.7343 84.0022 70.0054 85.2949 70.0054C88.4485 70.0054 90.0175 68.9681 90.0175 65.7467V58.8192H90.0227Z" fill="#231F20"/>
<path d="M91.0781 58.8145H93.9868L95.6131 64.4076H95.6444L97.2811 58.8145H99.976L97.0726 66.6542H93.9868L91.0781 58.8145Z" fill="#231F20"/>
<path d="M103.315 61.9832C103.377 61.0866 103.841 60.3569 104.821 60.3569C105.905 60.3569 106.322 61.0866 106.322 61.9832H103.315ZM108.757 63.5157V63.0205C108.757 60.7009 107.709 58.6367 104.811 58.6367C102.371 58.6367 100.609 60.1432 100.609 62.7182C100.609 65.2932 102.585 66.8361 105.17 66.8361C106.182 66.8361 107.167 66.685 108.037 66.3409V64.4279C107.229 64.871 106.39 65.0326 105.65 65.0326C104.326 65.0326 103.497 64.6051 103.351 63.5157H108.757Z" fill="#231F20"/>
<path d="M110.009 64.495C110.64 64.7661 111.573 65.0371 112.558 65.0371C113.121 65.0371 113.669 64.9485 113.669 64.4064C113.669 63.0824 109.801 64.0155 109.801 61.1746C109.801 59.3658 111.578 58.6309 113.152 58.6309C114.091 58.6309 115.039 58.7351 115.915 59.0844L115.701 60.9661C115.128 60.6221 114.268 60.4396 113.59 60.4396C112.996 60.4396 112.329 60.5439 112.329 60.9817C112.329 62.2015 116.379 61.2372 116.379 64.224C116.379 66.3142 114.497 66.8407 112.709 66.8407C111.484 66.8407 110.656 66.7208 109.858 66.4654L110.009 64.495Z" fill="#231F20"/>
<path d="M120.04 61.9832C120.103 61.0866 120.566 60.3569 121.546 60.3569C122.631 60.3569 123.048 61.0866 123.048 61.9832H120.04ZM125.477 63.5157V63.0205C125.477 60.7009 124.429 58.6367 121.526 58.6367C119.086 58.6367 117.324 60.1432 117.324 62.7182C117.324 65.2932 119.3 66.8361 121.885 66.8361C122.891 66.8361 123.882 66.685 124.752 66.3409V64.4279C123.944 64.871 123.1 65.0326 122.365 65.0326C121.041 65.0326 120.212 64.6051 120.066 63.5157H125.477Z" fill="#231F20"/>
<path d="M126.891 58.8139H129.361V60.2526H129.393C129.935 59.1267 131.019 58.6367 132.249 58.6367C134.392 58.6367 135.246 60.1327 135.246 61.7591V66.6589H132.531V62.8589C132.531 61.3838 132.02 60.8834 131.285 60.8834C130.169 60.8834 129.601 61.6496 129.601 63.3385V66.6537H126.891V58.8139Z" fill="#231F20"/>
</g>
<defs>
<clipPath id="clip0_1167_4379">
<rect width="135.251" height="70" fill="white"/>
</clipPath>
</defs>
</svg>
