<svg width="104" height="16" viewBox="0 0 104 16" fill="none" xmlns="http://www.w3.org/2000/svg">
<g clip-path="url(#clip0_1167_4457)">
<path d="M40.6442 3.76702H37.6662C37.5612 3.76702 37.4604 3.7253 37.3862 3.65104C37.3119 3.57677 37.2702 3.47605 37.2702 3.37102V1.10002C37.2701 1.04794 37.2802 0.996335 37.3001 0.948175C37.3199 0.900014 37.349 0.856241 37.3858 0.819363C37.4226 0.782485 37.4663 0.753227 37.5144 0.733263C37.5625 0.7133 37.6141 0.703024 37.6662 0.703024H46.9182C47.0233 0.703289 47.124 0.745233 47.1983 0.819656C47.2725 0.894079 47.3142 0.994906 47.3142 1.10002V3.37002C47.3142 3.42211 47.3039 3.47369 47.284 3.5218C47.264 3.56991 47.2347 3.61361 47.1979 3.65039C47.161 3.68718 47.1172 3.71633 47.069 3.73617C47.0209 3.75601 46.9693 3.76616 46.9172 3.76602H43.9372V14.891C43.9335 14.9948 43.8905 15.0932 43.817 15.1665C43.7435 15.2398 43.6449 15.2825 43.5412 15.286H41.0412C40.9373 15.2828 40.8385 15.2402 40.7647 15.1669C40.691 15.0935 40.6479 14.9949 40.6442 14.891V3.76702ZM48.1462 1.10002C48.1461 1.04794 48.1562 0.996335 48.1761 0.948175C48.1959 0.900014 48.225 0.856241 48.2618 0.819363C48.2986 0.782485 48.3423 0.753227 48.3904 0.733263C48.4385 0.7133 48.4901 0.703024 48.5422 0.703024H57.1682C57.2204 0.702892 57.272 0.713071 57.3203 0.732975C57.3685 0.75288 57.4123 0.782118 57.4492 0.819009C57.4861 0.8559 57.5153 0.899717 57.5352 0.947943C57.5551 0.996169 57.5653 1.04785 57.5652 1.10002V3.37002C57.5652 3.42211 57.5549 3.47369 57.535 3.5218C57.515 3.56991 57.4857 3.61361 57.4489 3.65039C57.412 3.68718 57.3682 3.71633 57.32 3.73617C57.2719 3.75601 57.2203 3.76616 57.1682 3.76602H51.3972V6.35002H56.1402C56.2439 6.3535 56.3425 6.3962 56.416 6.46951C56.4895 6.54282 56.5325 6.64128 56.5362 6.74502V9.01602C56.5363 9.06811 56.5262 9.11971 56.5063 9.16787C56.4865 9.21603 56.4573 9.25981 56.4206 9.29669C56.3838 9.33356 56.3401 9.36282 56.292 9.38278C56.2439 9.40275 56.1923 9.41302 56.1402 9.41302H51.3972V12.224H57.1682C57.2735 12.224 57.3745 12.2659 57.4489 12.3403C57.5234 12.4148 57.5652 12.5157 57.5652 12.621V14.891C57.5656 14.9432 57.5556 14.995 57.5358 15.0433C57.5159 15.0916 57.4867 15.1354 57.4497 15.1723C57.4128 15.2092 57.3689 15.2383 57.3205 15.258C57.2722 15.2777 57.2204 15.2876 57.1682 15.287H48.5422C48.4902 15.2873 48.4387 15.2773 48.3906 15.2575C48.3425 15.2378 48.2988 15.2087 48.2619 15.172C48.2251 15.1353 48.196 15.0916 48.1761 15.0436C48.1562 14.9955 48.1461 14.944 48.1462 14.892V1.10002ZM59.1232 0.876024C59.1276 0.774073 59.1715 0.677834 59.2456 0.607663C59.3197 0.537491 59.4182 0.49889 59.5202 0.500024H60.0402L68.3542 8.50102H68.3742V1.10502C68.3741 1.05285 68.3842 1.00117 68.4042 0.952943C68.4241 0.904717 68.4533 0.8609 68.4902 0.824009C68.5271 0.787118 68.5709 0.75788 68.6191 0.737975C68.6673 0.718071 68.719 0.707892 68.7712 0.708024H71.2662C71.3705 0.711281 71.4696 0.754153 71.5433 0.827911C71.6171 0.901668 71.6599 1.00077 71.6632 1.10502V15.125C71.6593 15.2271 71.6155 15.3235 71.5413 15.3936C71.4671 15.4637 71.3683 15.5019 71.2662 15.5H70.9282C70.8309 15.488 70.7379 15.4527 70.6572 15.397L62.4272 7.12602H62.4052V14.897C62.4052 15.0018 62.3636 15.1023 62.2895 15.1763C62.2154 15.2504 62.115 15.292 62.0102 15.292H59.5402C59.4364 15.2885 59.3379 15.2458 59.2644 15.1725C59.1909 15.0992 59.1479 15.0008 59.1442 14.897L59.1242 0.877024L59.1232 0.876024ZM73.1522 13.313L74.1322 11.584C74.3002 11.313 74.6952 11.355 74.8412 11.459C74.9242 11.501 76.4232 12.605 77.7992 12.605C78.6322 12.605 79.2372 12.084 79.2372 11.355C79.2372 10.48 78.5072 9.81402 77.0912 9.25002C75.2982 8.54202 73.0492 7.14602 73.0492 4.64602C73.0492 2.58302 74.6532 0.500024 77.8622 0.500024C80.0282 0.500024 81.6952 1.60402 82.3202 2.06302C82.5712 2.20902 82.5292 2.58302 82.4462 2.73102L81.3832 4.33502C81.2382 4.56302 80.8622 4.75102 80.6752 4.60502C80.4872 4.50102 78.9662 3.35502 77.6952 3.35502C76.9452 3.35502 76.3822 3.85502 76.3822 4.41802C76.3822 5.18802 77.0082 5.77302 78.6542 6.43802C80.3012 7.10402 82.8622 8.35602 82.8622 11.181C82.8622 13.327 81.0072 15.493 77.9502 15.493C75.2392 15.493 73.7412 14.368 73.2622 13.889C73.0492 13.688 72.9862 13.605 73.1522 13.313ZM87.1252 0.703024H84.6252C84.5732 0.703155 84.5217 0.713528 84.4737 0.73355C84.4257 0.753572 84.3822 0.782852 84.3455 0.819717C84.3088 0.856582 84.2797 0.90031 84.26 0.948405C84.2402 0.996501 84.2301 1.04802 84.2302 1.10002V14.89C84.2302 15.11 84.4072 15.286 84.6262 15.286H87.1252C87.2302 15.286 87.3309 15.2443 87.4052 15.17C87.4795 15.0958 87.5212 14.995 87.5212 14.89V1.10002C87.5213 1.04794 87.5112 0.996335 87.4913 0.948175C87.4715 0.900014 87.4423 0.856241 87.4056 0.819363C87.3688 0.782485 87.3251 0.753227 87.277 0.733263C87.2289 0.7133 87.1773 0.703024 87.1252 0.703024ZM96.2852 0.500024C97.7684 0.496273 99.2195 0.932395 100.455 1.75325C101.69 2.5741 102.654 3.74283 103.226 5.11165C103.797 6.48048 103.949 7.98794 103.664 9.44344C103.378 10.8989 102.668 12.2371 101.622 13.2888C100.576 14.3405 99.2417 15.0584 97.7878 15.3518C96.3339 15.6452 94.8256 15.5009 93.4537 14.9372C92.0818 14.3735 90.9078 13.4156 90.0802 12.1848C89.2526 10.9539 88.8086 9.50525 88.8042 8.02202C88.7996 7.03647 88.9896 6.05969 89.3634 5.14774C89.7371 4.23579 90.2873 3.40661 90.9822 2.70775C91.6772 2.0089 92.5033 1.45414 93.4131 1.07528C94.3229 0.696426 95.2986 0.500935 96.2842 0.500024H96.2852ZM96.2852 12.167C97.1109 12.1705 97.919 11.9287 98.6071 11.4722C99.2951 11.0157 99.8321 10.3651 100.15 9.60298C100.468 8.84086 100.552 8.00153 100.392 7.19147C100.232 6.38141 99.8348 5.63712 99.2512 5.05302C98.6669 4.46921 97.9224 4.07215 97.112 3.91226C96.3017 3.75236 95.4621 3.83684 94.6998 4.15496C93.9376 4.47308 93.287 5.0105 92.8308 5.69901C92.3745 6.38752 92.1331 7.19607 92.1372 8.02202C92.1451 9.11944 92.5847 10.1696 93.361 10.9453C94.1373 11.7211 95.1878 12.16 96.2852 12.167ZM27.3842 2.75702L25.7742 2.99402C25.6639 3.01671 25.5604 3.06501 25.4722 3.135C25.3839 3.205 25.3134 3.29476 25.2662 3.39702C24.4192 5.51202 22.7082 9.18402 20.0922 12.155C20.0588 12.1887 20.0336 12.2296 20.0184 12.2746C20.0032 12.3195 19.9985 12.3674 20.0046 12.4144C20.0106 12.4615 20.0274 12.5065 20.0535 12.5461C20.0796 12.5857 20.1144 12.6189 20.1552 12.643C20.3252 12.751 20.4942 12.855 20.6632 12.951C20.7644 13.0003 20.8766 13.0228 20.989 13.0163C21.1014 13.0098 21.2103 12.9746 21.3052 12.914C23.5582 11.259 26.1832 6.81602 27.6192 3.05302C27.6992 2.85302 27.5892 2.72602 27.3842 2.75702ZM3.8342 6.36402L0.250195 6.89302C0.205169 6.8957 0.161563 6.90979 0.123478 6.93396C0.0853929 6.95813 0.0540789 6.99158 0.0324798 7.03118C0.0108806 7.07078 -0.000294148 7.11522 5.88614e-06 7.16032C0.00030592 7.20543 0.0120709 7.24972 0.0341949 7.28902C2.0762 11.617 5.82719 14.452 10.2872 14.452H13.0352C13.2432 14.452 13.2432 14.452 13.0352 14.433C12.4168 14.3957 11.8062 14.275 11.2202 14.074C8.33019 13.116 5.87019 10.385 4.34319 6.65902C4.29945 6.56312 4.22695 6.4832 4.13574 6.43034C4.04454 6.37749 3.93916 6.35431 3.8342 6.36402ZM19.2652 11.596C20.9852 9.54602 22.7052 6.43702 23.8042 3.65302C23.8802 3.45902 23.7742 3.32702 23.5682 3.35802L19.4312 3.96602C19.3214 3.99002 19.2185 4.0388 19.1305 4.10865C19.0424 4.1785 18.9715 4.26756 18.9232 4.36902C18.2922 5.89047 17.5733 7.37397 16.7702 8.81202C16.7198 8.91142 16.6961 9.02218 16.7014 9.13348C16.7066 9.24479 16.7407 9.35282 16.8002 9.44702C17.3682 10.244 18.0202 10.977 18.7442 11.635C18.7809 11.6667 18.8236 11.6909 18.8697 11.7061C18.9158 11.7213 18.9644 11.7272 19.0128 11.7236C19.0612 11.72 19.1084 11.7069 19.1517 11.685C19.195 11.6631 19.2336 11.6328 19.2652 11.596Z" fill="#24282B"/>
<path d="M7.33869 5.83709L5.89469 6.0511C5.8494 6.0544 5.80564 6.06891 5.76734 6.09332C5.72905 6.11773 5.69742 6.15128 5.6753 6.19095C5.65319 6.23061 5.64128 6.27516 5.64065 6.32057C5.64002 6.36598 5.65069 6.41083 5.67169 6.4511C6.78969 9.0031 9.64569 14.1621 14.5017 14.3811H16.7047C16.9137 14.3811 16.9137 14.3811 16.7047 14.3621C16.0867 14.3243 15.4765 14.2036 14.8907 14.0031C11.8847 13.0071 9.34569 10.0931 7.83469 6.1361C7.79478 6.03983 7.72509 5.95886 7.63584 5.90506C7.54659 5.85126 7.44246 5.82744 7.33869 5.83709ZM29.1597 2.86309C27.6457 6.92809 24.7107 11.7401 22.1597 13.3131C21.9897 13.4231 21.9897 13.5591 22.1887 13.6221C22.9374 13.8683 23.7205 13.9942 24.5087 13.9951C24.6447 13.9951 24.7807 13.9951 24.9157 13.9831C25.1637 13.9631 25.4077 13.9061 25.6377 13.8131C28.8957 12.3111 32.4357 6.81609 34.0067 2.16309C34.0727 1.96609 33.9567 1.82509 33.7507 1.86109L29.6597 2.46309C29.5504 2.48488 29.448 2.53258 29.361 2.60218C29.274 2.67179 29.2049 2.76127 29.1597 2.86309Z" fill="#24282B"/>
<path d="M13.0798 4.93657L9.44284 5.47257C9.39677 5.47695 9.35237 5.49211 9.31325 5.51682C9.27412 5.54154 9.24135 5.57511 9.2176 5.61483C9.19385 5.65455 9.17977 5.69929 9.17651 5.74546C9.17325 5.79162 9.1809 5.8379 9.19884 5.88057C11.0618 10.9196 14.5858 14.3206 18.6258 14.3206H22.7358C22.9448 14.3206 22.9448 14.3206 22.7358 14.3016C22.1173 14.264 21.5066 14.1439 20.9198 13.9446C17.7008 12.8776 15.0248 9.62057 13.5658 5.24057C13.5312 5.14237 13.4643 5.05883 13.376 5.00361C13.2877 4.94838 13.1833 4.92475 13.0798 4.93657Z" fill="#24282B"/>
</g>
<defs>
<clipPath id="clip0_1167_4457">
<rect width="104" height="16" fill="white"/>
</clipPath>
</defs>
</svg>
