<svg width="350" height="50" viewBox="0 0 350 50" fill="none" xmlns="http://www.w3.org/2000/svg">
<path d="M16.5859 12.1865C27.3869 12.1867 31.5986 17.7654 31.5986 24.7852V37.626C31.5986 40.0969 31.73 43.317 32.0107 45.8066C32.2354 47.8658 30.9433 49.3633 28.8467 49.3633H25.459C24.0737 49.3633 23.0064 48.6709 22.501 47.5664C20.6478 48.9704 18.0083 50 14.2832 50C6.28993 50 0 45.1514 0 37.4951C0.000126689 30.5878 5.07295 27.4242 12.4482 27.1621L20.6475 26.8252C21.0031 26.8252 21.2093 26.7129 21.2842 26.4883V25.5146C21.2841 22.8191 19.8984 21.4717 16.5664 21.4717C13.2348 21.4718 12.0366 22.7629 11.7744 24.541C11.5685 25.945 10.8756 26.9375 8.7041 26.9375H4.79199C2.7891 26.9374 1.44173 25.6831 1.4043 23.624C1.27332 18.0269 5.61616 12.168 16.6045 12.168L16.5859 12.1865ZM43.7666 12.9912C45.9379 12.9913 47.0985 14.152 47.0986 16.3232V46.0127C47.0986 48.1841 45.938 49.3447 43.7666 49.3447H40.0596C37.8883 49.3446 36.7275 48.184 36.7275 46.0127V16.3232C36.7276 14.1521 37.8884 12.9913 40.0596 12.9912H43.7666ZM105.803 0C120.236 0 130.008 10.0716 130.008 24.6729C130.008 39.2739 120.254 49.3447 105.803 49.3447H90.7529C88.5815 49.3447 87.4209 48.1842 87.4209 46.0127V3.33203C87.4209 1.16059 88.5815 0 90.7529 0H105.803ZM21.2842 34.4629C20.7039 34.5939 20.0295 34.687 19.3369 34.7432L14.3203 35.0996C11.6663 35.2678 10.5055 36.0889 10.502 37.8057C10.5088 39.952 12.5466 41.2958 15.3496 41.2959C18.794 41.2959 21.2842 39.5731 21.2842 35.1553V34.4629ZM60.4268 29.9697C62.5981 29.9697 63.7586 31.1306 63.7588 33.3018V37.9443C63.7588 40.1158 62.5982 41.2764 60.4268 41.2764H55.5596C53.3882 41.2763 52.2275 40.1157 52.2275 37.9443V33.3018C52.2277 31.1306 53.3884 29.9698 55.5596 29.9697H60.4268ZM78.959 29.9697C81.1303 29.9697 82.2909 31.1306 82.291 33.3018V37.9443C82.291 40.1158 81.1305 41.2764 78.959 41.2764H74.0918C71.9205 41.2762 70.7598 40.1157 70.7598 37.9443V33.3018C70.7599 31.1307 71.9207 29.9699 74.0918 29.9697H78.959ZM98.1279 38.9932H104.586C113.29 38.9932 119.15 34.0698 119.15 24.6729C119.15 15.2756 113.291 10.3516 104.586 10.3516H98.1279V38.9932ZM69.6934 12.9912C71.8645 12.9913 73.0253 14.1521 73.0254 16.3232V20.9658C73.0254 23.1372 71.8646 24.2977 69.6934 24.2979H64.8262C62.6547 24.2979 61.4941 23.1373 61.4941 20.9658V16.3232C61.4942 14.1519 62.6548 12.9912 64.8262 12.9912H69.6934ZM44.3838 0C46.5552 0 47.7158 1.16059 47.7158 3.33203V7.97461C47.7158 10.146 46.5552 11.3066 44.3838 11.3066H39.5166C37.3455 11.3065 36.1846 10.1459 36.1846 7.97461V3.33203C36.1846 1.16076 37.3455 0.00017239 39.5166 0H44.3838Z" fill="black"/>
<path d="M298.484 33.3396C302.06 33.3398 303.82 35.3243 303.801 37.2898C303.801 37.9073 303.369 38.2625 302.771 38.2625H301.441C300.787 38.2624 300.505 37.9441 300.449 37.6072C300.337 36.84 299.813 36.3162 298.446 36.3162C297.267 36.3163 296.65 36.7465 296.649 37.4764C296.649 38.0754 297.005 38.2817 297.829 38.4314L299.832 38.7498C302.303 39.1242 303.875 40.0977 303.875 42.5125C303.875 44.74 302.396 46.8182 298.428 46.8182C294.459 46.8181 292.944 44.7025 293.037 42.7557L292.981 42.7186C292.999 42.1195 293.412 41.7449 294.029 41.7449H295.377C296.051 41.745 296.313 42.1003 296.369 42.5867C296.463 43.2793 297.005 43.7663 298.446 43.7664C299.888 43.7664 300.449 43.2986 300.449 42.6248C300.449 42.082 300.132 41.8382 299.14 41.6697L297.155 41.3514C294.647 40.9583 293.242 39.7792 293.242 37.533C293.242 35.2867 294.909 33.3396 298.484 33.3396ZM343.73 33.3396C347.305 33.3397 349.065 35.3243 349.046 37.2898C349.046 37.9072 348.615 38.2623 348.017 38.2625H346.688C346.032 38.2625 345.752 37.9442 345.695 37.6072C345.583 36.84 345.058 36.3163 343.692 36.3162C342.513 36.3162 341.895 36.7465 341.895 37.4764C341.895 38.0754 342.251 38.2817 343.074 38.4314L345.077 38.7498C347.548 39.1242 349.12 40.0977 349.12 42.5125C349.12 44.74 347.641 46.8182 343.673 46.8182C339.705 46.8181 338.189 44.7024 338.282 42.7557L338.226 42.7186C338.244 42.1195 338.657 41.7449 339.274 41.7449H340.622C341.296 41.745 341.558 42.1002 341.614 42.5867C341.708 43.2793 342.251 43.7664 343.692 43.7664C345.133 43.7663 345.695 43.2985 345.695 42.6248C345.695 42.082 345.377 41.8382 344.385 41.6697L342.4 41.3514C339.892 40.9583 338.488 39.7792 338.488 37.533C338.488 35.2867 340.154 33.3396 343.73 33.3396ZM150.824 33.3211C154.381 33.3213 157.132 35.9048 157.132 40.0603C157.132 44.2157 154.381 46.7984 150.824 46.7986C147.268 46.7986 144.516 44.2159 144.516 40.0603C144.516 35.9046 147.268 33.3211 150.824 33.3211ZM220.816 33.3211C224.373 33.3211 227.125 35.9046 227.125 40.0603C227.125 44.2159 224.373 46.7986 220.816 46.7986C217.26 46.7986 214.508 44.2159 214.508 40.0603C214.508 35.9046 217.26 33.3211 220.816 33.3211ZM267.203 33.3396C270.704 33.3396 273.156 35.7734 273.156 39.6297V40.0223C273.156 40.7898 272.801 41.1453 272.146 41.1453H264.489C264.826 42.9798 265.968 43.7292 267.391 43.7293C268.664 43.7293 269.188 43.1859 269.487 42.5682C269.675 42.1751 269.9 41.9314 270.442 41.9314H271.753C272.426 41.9316 272.801 42.2502 272.764 42.9051C272.577 44.8518 270.723 46.7985 267.447 46.7986C263.554 46.7986 261.027 44.1223 261.026 39.948H261.008C261.008 35.755 263.703 33.3399 267.203 33.3396ZM317.092 33.3211C320.648 33.3213 323.399 35.9048 323.399 40.0603C323.399 44.2157 320.648 46.7984 317.092 46.7986C313.535 46.7986 310.783 44.2159 310.783 40.0603C310.783 35.9046 313.535 33.3211 317.092 33.3211ZM280.607 33.3025C283.995 33.3025 286.073 35.2489 286.129 37.6824C286.148 38.3376 285.755 38.6746 285.1 38.6746H283.695C282.984 38.6745 282.797 38.3193 282.722 37.8328C282.591 37.084 281.898 36.4842 280.607 36.4842C278.885 36.4843 277.65 37.6265 277.649 40.0223C277.649 42.4184 278.885 43.5603 280.532 43.5603L280.551 43.5984C281.899 43.5984 282.573 43.0362 282.741 42.2312C282.835 41.7634 283.06 41.408 283.752 41.408H285.118C285.773 41.408 286.166 41.745 286.148 42.4002C286.091 44.8336 283.901 46.7801 280.569 46.7801C276.807 46.7801 274.224 44.234 274.224 40.0408C274.224 35.848 276.844 33.3027 280.607 33.3025ZM165.313 33.3582C168.326 33.3582 170.255 35.4362 170.255 38.6746L170.236 38.6375V45.4891C170.236 46.1438 169.88 46.4996 169.226 46.4998H167.877C167.222 46.4997 166.866 46.1439 166.866 45.4891V39.0301C166.866 37.4578 166.155 36.5779 164.657 36.5779C163.16 36.5781 162.374 37.5141 162.374 39.1424V45.5076C162.374 46.1625 162.018 46.5182 161.363 46.5184H160.015C159.36 46.5182 159.004 46.1625 159.004 45.5076V34.6687C159.004 34.0137 159.36 33.6582 160.015 33.658H161.307C161.85 33.658 162.187 33.9012 162.299 34.3504C163.029 33.7514 164.021 33.3583 165.313 33.3582ZM250.918 28.8846C256.084 28.8848 259.547 32.4785 259.547 37.701C259.547 42.9236 256.066 46.5181 250.918 46.5184V46.4998H245.414C244.759 46.4998 244.404 46.144 244.403 45.4891V29.8953C244.403 29.2401 244.759 28.8846 245.414 28.8846H250.918ZM331.58 33.3582C334.594 33.3582 336.522 35.4362 336.523 38.6746L336.504 38.6375V45.4891C336.504 46.1438 336.148 46.4996 335.493 46.4998H334.145C333.49 46.4997 333.134 46.1439 333.134 45.4891V39.0301C333.134 37.4578 332.422 36.5779 330.925 36.5779C329.428 36.5781 328.642 37.5141 328.642 39.1424V45.5076C328.642 46.1625 328.286 46.5182 327.631 46.5184H326.282C325.627 46.5182 325.272 46.1625 325.272 45.5076V34.6687C325.272 34.0137 325.627 33.6582 326.282 33.658H327.574C328.117 33.658 328.454 33.9012 328.566 34.3504C329.296 33.7514 330.289 33.3583 331.58 33.3582ZM197.997 28.8846C198.652 28.8846 199.008 29.2401 199.008 29.8953V45.4891C199.008 46.144 198.652 46.4998 197.997 46.4998H196.519C195.864 46.4998 195.508 46.144 195.508 45.4891V29.8953C195.508 29.2401 195.863 28.8846 196.519 28.8846H197.997ZM187.084 28.866C187.664 28.8661 188.001 29.0906 188.189 29.6521H188.15L193.86 45.0018C193.991 45.3761 193.991 45.6946 193.86 45.9754C193.692 46.3123 193.355 46.4812 192.887 46.4812H191.539C190.959 46.4812 190.584 46.2185 190.378 45.6756L189.106 42.1941H182.198L180.925 45.6756C180.719 46.2184 180.345 46.4812 179.765 46.4812H178.417C177.949 46.4812 177.612 46.2935 177.443 45.9754C177.294 45.6759 177.294 45.3574 177.443 45.0018L183.134 29.6521C183.34 29.1093 183.677 28.866 184.238 28.866H187.084ZM210.39 28.8846H213.441C214.096 28.8847 214.452 29.2403 214.452 29.8953V30.9998C214.452 31.6547 214.096 32.0104 213.441 32.0105H211.12V33.6209H213.235C213.89 33.621 214.246 33.9766 214.246 34.6316V35.8855C214.246 36.5406 213.89 36.8962 213.235 36.8963H211.12V45.4695C211.12 46.1247 210.764 46.4812 210.108 46.4812H208.761C208.106 46.4811 207.75 46.1246 207.75 45.4695V31.3182C207.75 29.727 208.78 28.866 210.39 28.866V28.8846ZM231.262 33.6199C231.842 33.6199 232.179 33.8829 232.254 34.407C232.853 33.9204 233.621 33.62 234.594 33.6199H235.68C236.335 33.6199 236.69 33.9765 236.69 34.6316V35.8855C236.69 36.5407 236.335 36.8963 235.68 36.8963H234.931C232.947 36.8964 232.329 37.5703 232.329 39.7039V45.4695C232.329 46.1246 231.973 46.4812 231.318 46.4812H229.971C229.316 46.4812 228.959 46.1247 228.959 45.4695V34.6316C228.959 33.9765 229.316 33.6199 229.971 33.6199H231.262ZM290.135 33.6199C290.79 33.6199 291.146 33.9765 291.146 34.6316V45.4695C291.146 46.1247 290.79 46.4812 290.135 46.4812H288.787C288.132 46.4812 287.776 46.1246 287.776 45.4695V34.6316C287.776 33.9765 288.132 33.62 288.787 33.6199H290.135ZM307.938 33.6199C308.593 33.6199 308.948 33.9765 308.948 34.6316V45.4695C308.948 46.1247 308.593 46.4812 307.938 46.4812H306.59C305.935 46.4812 305.579 46.1247 305.579 45.4695V34.6316C305.579 33.9765 305.935 33.6199 306.59 33.6199H307.938ZM150.843 36.5408C149.27 36.5408 147.96 37.6642 147.96 40.0603C147.96 42.4562 149.289 43.5789 150.843 43.5789C152.396 43.5788 153.726 42.4561 153.726 40.0603C153.726 37.6644 152.415 36.5409 150.843 36.5408ZM220.816 36.5408C219.244 36.5408 217.934 37.6643 217.934 40.0603C217.934 42.4562 219.263 43.5789 220.816 43.5789C222.37 43.5789 223.699 42.4562 223.699 40.0603C223.699 37.6642 222.389 36.5408 220.816 36.5408ZM317.092 36.5408C315.519 36.5408 314.209 37.6642 314.209 40.0603C314.209 42.4562 315.538 43.5789 317.092 43.5789C318.645 43.5787 319.975 42.456 319.975 40.0603C319.975 37.6645 318.664 36.541 317.092 36.5408ZM247.923 43.1111H250.449C253.781 43.1111 255.99 41.183 255.99 37.6824C255.99 34.1819 253.781 32.2537 250.449 32.2537H247.923V43.1111ZM183.377 38.8992H187.87L185.624 32.7781L183.377 38.8992ZM267.203 36.2781C265.856 36.2783 264.92 37.0275 264.546 38.4686H269.749C269.487 37.1209 268.644 36.2781 267.203 36.2781ZM290.359 28.8846C291.015 28.8846 291.37 29.2401 291.37 29.8953V31.5984C291.37 32.2536 291.015 32.6092 290.359 32.6092H288.581C287.926 32.6091 287.57 32.2535 287.57 31.5984V29.8953C287.57 29.2402 287.926 28.8847 288.581 28.8846H290.359ZM308.162 28.8846C308.817 28.8846 309.173 29.2401 309.173 29.8953V31.5984C309.173 32.2536 308.817 32.6092 308.162 32.6092H306.384C305.729 32.6092 305.373 32.2536 305.373 31.5984V29.8953C305.373 29.2401 305.729 28.8846 306.384 28.8846H308.162ZM223.456 7.31914C224.729 7.31917 225.721 7.71297 226.451 8.34941C226.545 7.8627 226.882 7.61894 227.443 7.61894H228.734C229.39 7.61894 229.746 7.97454 229.746 8.62968V19.993C229.746 23.6243 227.537 25.5525 223.681 25.5525C220.124 25.5525 218.27 23.7737 218.289 21.5086C218.289 20.891 218.702 20.4793 219.319 20.4793H220.686C221.285 20.4794 221.584 20.7975 221.678 21.2654C221.809 22.0329 222.539 22.4451 223.681 22.4451C225.403 22.4451 226.339 21.8458 226.339 19.8992V19.2625C225.628 19.8428 224.654 20.2176 223.418 20.2176C220.124 20.2173 217.522 17.7462 217.522 13.7781L217.56 13.7586C217.56 9.79023 220.162 7.31914 223.456 7.31914ZM278.566 2.60234C283.246 2.60234 285.905 5.42846 286.073 8.66679C286.111 9.32187 285.718 9.67839 285.063 9.67851H283.565C282.91 9.67846 282.61 9.32242 282.517 8.81718C282.236 7.1137 280.962 6.02812 278.585 6.02812C275.758 6.02823 273.699 7.95602 273.699 11.7186C273.699 15.481 275.758 17.4089 278.585 17.409V17.3719C280.962 17.3719 282.236 16.2675 282.517 14.5828C282.61 14.0587 282.909 13.7215 283.565 13.7215H285.063C285.718 13.7216 286.111 14.0772 286.073 14.7322C285.905 17.9707 283.246 20.7977 278.566 20.7977C273.606 20.7976 270.124 17.3344 270.124 11.7C270.124 6.06542 273.606 2.60237 278.566 2.60234ZM168.776 7.30058C172.333 7.30078 175.084 9.88425 175.084 14.0398C175.084 18.1953 172.333 20.7789 168.776 20.7791C165.22 20.7791 162.468 18.1955 162.468 14.0398C162.468 9.88409 165.22 7.30058 168.776 7.30058ZM210.521 7.30058C214.021 7.30058 216.474 9.73438 216.474 13.5906V13.9832C216.474 14.7506 216.118 15.1062 215.463 15.1062H207.807C208.144 16.9408 209.285 17.6902 210.708 17.6902C211.981 17.6902 212.505 17.1468 212.805 16.5291C212.992 16.1363 213.216 15.8935 213.759 15.8934H215.069C215.743 15.8934 216.117 16.211 216.08 16.866C215.893 18.8129 214.04 20.7596 210.764 20.7596C206.87 20.7594 204.343 18.0832 204.343 13.909H204.324C204.324 9.71585 207.02 7.30065 210.521 7.30058ZM293.486 7.30058C296.987 7.30075 299.439 9.73452 299.439 13.5906V13.9832C299.439 14.7507 299.083 15.1062 298.428 15.1062H290.772C291.108 16.9406 292.25 17.6901 293.673 17.6902C294.946 17.6902 295.47 17.1468 295.77 16.5291C295.957 16.1361 296.182 15.8934 296.725 15.8934H298.035C298.709 15.8935 299.083 16.2112 299.046 16.866C298.859 18.8128 297.005 20.7595 293.73 20.7596C289.836 20.7596 287.309 18.0833 287.309 13.909H287.29C287.29 9.71579 289.986 7.30058 293.486 7.30058ZM336.99 7.30058C340.491 7.30058 342.943 9.73438 342.943 13.5906V13.9832C342.943 14.7506 342.588 15.1061 341.933 15.1062H334.276C334.613 16.9408 335.755 17.6902 337.178 17.6902C338.451 17.6902 338.975 17.1468 339.274 16.5291C339.462 16.1363 339.686 15.8934 340.229 15.8934H341.539C342.213 15.8934 342.587 16.211 342.55 16.866C342.363 18.8129 340.509 20.7596 337.233 20.7596C333.34 20.7595 330.813 18.0832 330.813 13.909H330.794C330.794 9.71582 333.49 7.30062 336.99 7.30058ZM243.374 7.26347C247.361 7.26364 248.671 9.30361 248.671 11.7557V16.3797C248.671 17.2782 248.728 18.4575 248.821 19.3748C248.896 20.03 248.521 20.4607 247.866 20.4607H246.649C246.107 20.4607 245.751 20.1611 245.657 19.6746C245.002 20.2548 244.029 20.7039 242.55 20.7039C239.761 20.7039 237.533 19.0566 237.533 16.3611C237.533 13.9089 239.349 12.8417 241.895 12.7293L245.04 12.5799C245.208 12.5798 245.283 12.5232 245.302 12.4109V11.9246C245.302 10.8577 244.74 10.3144 243.374 10.3143C242.008 10.3143 241.52 10.8389 241.445 11.4754C241.389 11.9619 241.183 12.2615 240.528 12.2615H239.087C238.469 12.2615 238.057 11.9057 238.038 11.2693C237.982 9.37865 239.387 7.26347 243.374 7.26347ZM257.282 7.33769C260.296 7.33771 262.225 9.41582 262.225 12.6541L262.205 12.617V19.4686C262.205 20.1236 261.85 20.4793 261.194 20.4793H259.847C259.192 20.4793 258.836 20.1236 258.836 19.4686V13.0105C258.836 11.4381 258.125 10.5574 256.627 10.5574C255.129 10.5574 254.343 11.4943 254.343 13.1228V19.4871C254.343 20.1423 253.987 20.4978 253.332 20.4978H251.984C251.329 20.4978 250.974 20.1422 250.974 19.4871V8.64824C250.974 7.99325 251.329 7.63756 251.984 7.6375H253.276C253.819 7.63755 254.156 7.88083 254.269 8.32988C254.999 7.73099 255.991 7.33769 257.282 7.33769ZM307.507 7.33769C310.521 7.33769 312.449 9.41581 312.449 12.6541L312.431 12.617V19.4686C312.431 20.1236 312.074 20.4793 311.419 20.4793H310.071C309.416 20.4792 309.061 20.1235 309.061 19.4686V13.0105C309.061 11.4381 308.349 10.5574 306.852 10.5574C305.354 10.5575 304.568 11.4943 304.568 13.1228V19.4871C304.568 20.1421 304.213 20.4977 303.558 20.4978H302.209C301.554 20.4977 301.198 20.1422 301.198 19.4871V8.64824C301.198 7.9933 301.554 7.63762 302.209 7.6375H303.501C304.044 7.6375 304.381 7.88081 304.493 8.32988C305.223 7.73097 306.215 7.33772 307.507 7.33769ZM149.214 2.86406C149.775 2.86406 150.131 3.08849 150.412 3.575L156.889 15.1629L156.795 12.5232V3.8748C156.795 3.21971 157.152 2.86406 157.807 2.86406H159.285C159.94 2.86408 160.296 3.21973 160.296 3.8748V19.4686C160.296 20.1236 159.94 20.4793 159.285 20.4793H156.87C156.309 20.4792 155.934 20.2549 155.672 19.7684L148.914 7.67461L149.008 10.6893V19.4686C149.008 20.1236 148.652 20.4793 147.997 20.4793H146.519C145.863 20.4793 145.508 20.1236 145.508 19.4686V3.8748C145.508 3.21971 145.863 2.86406 146.519 2.86406H149.214ZM187.383 7.60039C187.907 7.60039 188.282 7.88109 188.432 8.38652L190.359 15.2752L190.435 15.5184L190.51 15.2752L192.494 8.38652C192.644 7.88109 193.018 7.60039 193.523 7.60039H195.377C195.901 7.60054 196.275 7.88123 196.406 8.38652L198.391 15.2752L198.465 15.5184L198.54 15.2752L200.468 8.38652C200.618 7.88109 200.974 7.60039 201.498 7.60039H202.771C203.238 7.60039 203.576 7.76849 203.744 8.10527C203.894 8.38606 203.894 8.68596 203.781 9.06035L200.618 19.7117C200.469 20.1983 200.113 20.4791 199.589 20.4793H197.511C196.987 20.4793 196.613 20.1984 196.482 19.6932L194.702 13.4969L194.459 12.4676L194.216 13.4969L192.438 19.6932C192.288 20.1984 191.914 20.4792 191.408 20.4793H189.33C188.825 20.4793 188.432 20.1984 188.301 19.7117H188.263L185.1 9.06035C184.987 8.68596 185.006 8.38606 185.137 8.10527C185.305 7.76844 185.643 7.60039 186.11 7.60039H187.383ZM179.24 7.60039C179.821 7.6004 180.158 7.86239 180.232 8.38652C180.832 7.89981 181.599 7.60039 182.572 7.60039H183.658C184.313 7.60046 184.669 7.95601 184.669 8.61113V9.86504C184.669 10.5202 184.313 10.8757 183.658 10.8758H182.909C180.925 10.8758 180.308 11.5504 180.308 13.6844V19.45C180.308 20.105 179.951 20.4607 179.296 20.4607H177.948C177.293 20.4606 176.938 20.1049 176.938 19.45V8.61113C176.938 7.95604 177.293 7.60049 177.948 7.60039H179.24ZM234.575 7.60039C235.23 7.60039 235.586 7.95594 235.586 8.61113V19.45C235.586 20.105 235.23 20.4607 234.575 20.4607H233.228C232.573 20.4607 232.217 20.105 232.217 19.45V8.61113C232.217 7.95594 232.572 7.60039 233.228 7.60039H234.575ZM317.166 4.00566C317.821 4.00566 318.177 4.3615 318.177 5.0164V7.60039H320.405C321.06 7.60056 321.416 7.9561 321.416 8.61113V9.88359C321.416 10.5386 321.06 10.8942 320.405 10.8943H318.177V17.2967H320.236C320.891 17.2967 321.247 17.6525 321.247 18.3074V19.45C321.247 20.105 320.891 20.4607 320.236 20.4607H317.429C315.707 20.4607 314.808 19.5618 314.808 17.8396V5.0164C314.808 4.36155 315.163 4.00571 315.818 4.00566H317.166ZM325.178 7.60039C325.758 7.60039 326.095 7.86237 326.17 8.38652C326.769 7.89981 327.537 7.60039 328.511 7.60039H329.596C330.251 7.60039 330.607 7.95594 330.607 8.61113V9.86504C330.607 10.5202 330.251 10.8758 329.596 10.8758H328.848C326.863 10.8758 326.245 11.5503 326.245 13.6844V19.45C326.245 20.105 325.889 20.4607 325.234 20.4607H323.887C323.232 20.4607 322.876 20.105 322.876 19.45V8.61113C322.876 7.95594 323.232 7.60039 323.887 7.60039H325.178ZM245.302 15.0691C245.077 15.1253 244.815 15.1626 244.534 15.2L242.587 15.3318C241.445 15.4068 240.959 15.7435 240.959 16.4734C240.959 17.3719 241.802 17.9334 242.943 17.9334V17.9148C244.254 17.9147 245.302 17.2594 245.302 15.4812V15.0691ZM168.795 10.5203C167.223 10.5203 165.912 11.6437 165.912 14.0398C165.912 16.4359 167.241 17.5594 168.795 17.5594C170.349 17.5593 171.678 16.4357 171.678 14.0398C171.678 11.6439 170.367 10.5204 168.795 10.5203ZM223.736 10.4832C222.258 10.4834 221.004 11.5314 221.004 13.7586C221.004 15.986 222.258 17.0162 223.736 17.0164C225.215 17.0164 226.488 15.9675 226.488 13.7586C226.488 11.5499 225.215 10.4832 223.736 10.4832ZM210.521 10.2586C209.173 10.2586 208.237 11.007 207.862 12.448H213.066C212.804 11.1005 211.962 10.2586 210.521 10.2586ZM293.486 10.2586C292.139 10.2586 291.203 11.007 290.828 12.448H296.032C295.77 11.1006 294.927 10.2587 293.486 10.2586ZM336.99 10.2586C335.643 10.2586 334.707 11.0069 334.332 12.448H339.536C339.274 11.1005 338.432 10.2586 336.99 10.2586ZM234.818 2.86406C235.474 2.86406 235.829 3.21971 235.829 3.8748V5.5789C235.829 6.23379 235.473 6.58965 234.818 6.58965H233.04C232.385 6.58954 232.03 6.2337 232.029 5.5789V3.8748C232.029 3.21981 232.385 2.86416 233.04 2.86406H234.818Z" fill="black"/>
</svg>
