<?xml version="1.0" encoding="UTF-8"?>
<svg id="Layer_1" xmlns="http://www.w3.org/2000/svg" version="1.1" viewBox="0 0 427.85742 164.52475">
  <!-- Generator: Adobe Illustrator 30.1.0, SVG Export Plug-In . SVG Version: 2.1.1 Build 136)  -->
  <defs>
    <style>
      .st0 {
        fill: #fff;
      }
    </style>
  </defs>
  <path class="st0" d="M54.60819,40.07666c35.54752.00026,49.43136,18.37635,49.43136,41.46502v42.27589c0,8.11521.4253,18.70865,1.33097,26.91633.72096,6.78423-3.53174,11.68384-10.40821,11.6841h-11.16631c-4.52888,0-8.06038-2.29404-9.7426-5.91699-6.10043,4.62138-14.78927,8.02373-27.06391,8.02373-26.28594-.00051-46.98885-15.93473-46.9895-41.1299,0-22.75587,16.69187-33.16382,40.94467-34.01441l26.954-1.09091c1.20107-.05534,1.86592-.38891,2.10649-1.09066v-3.19765c0-8.87331-4.52914-13.31047-15.5097-13.31047-10.9798.00025-14.93632,4.2509-15.75002,10.1105-.66536,4.62137-2.95683,7.87591-10.11025,7.87617h-12.88527c-6.58099,0-11.0184-4.10436-11.16631-10.88859-.42517-18.41196,13.88326-37.69193,50.00434-37.69219l.02024-.01998ZM144.07856,42.7386c7.15392,0,10.98107,3.8274,10.98133,10.98133v97.71699c-.00025,7.15393-3.82714,10.98108-10.98133,10.98108h-12.21956c-7.15368-.00025-10.98108-3.8274-10.98108-10.98108V53.71993c0-7.15367,3.8274-10.98108,10.98108-10.98133h12.21956ZM348.21957,0c47.52803.00019,79.63784,33.16433,79.63784,81.20913s-32.10981,81.20888-79.63784,81.20888h-49.52386c-7.15316,0-10.98081-3.82715-10.98081-10.98108V10.98115c0-7.15406,3.80716-10.98115,10.98081-10.98115h49.52386ZM70.02515,113.42936c-1.90409.4253-4.10513.75784-6.39737.90593l-16.50812,1.14574c-8.72496.57313-12.55236,3.29142-12.55236,8.92967l.01998.64051c.40326,6.73042,6.99713,10.8932,15.91502,10.89345,11.31337,0,19.52285-5.67488,19.52285-20.22331v-2.29198ZM198.88939,98.64035c7.17238,0,10.98108,3.82715,10.98108,10.98108v15.26964c0,7.15392-3.82714,10.98107-10.98108,10.98107h-16.02774c-7.15341-.00025-10.98108-3.8274-10.98108-10.98107v-15.26964c0-7.17212,3.82767-10.98083,10.98108-10.98108h16.02774ZM259.89136,98.64035c7.15572,0,10.98337,3.82715,10.98337,10.98108v15.26964c0,7.15392-3.82765,10.98107-10.98337,10.98107h-16.02647c-7.15341-.00051-10.97878-3.8274-10.97878-10.98107v-15.26964c0-7.17212,3.82536-10.98083,10.97878-10.98108h16.02647ZM323.02211,128.34877h21.24169c28.63317-.00025,47.91494-16.23168,47.91494-47.13964,0-30.92666-19.27923-47.13938-47.91494-47.13964h-21.24169v94.27928ZM229.39102,42.75884c7.15341,0,10.98055,3.82535,10.98106,10.97851v15.26964c0,7.17238-3.82714,10.98107-10.98106,10.98107h-16.02776c-7.15341-.00025-10.97876-3.8274-10.97876-10.98107v-15.26964c.00051-7.15291,3.82585-10.97826,10.97876-10.97851h16.02776ZM146.13022,0c7.15418,0,10.98107,3.80862,10.98107,10.98115v15.26957c-.00025,7.15367-3.8087,10.98107-10.98107,10.98107h-16.02775c-7.15316-.00026-10.97826-3.82766-10.97851-10.98107v-15.26957C119.12396,3.8274,122.93061.00031,130.10247,0h16.02775Z"/>
</svg>