<svg width="84" height="32" viewBox="0 0 84 32" fill="none" xmlns="http://www.w3.org/2000/svg">
<path d="M10.6211 7.79492C17.535 7.79494 20.2352 11.3688 20.2354 15.8594V24.083C20.2354 25.6613 20.318 27.7211 20.4941 29.3174C20.6344 30.6369 19.8073 31.5898 18.4697 31.5898H16.2988C15.4179 31.5898 14.7305 31.1442 14.4033 30.4395C13.2168 31.3383 11.527 32 9.13965 32C4.02686 32 0 28.9007 0 24C5.12915e-06 19.574 3.2466 17.5492 7.96387 17.3838L13.2061 17.1719C13.4398 17.1611 13.5695 17.0966 13.6162 16.96V16.3379C13.6162 14.6121 12.7352 13.7491 10.5996 13.749C8.46397 13.749 7.69438 14.5761 7.53613 15.7158C7.40669 16.6147 6.9608 17.248 5.56934 17.248H3.06348C1.78348 17.248 0.920366 16.4494 0.891602 15.1299C0.808911 11.5488 3.59176 7.79892 10.6172 7.79883L10.6211 7.79492ZM28.0234 8.3125C29.4147 8.31256 30.1591 9.05703 30.1592 10.4482V29.4541C30.1592 30.8455 29.4148 31.5898 28.0234 31.5898H25.6465C24.2551 31.5898 23.5107 30.8455 23.5107 29.4541V10.4482C23.5108 9.05703 24.2552 8.31256 25.6465 8.3125H28.0234ZM67.7285 0C76.9725 9.17439e-06 83.2177 6.45028 83.2178 15.7949C83.2178 25.1396 76.9726 31.5898 67.7285 31.5898H58.0957C56.7045 31.5897 55.96 30.8454 55.96 29.4541V2.13574C55.96 0.744423 56.7009 0.000152629 58.0957 0H67.7285ZM13.6201 22.0625C13.2499 22.1452 12.8217 22.2095 12.376 22.2383L9.16504 22.4609C7.46796 22.5724 6.72363 23.1016 6.72363 24.1982L6.72754 24.3223C6.80592 25.6315 8.08858 26.4414 9.82324 26.4414C12.0235 26.4413 13.6201 25.3373 13.6201 22.5078V22.0625ZM38.6836 19.1855C40.0786 19.1855 40.8193 19.9299 40.8193 21.3213V24.291C40.8193 25.6825 40.0751 26.4268 38.6836 26.4268H35.5664C34.1751 26.4267 33.4307 25.6824 33.4307 24.291V21.3213C33.4307 19.9264 34.1751 19.1856 35.5664 19.1855H38.6836ZM50.5488 19.1855C51.9403 19.1855 52.6845 19.9299 52.6846 21.3213V24.291C52.6846 25.6825 51.9403 26.4268 50.5488 26.4268H47.4316C46.0403 26.4267 45.2959 25.6824 45.2959 24.291V21.3213C45.2959 19.9263 46.0403 19.1856 47.4316 19.1855H50.5488ZM62.8281 24.9639H66.959C72.5284 24.9639 76.2783 21.8066 76.2783 15.7949C76.2783 9.77973 72.5284 6.62695 66.959 6.62695H62.8281V24.9639ZM44.6162 8.31641C46.0077 8.31641 46.752 9.06069 46.752 10.4521V13.4219C46.752 14.8169 46.0077 15.5576 44.6162 15.5576H41.499C40.1077 15.5575 39.3633 14.8133 39.3633 13.4219V10.4521C39.3633 9.06076 40.1077 8.31649 41.499 8.31641H44.6162ZM28.4229 0C29.814 0.000165476 30.5586 0.740841 30.5586 2.13574V5.10547C30.5586 6.49678 29.8176 7.24104 28.4229 7.24121H25.3047C23.9135 7.24107 23.1689 6.4968 23.1689 5.10547V2.13574C23.1689 0.744411 23.9099 0.000139741 25.3047 0H28.4229Z" fill="black"/>
</svg>
