<?xml version="1.0" encoding="UTF-8"?>
<svg id="Layer_1" xmlns="http://www.w3.org/2000/svg" version="1.1" viewBox="0 0 662.70425 94.91067">
  <!-- Generator: Adobe Illustrator 30.1.0, SVG Export Plug-In . SVG Version: 2.1.1 Build 136)  -->
  <defs>
    <style>
      .st0 {
        fill: #fff;
      }
    </style>
  </defs>
  <path class="st0" d="M31.48358,23.13258c20.5026.00038,28.49731,10.58994,28.49731,23.91502v24.37458c0,4.6903.24942,10.80274.78225,15.52852.42653,3.9088-2.02615,6.75138-6.00595,6.75138h-6.43058c-2.62959,0-4.65556-1.31433-5.61492-3.4109-3.51777,2.6651-8.5281,4.61949-15.59914,4.61949-15.17293,0-27.11256-9.20367-27.11256-23.73697.00024-13.11153,9.62954-19.11671,23.62934-19.61424l15.56402-.63951c.67501,0,1.06642-.21317,1.2086-.63951v-1.84829c-.00019-5.11664-2.63055-7.67429-8.95539-7.67429-6.32409.00019-8.59853,2.45097-9.09624,5.82619-.39084,2.66509-1.70611,4.54907-5.82808,4.54907h-7.42602c-3.80191-.00019-6.35951-2.38112-6.43056-6.28973-.24863-10.62449,7.99501-21.74593,28.85322-21.74593l-.03531.03512ZM83.07835,24.66007c4.12159.00019,6.32465,2.20345,6.32484,6.32485v56.357c0,4.12178-2.20306,6.32485-6.32484,6.32485h-7.03668c-4.12159-.00019-6.32504-2.20326-6.32504-6.32485V30.98492c.00019-4.12121,2.20364-6.32466,6.32504-6.32485h7.03668ZM200.83667,0c27.39691,0,45.94624,19.11805,45.94624,46.83443s-18.51517,46.83234-45.94624,46.83234h-28.56831c-4.12178,0-6.32485-2.20288-6.32485-6.32485V6.3249c0-4.12186,2.20306-6.3249,6.32485-6.3249h28.56831ZM40.40195,65.41794c-1.10154.24867-2.38169.42539-3.69639.53207l-9.52258.67653c-5.03786.31927-7.2413,1.8779-7.24795,5.13675.01291,4.07414,3.88109,6.62496,9.20178,6.62514,6.53821,0,11.26514-3.27024,11.26514-11.65617v-1.31433ZM114.70296,56.88889c4.12159,0,6.32446,2.20364,6.32485,6.32504v8.81246c0,4.12197-2.20306,6.32504-6.32485,6.32504h-9.23898c-4.12178-.0002-6.32504-2.20326-6.32504-6.32504v-8.81246c.00038-4.1214,2.20364-6.32484,6.32504-6.32504h9.23898ZM149.88103,56.88889c4.1216,0,6.32466,2.20364,6.32485,6.32504v8.81246c0,4.12197-2.20288,6.32504-6.32485,6.32504h-9.23899c-4.12158-.00038-6.32483-2.20326-6.32483-6.32504v-8.81246c.00019-4.12121,2.20363-6.32466,6.32483-6.32504h9.23899ZM186.26769,74.01741h12.25885c16.52205,0,27.64559-9.34566,27.64559-27.18298s-11.12163-27.18488-27.64559-27.18488h-12.25885v54.36787ZM132.29294,24.66007c4.12122.00019,6.32466,2.20363,6.32485,6.32485v8.81264c0,4.12178-2.20344,6.32466-6.32485,6.32504h-9.23897c-4.12197,0-6.32504-2.20306-6.32504-6.32504v-8.81264c.0002-4.12159,2.20326-6.32485,6.32504-6.32485h9.23897ZM84.24992,0c4.12178,0,6.32485,2.20305,6.32485,6.3249v8.81261c0,4.12176-2.20307,6.32483-6.32485,6.32483h-9.23898c-4.12121-.00019-6.32485-2.20326-6.32485-6.32483V6.3249C68.68609,2.20337,70.88973.00033,75.01094,0h9.23898Z"/>
  <path class="st0" d="M566.58634,63.28567c6.78799.00038,10.12886,3.76738,10.09277,7.49832,0,1.17215-.82004,1.8464-1.95516,1.8464h-2.5246c-1.24147-.00019-1.77674-.60439-1.88304-1.2439-.2126-1.45631-1.2073-2.45059-3.8021-2.45059-2.23802.00019-3.40923.8168-3.41114,2.2023,0,1.13704.6758,1.52863,2.23994,1.8128l3.8021.60439c4.6905.71069,7.67448,2.5586,7.67448,7.14241,0,4.22827-2.80747,8.17313-10.33955,8.17313-7.534-.00019-10.40982-4.01605-10.23331-7.71149l-.1063-.07042c.03418-1.13722.81813-1.84829,1.98934-1.84829h2.55883c1.27936.00019,1.77668.67463,1.88298,1.59792.17848,1.3147,1.2073,2.23913,3.94264,2.23932,2.7372,0,3.8021-.88798,3.8021-2.167,0-1.03035-.60177-1.49314-2.48474-1.81299l-3.76798-.60421c-4.76071-.74618-7.4277-2.98437-7.4277-7.24813s3.16431-7.95997,9.95044-7.95997ZM652.47291,63.28567c6.78608.00019,10.12695,3.76738,10.09086,7.49832,0,1.17196-.81813,1.84601-1.95325,1.8464h-2.52274c-1.24518,0-1.77668-.60421-1.88489-1.2439-.2126-1.45631-1.20915-2.45041-3.80216-2.45059-2.23797,0-3.41108.8168-3.41108,2.2023,0,1.13704.6758,1.52863,2.23802,1.8128l3.8021.60439c4.6905.71069,7.67448,2.5586,7.67448,7.14241,0,4.22827-2.80747,8.17313-10.33955,8.17313-7.53214-.00019-10.40982-4.01624-10.23325-7.71149l-.1063-.07042c.03412-1.13722.81813-1.84829,1.98928-1.84829h2.55883c1.27936.00019,1.77674.67444,1.88304,1.59792.17842,1.3147,1.20915,2.23932,3.94444,2.23932,2.73534-.00019,3.80216-.88817,3.80216-2.167,0-1.03035-.60362-1.49314-2.48665-1.81299l-3.76798-.60421c-4.76071-.74618-7.42579-2.98437-7.42579-7.24813s3.1624-7.95997,9.95044-7.95997ZM286.29615,63.25056c6.75193.00038,11.97393,4.90442,11.97393,12.79244s-5.222,12.79036-11.97393,12.79073c-6.75005,0-11.97393-4.90251-11.97393-12.79073s5.22388-12.79244,11.97393-12.79244ZM419.15588,63.25056c6.75196,0,11.97584,4.90403,11.97584,12.79244s-5.22388,12.79073-11.97584,12.79073c-6.75005,0-11.97393-4.90251-11.97393-12.79073s5.22388-12.79244,11.97393-12.79244ZM507.20832,63.28567c6.64566,0,11.30007,4.61987,11.30007,11.93995v.74524c0,1.45688-.67389,2.1317-1.91721,2.1317h-14.53459c.63965,3.48227,2.80741,4.90479,5.50857,4.90498,2.41645,0,3.41108-1.03149,3.97867-2.20402.35684-.74619.78395-1.20878,1.81277-1.20878h2.48857c1.27751.00038,1.98934.60515,1.91913,1.84829-.35499,3.69525-3.87428,7.3905-10.09283,7.39069-7.38975,0-12.1865-5.08019-12.18841-13.0039h-.03418c0-7.95921,5.1157-12.54359,11.75945-12.54416ZM601.9083,63.25056c6.75005.00038,11.97199,4.90442,11.97199,12.79244s-5.22194,12.79036-11.97199,12.79073c-6.75196,0-11.97587-4.90251-11.97587-12.79073s5.22391-12.79244,11.97587-12.79244ZM532.65196,63.21525c6.43115,0,10.37564,3.69468,10.48194,8.31398.03609,1.24371-.70992,1.88341-1.95325,1.88341h-2.66699c-1.34963-.00019-1.70462-.67443-1.847-1.59791-.24863-1.42139-1.56408-2.55993-4.0147-2.55993-3.26869.00019-5.61302,2.16833-5.61493,6.71607,0,4.54831,2.34624,6.71588,5.4726,6.71588l.03603.07232c2.55878,0,3.83819-1.06717,4.15709-2.59524.17842-.88798.60553-1.56261,1.91913-1.56261h2.59295c1.24333,0,1.98928.63969,1.95516,1.88341-.10821,4.61911-4.2653,8.31399-10.59015,8.31399-7.14107,0-12.04417-4.83304-12.04417-12.79264,0-7.95883,4.97331-12.79035,12.11629-12.79072ZM313.79936,63.32098c5.71932,0,9.38097,3.94449,9.38097,10.09166l-.03609-.07042v13.0058c0,1.24276-.67574,1.91814-1.91719,1.91852h-2.56069c-1.24333-.0002-1.9191-.67557-1.9191-1.91852v-12.26056c0-2.98456-1.34963-4.6548-4.19315-4.6548-2.84161.00038-4.33363,1.77711-4.33363,4.86797v12.08251c0,1.24314-.67574,1.91834-1.91907,1.91871h-2.55881c-1.24333-.00038-1.9191-.67557-1.9191-1.91871v-20.57454c0-1.24333.67577-1.91815,1.9191-1.91852h2.45251c1.03073,0,1.67041.46164,1.88301,1.31432,1.38572-1.13703,3.26872-1.88322,5.72123-1.88341ZM476.29591,54.82913c9.8062.00038,16.37968,6.82199,16.37968,16.73541s-6.60766,16.73674-16.37968,16.7373v-.0353h-10.44776c-1.24333,0-1.91719-.67539-1.9191-1.91852v-29.60036c0-1.24371.67577-1.91852,1.9191-1.91852h10.44776ZM629.40957,63.32098c5.72123,0,9.381,3.94449,9.38291,10.09166l-.03609-.07042v13.0058c0,1.24276-.67574,1.91814-1.91907,1.91852h-2.55883c-1.24333-.0002-1.91907-.67557-1.91907-1.91852v-12.26056c0-2.98456-1.35154-4.6548-4.19318-4.6548-2.84159.00038-4.3336,1.77711-4.3336,4.86797v12.08251c0,1.24314-.67574,1.91834-1.91907,1.91871h-2.56069c-1.24333-.00038-1.91721-.67557-1.91721-1.91871v-20.57454c0-1.24333.67389-1.91815,1.91721-1.91852h2.45248c1.03073,0,1.67044.46164,1.88304,1.31432,1.38566-1.13703,3.27061-1.88322,5.72117-1.88341ZM375.84055,54.82913c1.24333,0,1.9191.67482,1.9191,1.91852v29.60036c0,1.24314-.67577,1.91852-1.9191,1.91852h-2.80555c-1.24333,0-1.9191-.67539-1.9191-1.91852v-29.60036c0-1.24371.67389-1.91852,1.9191-1.91852h2.80555ZM355.12535,54.79383c1.10097.00019,1.74068.42634,2.09752,1.49219h-.07403l10.83881,29.13701c.24866.7105.24866,1.31508,0,1.8481-.3189.63951-.95861.96012-1.84698.96012h-2.55878c-1.10097,0-1.8128-.49867-2.20382-1.52921l-2.41453-6.60863h-13.11287l-2.41642,6.60863c-.39105,1.03035-1.10097,1.52921-2.20193,1.52921h-2.55878c-.88837,0-1.52808-.3563-1.84889-.96012-.28281-.56851-.28281-1.1731,0-1.8481l10.80275-29.13701c.39102-1.03035,1.03073-1.49219,2.09564-1.49219h5.4023ZM399.36511,54.82913h5.79144c1.24333.00019,1.9191.67519,1.9191,1.91852v2.09658c0,1.24314-.67577,1.91833-1.9191,1.91853h-4.40575v3.05688h4.01473c1.24333.00019,1.9191.6752,1.9191,1.91852v2.38017c0,1.24352-.67577,1.91852-1.9191,1.91871h-4.01473v16.27376c0,1.2437-.67574,1.92042-1.92098,1.92042h-2.55689c-1.24333-.0002-1.9191-.67691-1.9191-1.92042v-26.86219c0-3.02044,1.95516-4.6548,5.01128-4.6548v.03531ZM438.98461,63.81774c1.10097,0,1.74068.49923,1.88304,1.49409,1.13703-.92368,2.59487-1.4939,4.44181-1.49409h2.06146c1.24336,0,1.91721.67691,1.91721,1.92042v2.38017c0,1.2437-.67386,1.91871-1.91721,1.91871h-1.42175c-3.76604.00019-4.93916,1.2794-4.93916,5.32942v10.94434c0,1.24352-.67574,1.92042-1.9191,1.92042h-2.55689c-1.24333,0-1.92098-.67672-1.92098-1.92042v-20.57265c0-1.24352.67765-1.92042,1.92098-1.92042h2.45059ZM550.73816,63.81774c1.24333,0,1.91907.67691,1.91907,1.92042v20.57265c0,1.2437-.67574,1.92042-1.91907,1.92042h-2.55883c-1.24333,0-1.91907-.67691-1.91907-1.92042v-20.57265c0-1.24352.67574-1.92023,1.91907-1.92042h2.55883ZM584.53201,63.81774c1.24333,0,1.91721.67691,1.91721,1.92042v20.57265c0,1.2437-.67389,1.92042-1.91721,1.92042h-2.55878c-1.24333,0-1.91907-.67672-1.91907-1.92042v-20.57265c0-1.24352.67574-1.92042,1.91907-1.92042h2.55878ZM286.33221,69.36223c-2.98589,0-5.47254,2.13246-5.47254,6.68076,0,4.54793,2.52272,6.67905,5.47254,6.67905,2.94791-.00019,5.47254-2.13131,5.47254-6.67905s-2.48857-6.68057-5.47254-6.68076ZM419.15588,69.36223c-2.98397,0-5.47063,2.13264-5.47063,6.68076s2.52272,6.67905,5.47063,6.67905c2.94983,0,5.47257-2.13112,5.47257-6.67905,0-4.54831-2.48665-6.68076-5.47257-6.68076ZM601.9083,69.36223c-2.98589,0-5.47254,2.13246-5.47254,6.68076,0,4.54793,2.52269,6.67905,5.47254,6.67905,2.94788-.00038,5.47254-2.1315,5.47254-6.67905s-2.48857-6.68038-5.47254-6.68076ZM470.61077,81.83407h4.79489c6.32485,0,10.518-3.65995,10.518-10.30483s-4.19315-10.30483-10.518-10.30483h-4.79489v20.60966ZM348.08868,73.83898h8.52867l-4.26339-11.61916-4.26527,11.61916ZM507.20832,68.86357c-2.55692.00038-4.3336,1.42252-5.04358,4.15804h9.87641c-.49732-2.55823-2.09749-4.15804-4.83283-4.15804ZM551.16336,54.82913c1.24524,0,1.91907.67482,1.91907,1.91852v3.23285c0,1.24371-.67383,1.91871-1.91907,1.91871h-3.37505c-1.24333-.00019-1.91907-.67519-1.91907-1.91871v-3.23285c0-1.24352.67574-1.91833,1.91907-1.91852h3.37505ZM584.95721,54.82913c1.24333,0,1.91913.67482,1.91913,1.91852v3.23285c0,1.24371-.6758,1.91871-1.91913,1.91871h-3.37499c-1.24333,0-1.91913-.675-1.91913-1.91871v-3.23285c0-1.24371.6758-1.91852,1.91913-1.91852h3.37499ZM424.16716,13.89329c2.41645.00006,4.29945.74757,5.68517,1.95567.17842-.92388.81813-1.38659,1.88301-1.38659h2.45059c1.24524,0,1.92101.67501,1.92101,1.9186v21.57001c0,6.89298-4.19315,10.55312-11.51267,10.55312-6.75196,0-10.27122-3.37654-10.23516-7.67618,0-1.17234.78395-1.95383,1.95516-1.95383h2.59487c1.13703.00019,1.70459.60401,1.88301,1.49219.24869,1.45688,1.63438,2.23932,3.80213,2.23932,3.26872,0,5.04546-1.1376,5.04546-4.83266v-1.20859c-1.34963,1.10153-3.19848,1.81298-5.54469,1.81298-6.25273-.00057-11.19186-4.69124-11.19186-12.22354l.07212-.03701c0-7.53281,4.93916-12.22347,11.19186-12.22347ZM528.77773,4.9398c8.88362,0,13.93097,5.36458,14.24987,11.51162.07212,1.24348-.67389,1.92023-1.91721,1.92046h-2.8435c-1.24333-.00009-1.81283-.67593-1.98934-1.63499-.53341-3.23357-2.95171-5.29423-7.46379-5.29423-5.36624.00021-9.27464,3.65957-9.27464,10.80175s3.9084,10.8014,9.27464,10.80159v-.07042c4.51208,0,6.93038-2.09639,7.46379-5.29431.17651-.99485.7441-1.63493,1.98934-1.63493h2.8435c1.24333.00019,1.98934.67519,1.91721,1.91852-.3189,6.14736-5.36624,11.51362-14.24987,11.51362-9.41518-.00019-16.02475-6.57408-16.02475-17.26938s6.60957-17.26924,16.02475-17.2693ZM320.37287,13.85806c6.75193.00038,11.97393,4.90436,11.97393,12.79248s-5.222,12.79225-11.97393,12.79263c-6.75005,0-11.97393-4.90423-11.97393-12.79263s5.22388-12.79248,11.97393-12.79248ZM399.61377,13.85806c6.64375,0,11.30007,4.61987,11.30007,11.9398v.74524c0,1.45669-.67577,2.13169-1.9191,2.13169h-14.5327c.63968,3.48246,2.80555,4.90498,5.50669,4.90498,2.41645,0,3.41111-1.03149,3.98055-2.20402.35499-.74562.78019-1.2065,1.81091-1.20669h2.48665c1.27939,0,1.98934.60287,1.9191,1.8462-.35496,3.69563-3.87237,7.39088-10.09089,7.39088-7.39167-.00038-12.18844-5.08038-12.18844-13.0039h-.03606c0-7.95949,5.11758-12.54406,11.76321-12.54419ZM557.09904,13.85806c6.64566.00032,11.30007,4.62014,11.30007,11.9398v.74524c0,1.45688-.67574,2.13169-1.91907,2.13169h-14.53273c.6378,3.48208,2.80555,4.90479,5.50672,4.90498,2.41645,0,3.41108-1.03149,3.98052-2.20402.35499-.746.7821-1.20669,1.81283-1.20669h2.48665c1.27942.00019,1.98934.60325,1.91907,1.8462-.35493,3.69544-3.87423,7.3907-10.09086,7.39088-7.39167,0-12.18847-5.08019-12.18847-13.0039h-.03603c0-7.95961,5.11755-12.54419,11.7613-12.54419ZM639.67891,13.85806c6.64566,0,11.30007,4.61987,11.30007,11.9398v.74524c0,1.45669-.67383,2.1315-1.91716,2.13169h-14.53464c.63971,3.48246,2.80747,4.90498,5.50863,4.90498,2.41639,0,3.41108-1.03149,3.97861-2.20402.3569-.74562.7821-1.20669,1.81283-1.20669h2.48665c1.27942,0,1.98934.60287,1.91907,1.8462-.35493,3.69563-3.87423,7.39088-10.09277,7.39088-7.38975-.00019-12.18656-5.08038-12.18656-13.0039h-.03603c0-7.95955,5.11755-12.54412,11.7613-12.54419ZM461.97577,13.78762c7.56818.00032,10.05486,3.87262,10.05486,8.52721v8.77734c0,1.70555.10818,3.94411.28472,5.68534.14236,1.24371-.56947,2.06127-1.8128,2.06127h-2.31012c-1.02885,0-1.70459-.5687-1.88304-1.49218-1.24333,1.10134-3.09027,1.95383-5.89774,1.95383-5.29412,0-9.52333-3.12692-9.52333-8.24356,0-4.6548,3.44714-6.68057,8.28001-6.89393l5.96986-.28359c.3189-.00019.46129-.10763.49735-.3208v-.9231c0-2.0252-1.06679-3.0565-3.65977-3.05669-2.59295,0-3.51927.9958-3.66163,2.20402-.1063.92348-.49735,1.49219-1.74068,1.49219h-2.73531c-1.17312,0-1.95516-.67539-1.99125-1.88341-.1063-3.58886,2.56069-7.60392,10.12886-7.60392ZM488.37616,13.9285c5.72117.00004,9.38286,3.94473,9.38286,10.09168l-.038-.07043v13.0058c0,1.24333-.67383,1.91852-1.91907,1.91852h-2.55692c-1.24333,0-1.91907-.67519-1.91907-1.91852v-12.25885c0-2.98475-1.34963-4.65651-4.19312-4.65651s-4.33554,1.77844-4.33554,4.86968v12.0808c0,1.24371-.67577,1.91852-1.9191,1.91852h-2.55881c-1.24333,0-1.91719-.67501-1.91719-1.91852v-20.57447c0-1.24331.67386-1.91849,1.91719-1.9186h2.45251c1.03073.0001,1.67044.46189,1.88492,1.31428,1.38569-1.13682,3.26872-1.88339,5.71935-1.88339ZM583.71388,13.9285c5.72123,0,9.381,3.94471,9.381,10.09168l-.03418-.07043v13.0058c0,1.24333-.67765,1.91852-1.92098,1.91852h-2.55878c-1.24339-.00019-1.91721-.67538-1.91721-1.91852v-12.25885c0-2.98475-1.35154-4.65651-4.19318-4.65651-2.8435.00019-4.33551,1.77844-4.33551,4.86968v12.0808c0,1.24333-.67383,1.91833-1.91716,1.91852h-2.56069c-1.24339-.00019-1.91913-.67501-1.91913-1.91852v-20.57447c0-1.24322.67574-1.91837,1.91913-1.9186h2.45248c1.03073,0,1.67044.46185,1.88304,1.31428,1.38566-1.13686,3.26869-1.88333,5.72117-1.88339ZM283.24002,5.4366c1.06488,0,1.74065.42602,2.27406,1.34952l12.29474,21.99631-.17845-5.01071V7.3552c0-1.2435.67765-1.9186,1.92101-1.9186h2.80555c1.24333.00004,1.9191.67514,1.9191,1.9186v29.60036c0,1.24333-.67577,1.91852-1.9191,1.91852h-4.5842c-1.06488-.00019-1.77671-.42596-2.27406-1.34944l-12.82812-22.95659.17842,5.72252v16.66498c0,1.24333-.67577,1.91852-1.9191,1.91852h-2.80555c-1.24521,0-1.9191-.67519-1.9191-1.91852V7.3552c0-1.2435.67389-1.9186,1.9191-1.9186h5.1157ZM355.69291,14.42716c.99467,0,1.7065.53283,1.99125,1.49224l3.65783,13.07618.14427.46165.14236-.46165,3.76607-13.07618c.28472-.95941.99467-1.49224,1.95325-1.49224h3.5193c.99467.00029,1.70459.53309,1.95327,1.49224l3.76795,13.07618.14045.46165.14236-.46165,3.65977-13.07618c.28472-.95941.96049-1.49224,1.95516-1.49224h2.41642c.88649,0,1.52808.31909,1.84698.95837.28472.533.28472,1.10227.07024,1.81295l-6.00407,20.21854c-.28284.92367-.95858,1.45669-1.95325,1.45707h-3.94449c-.99467,0-1.70459-.53321-1.95327-1.49219l-3.37882-11.7619-.46126-1.95383-.46126,1.95383-3.37502,11.7619c-.28475.95898-.99467,1.492-1.95516,1.49219h-3.94449c-.95861,0-1.70459-.53321-1.95327-1.45707h-.07212l-6.00404-20.21854c-.21451-.71067-.17845-1.27995.07021-1.81295.3189-.63938.96052-.95837,1.84698-.95837h2.41642ZM340.23578,14.42716c1.10285.00002,1.74256.49733,1.88301,1.49224,1.13894-.92388,2.59487-1.49224,4.44184-1.49224h2.06146c1.24333.00013,1.9191.67504,1.9191,1.9186v2.38019c0,1.24363-.67577,1.91845-1.9191,1.91864h-1.42178c-3.76604,0-4.93725,1.28053-4.93725,5.33132v10.94434c0,1.24333-.67765,1.91852-1.92098,1.91852h-2.55881c-1.24333-.00019-1.91719-.67538-1.91719-1.91852v-20.57449c0-1.2435.67386-1.91841,1.91719-1.9186h2.45251ZM445.2734,14.42716c1.24333,0,1.9191.67491,1.9191,1.9186v20.57449c0,1.24333-.67577,1.91852-1.9191,1.91852h-2.55689c-1.24333,0-1.9191-.67519-1.9191-1.91852v-20.57449c0-1.24369.67389-1.9186,1.9191-1.9186h2.55689ZM602.04872,7.6036c1.24339,0,1.91913.67546,1.91913,1.9186v4.90496h4.22921c1.24333.00032,1.91907.67521,1.91907,1.9186v2.4154c0,1.24335-.67574,1.91835-1.91907,1.91854h-4.22921v12.15312h3.9084c1.24333,0,1.91913.67539,1.91913,1.91852v2.1689c0,1.24333-.6758,1.91852-1.91913,1.91852h-5.3283c-3.26869,0-4.97516-1.7063-4.97516-4.97541V9.5222c0-1.24305.67383-1.9185,1.91716-1.9186h2.55878ZM617.25725,14.42716c1.10094,0,1.74065.49729,1.88304,1.49224,1.13703-.92388,2.59481-1.49224,4.44367-1.49224h2.0596c1.24333,0,1.91907.67491,1.91907,1.9186v2.38019c0,1.24363-.67574,1.91864-1.91907,1.91864h-1.41989c-3.76793,0-4.94104,1.28034-4.94104,5.33132v10.94434c0,1.24333-.67574,1.91852-1.91907,1.91852h-2.55692c-1.24333,0-1.91907-.67519-1.91907-1.91852v-20.57449c0-1.24369.67574-1.9186,1.91907-1.9186h2.45062ZM465.63555,28.60437c-.42711.10668-.92443.17748-1.45784.24848l-3.6958.25019c-2.16776.14237-3.0903.78149-3.0903,2.167,0,1.70555,1.6002,2.77139,3.76604,2.77139v-.0353c2.48857-.00019,4.4779-1.24409,4.4779-4.61949v-.78225ZM320.40893,19.96977c-2.98397,0-5.47254,2.13245-5.47254,6.68076s2.52272,6.68095,5.47254,6.68095c2.94983-.00019,5.47254-2.13302,5.47254-6.68095s-2.48854-6.68057-5.47254-6.68076ZM424.69866,19.89935c-2.80555.00038-5.18591,1.98971-5.18591,6.21741,0,4.22808,2.38036,6.18362,5.18591,6.184,2.80747,0,5.22391-1.99104,5.22391-6.184,0-4.19258-2.41645-6.21741-5.22391-6.21741ZM399.61377,19.47301c-2.55878,0-4.33551,1.42062-5.04734,4.15595h9.87829c-.49732-2.55784-2.09561-4.15595-4.83095-4.15595ZM557.09904,19.47301c-2.55686,0-4.3336,1.42062-5.04543,4.15595h9.87832c-.49738-2.55765-2.09755-4.15576-4.83289-4.15595ZM639.67891,19.47301c-2.55686,0-4.3336,1.42043-5.04543,4.15595h9.87832c-.49738-2.55784-2.09564-4.15595-4.83289-4.15595ZM445.73466,5.4366c1.24524,0,1.9191.6751,1.9191,1.9186v3.23475c0,1.24312-.67574,1.91862-1.9191,1.91862h-3.37502c-1.24333-.00021-1.91719-.67567-1.91907-1.91862v-3.23475c0-1.24331.67574-1.91841,1.91907-1.9186h3.37502Z"/>
</svg>