<svg width="11" height="5" viewBox="0 0 11 5" fill="none" xmlns="http://www.w3.org/2000/svg">
<path d="M4.34766 3.56543C4.34766 3.94629 4.24219 4.16602 4.00781 4.2832C3.77051 4.40332 3.52734 4.38574 3.20801 4.22754L0.489258 2.86816C0.155273 2.70117 0 2.49316 0 2.20312C0 1.91309 0.155273 1.70508 0.489258 1.53809L3.20801 0.178711C3.52734 0.0205078 3.76758 0 4.00781 0.120117C4.24512 0.240234 4.34766 0.459961 4.34766 0.84082V1.5293L9.46582 1.5293C9.83789 1.5293 10.1396 1.83105 10.1396 2.20312C10.1396 2.5752 9.83789 2.87695 9.46582 2.87695H4.34766V3.56543Z" fill="white"/>
</svg>
