<svg width="6" height="21" viewBox="0 0 6 21" fill="none" xmlns="http://www.w3.org/2000/svg">
<path d="M0.867154 18C0.30219 18 0 18.3083 0 18.8848V20.1152C0 20.6917 0.30219 21 0.867154 21H2.13285C2.69781 21 3 20.6931 3 20.1152V18.8848C3 18.3083 2.69781 18 2.13285 18H0.867154Z" fill="black"/>
<path d="M3.86715 12C3.30219 12 3 12.3083 3 12.8848V14.1152C3 14.6917 3.30219 15 3.86715 15H5.13285C5.69781 15 6 14.6931 6 14.1152V12.8848C6 12.3083 5.69781 12 5.13285 12H3.86715Z" fill="black"/>
<path d="M0.867154 6C0.30219 6 0 6.30834 0 6.88481V8.11519C0 8.69166 0.30219 9 0.867154 9H2.13285C2.69781 9 3 8.69315 3 8.11519V6.88481C3 6.30834 2.69781 6 2.13285 6H0.867154Z" fill="black"/>
<path d="M3.86715 0C3.30219 0 3 0.308342 3 0.884806V2.11519C3 2.69166 3.30219 3 3.86715 3H5.13285C5.69781 3 6 2.69315 6 2.11519V0.884806C6 0.308342 5.69781 0 5.13285 0H3.86715Z" fill="black"/>
</svg>
