<svg width="8" height="28" viewBox="0 0 8 28" fill="none" xmlns="http://www.w3.org/2000/svg">
<path d="M1.1562 24C0.40292 24 0 24.4111 0 25.1797V26.8203C0 27.5889 0.40292 28 1.1562 28H2.8438C3.59708 28 4 27.5909 4 26.8203V25.1797C4 24.4111 3.59708 24 2.8438 24H1.1562Z" fill="#E8E8E8"/>
<path d="M5.1562 16C4.40292 16 4 16.4111 4 17.1797V18.8203C4 19.5889 4.40292 20 5.1562 20H6.8438C7.59708 20 8 19.5909 8 18.8203V17.1797C8 16.4111 7.59708 16 6.8438 16H5.1562Z" fill="#E8E8E8"/>
<path d="M1.1562 8C0.40292 8 0 8.41112 0 9.17974V10.8203C0 11.5889 0.40292 12 1.1562 12H2.8438C3.59708 12 4 11.5909 4 10.8203V9.17974C4 8.41112 3.59708 8 2.8438 8H1.1562Z" fill="#E8E8E8"/>
<path d="M5.1562 0C4.40292 0 4 0.411122 4 1.17974V2.82026C4 3.58888 4.40292 4 5.1562 4H6.8438C7.59708 4 8 3.59086 8 2.82026V1.17974C8 0.411122 7.59708 0 6.8438 0H5.1562Z" fill="#E8E8E8"/>
</svg>
