<svg width="16" height="16" viewBox="0 0 16 16" fill="none" xmlns="http://www.w3.org/2000/svg">
<path d="M6.02241 13.9679C5.71786 14.1183 5.40579 14.0958 4.99596 13.889L1.5068 12.1481C1.07818 11.9338 0.878906 11.6669 0.878906 11.2947C0.878906 10.9224 1.07818 10.6555 1.5068 10.4412L4.99596 8.70035C5.40579 8.49355 5.71786 8.471 6.02241 8.62139C6.32696 8.77554 6.45855 9.0613 6.45855 9.54632V10.4299H10.6771C12.1247 10.4299 13.2714 9.16281 13.2714 7.68518C13.2714 6.20755 12.1247 4.94048 10.6771 4.94048H8.19937C7.72187 4.94048 7.3346 4.55321 7.3346 4.07571C7.3346 3.5982 7.72187 3.21094 8.19937 3.21094L10.6771 3.21094C13.106 3.21094 15.001 5.27887 15.001 7.68518C15.001 10.0915 13.106 12.1594 10.6771 12.1594L6.45855 12.1594V13.043C6.45855 13.528 6.32696 13.8138 6.02241 13.9679Z" fill="#050505"/>
</svg>
