<svg width="81" height="80" xmlns="http://www.w3.org/2000/svg" fill="none">

 <g>
  <title>Layer 1</title>
  <path id="svg_1" fill="#050505" d="m1.54774,0c-0.88622,0 -1.36024,0.48367 -1.36024,1.38793l0,1.93002c0,0.90426 0.47402,1.38793 1.36024,1.38793l1.9854,0c0.88622,0 1.36024,-0.48133 1.36024,-1.38793l0,-1.93002c0,-0.90426 -0.47402,-1.38793 -1.36024,-1.38793l-1.9854,0z"/>
  <path id="svg_2" fill="#050505" d="m20.372,0c-0.8863,0 -1.3603,0.48367 -1.3603,1.38793l0,1.93002c0,0.90426 0.474,1.38793 1.3603,1.38793l1.9854,0c0.8862,0 1.3602,-0.48133 1.3602,-1.38793l0,-1.93002c0,-0.90426 -0.474,-1.38793 -1.3602,-1.38793l-1.9854,0z"/>
  <path id="svg_3" fill="#050505" d="m10.9618,0c-0.8862,0 -1.36024,0.48367 -1.36024,1.38793l0,1.93002c0,0.90426 0.47404,1.38793 1.36024,1.38793l1.9854,0c0.8862,0 1.3602,-0.48133 1.3602,-1.38793l0,-1.93002c0,-0.90426 -0.474,-1.38793 -1.3602,-1.38793l-1.9854,0z"/>
  <path id="svg_4" fill="#050505" d="m29.786,0c-0.8862,0 -1.3602,0.48367 -1.3602,1.38793l0,1.93002c0,0.90426 0.474,1.38793 1.3602,1.38793l1.9854,0c0.8862,0 1.3603,-0.48133 1.3603,-1.38793l0,-1.93002c0,-0.90426 -0.4741,-1.38793 -1.3603,-1.38793l-1.9854,0z"/>
  <path id="svg_5" fill="#050505" d="m58.0204,0c-0.8862,0 -1.3602,0.48367 -1.3602,1.38793l0,1.93002c0,0.90426 0.474,1.38793 1.3602,1.38793l1.9854,0c0.8862,0 1.3602,-0.48133 1.3602,-1.38793l0,-1.93002c0,-0.90426 -0.474,-1.38793 -1.3602,-1.38793l-1.9854,0z"/>
  <path id="svg_6" fill="#050505" d="m48.6063,0c-0.8862,0 -1.3602,0.48367 -1.3602,1.38793l0,1.93002c0,0.90426 0.474,1.38793 1.3602,1.38793l1.9854,0c0.8863,0 1.3603,-0.48133 1.3603,-1.38793l0,-1.93002c0,-0.90426 -0.474,-1.38793 -1.3603,-1.38793l-1.9854,0z"/>
  <path id="svg_7" fill="#050505" d="m67.4306,0c-0.8863,0 -1.3603,0.48367 -1.3603,1.38793l0,1.93002c0,0.90426 0.474,1.38793 1.3603,1.38793l1.9854,0c0.8862,0 1.3602,-0.48133 1.3602,-1.38793l0,-1.93002c0,-0.90426 -0.474,-1.38793 -1.3602,-1.38793l-1.9854,0z"/>
  <path id="svg_8" fill="#050505" d="m1.54774,18.8242c-0.88622,0 -1.36024,0.4837 -1.36024,1.388l0,1.93c0,0.9042 0.47402,1.3879 1.36024,1.3879l1.9854,0c0.88622,0 1.36024,-0.4813 1.36024,-1.3879l0,-1.93c0,-0.9043 -0.47402,-1.388 -1.36024,-1.388l-1.9854,0z"/>
  <path id="svg_9" fill="#050505" d="m1.54774,56.4707c-0.88622,0 -1.36024,0.4837 -1.36024,1.3879l0,1.9301c0,0.9042 0.47402,1.3879 1.36024,1.3879l1.9854,0c0.88622,0 1.36024,-0.4814 1.36024,-1.3879l0,-1.9301c0,-0.9042 -0.47402,-1.3879 -1.36024,-1.3879l-1.9854,0z"/>
  <path id="svg_10" fill="#050505" d="m1.54774,47.0586c-0.88622,0 -1.36024,0.4837 -1.36024,1.3879l0,1.93c0,0.9043 0.47402,1.388 1.36024,1.388l1.9854,0c0.88622,0 1.36024,-0.4814 1.36024,-1.388l0,-1.93c0,-0.9042 -0.47402,-1.3879 -1.36024,-1.3879l-1.9854,0z"/>
  <path id="svg_11" fill="#050505" d="m1.54774,65.8828c-0.88622,0 -1.36024,0.4837 -1.36024,1.3879l0,1.9301c0,0.9042 0.47402,1.3879 1.36024,1.3879l1.9854,0c0.88622,0 1.36024,-0.4813 1.36024,-1.3879l0,-1.9301c0,-0.9042 -0.47402,-1.3879 -1.36024,-1.3879l-1.9854,0z"/>
  <path id="svg_12" fill="#050505" d="m1.54774,28.2363c-0.88622,0 -1.36024,0.4837 -1.36024,1.388l0,1.93c0,0.9042 0.47402,1.3879 1.36024,1.3879l1.9854,0c0.88622,0 1.36024,-0.4813 1.36024,-1.3879l0,-1.93c0,-0.9043 -0.47402,-1.388 -1.36024,-1.388l-1.9854,0z"/>
  <path id="svg_13" fill="#050505" d="m1.54774,9.41211c-0.88622,0 -1.36024,0.48367 -1.36024,1.38789l0,1.9301c0,0.9042 0.47402,1.3879 1.36024,1.3879l1.9854,0c0.88622,0 1.36024,-0.4813 1.36024,-1.3879l0,-1.9301c0,-0.90422 -0.47402,-1.38789 -1.36024,-1.38789l-1.9854,0z"/>
  <path id="svg_14" fill="#050505" d="m39.1962,0c-0.8862,0 -1.3603,0.48367 -1.3603,1.38793l0,1.93002c0,0.90426 0.4741,1.38793 1.3603,1.38793l1.9854,0c0.8862,0 1.3602,-0.48133 1.3602,-1.38793l0,-1.93002c0,-0.90426 -0.474,-1.38793 -1.3602,-1.38793l-1.9854,0z"/>
  <path id="svg_15" fill="#050505" d="m1.54774,37.6465c-0.88622,0 -1.36024,0.4837 -1.36024,1.3879l0,1.93c0,0.9043 0.47402,1.388 1.36024,1.388l1.9854,0c0.88622,0 1.36024,-0.4814 1.36024,-1.388l0,-1.93c0,-0.9042 -0.47402,-1.3879 -1.36024,-1.3879l-1.9854,0z"/>
  <path id="svg_16" fill="#050505" d="m1.36024,75.293c-0.88622,0 -1.36024,0.4836 -1.36024,1.3879l0,1.93c0,0.9043 0.47402,1.388 1.36024,1.388l1.9854,0c0.88622,0 1.36024,-0.4814 1.36024,-1.388l0,-1.93c0,-0.9043 -0.47402,-1.3879 -1.36024,-1.3879l-1.9854,0z"/>
  <path id="svg_17" fill="#050505" d="m20.1845,75.293c-0.8863,0 -1.3603,0.4836 -1.3603,1.3879l0,1.93c0,0.9043 0.474,1.388 1.3603,1.388l1.9854,0c0.8862,0 1.3602,-0.4814 1.3602,-1.388l0,-1.93c0,-0.9043 -0.474,-1.3879 -1.3602,-1.3879l-1.9854,0z"/>
  <path id="svg_18" fill="#050505" d="m29.5946,75.293c-0.8862,0 -1.3602,0.4836 -1.3602,1.3879l0,1.93c0,0.9043 0.474,1.388 1.3602,1.388l1.9854,0c0.8862,0 1.3603,-0.4814 1.3603,-1.388l0,-1.93c0,-0.9043 -0.4741,-1.3879 -1.3603,-1.3879l-1.9854,0z"/>
  <path id="svg_19" fill="#050505" d="m10.7743,75.293c-0.88621,0 -1.36024,0.4836 -1.36024,1.3879l0,1.93c0,0.9043 0.47403,1.388 1.36024,1.388l1.9854,0c0.8862,0 1.3602,-0.4814 1.3602,-1.388l0,-1.93c0,-0.9043 -0.474,-1.3879 -1.3602,-1.3879l-1.9854,0z"/>
  <path id="svg_20" fill="#050505" d="m57.829,75.293c-0.8862,0 -1.3602,0.4836 -1.3602,1.3879l0,1.93c0,0.9043 0.474,1.388 1.3602,1.388l1.9854,0c0.8862,0 1.3602,-0.4814 1.3602,-1.388l0,-1.93c0,-0.9043 -0.474,-1.3879 -1.3602,-1.3879l-1.9854,0z"/>
  <path id="svg_21" fill="#050505" d="m48.4188,75.293c-0.8862,0 -1.3602,0.4836 -1.3602,1.3879l0,1.93c0,0.9043 0.474,1.388 1.3602,1.388l1.9854,0c0.8863,0 1.3603,-0.4814 1.3603,-1.388l0,-1.93c0,-0.9043 -0.474,-1.3879 -1.3603,-1.3879l-1.9854,0z"/>
  <path id="svg_22" fill="#050505" d="m67.2431,75.293c-0.8863,0 -1.3603,0.4836 -1.3603,1.3879l0,1.93c0,0.9043 0.474,1.388 1.3603,1.388l1.9854,0c0.8862,0 1.3602,-0.4814 1.3602,-1.388l0,-1.93c0,-0.9043 -0.474,-1.3879 -1.3602,-1.3879l-1.9854,0z"/>
  <path id="svg_23" fill="#050505" d="m39.0087,75.293c-0.8862,0 -1.3603,0.4836 -1.3603,1.3879l0,1.93c0,0.9043 0.4741,1.388 1.3603,1.388l1.9854,0c0.8862,0 1.3602,-0.4814 1.3602,-1.388l0,-1.93c0,-0.9043 -0.474,-1.3879 -1.3602,-1.3879l-1.9854,0z"/>
  <path id="svg_24" fill="#050505" d="m76.8407,18.8242c-0.8862,0 -1.3602,0.4837 -1.3602,1.388l0,1.93c0,0.9042 0.474,1.3879 1.3602,1.3879l1.9854,0c0.8862,0 1.3603,-0.4813 1.3603,-1.3879l0,-1.93c0,-0.9043 -0.4741,-1.388 -1.3603,-1.388l-1.9854,0z"/>
  <path id="svg_25" fill="#050505" d="m76.8407,0c-0.8862,0 -1.3602,0.48367 -1.3602,1.38793l0,1.93002c0,0.90426 0.474,1.38793 1.3602,1.38793l1.9854,0c0.8862,0 1.3603,-0.48133 1.3603,-1.38793l0,-1.93002c0,-0.90426 -0.4741,-1.38793 -1.3603,-1.38793l-1.9854,0z"/>
  <path id="svg_26" fill="#050505" d="m76.8407,56.4707c-0.8862,0 -1.3602,0.4837 -1.3602,1.3879l0,1.9301c0,0.9042 0.474,1.3879 1.3602,1.3879l1.9854,0c0.8862,0 1.3603,-0.4814 1.3603,-1.3879l0,-1.9301c0,-0.9042 -0.4741,-1.3879 -1.3603,-1.3879l-1.9854,0z"/>
  <path id="svg_27" fill="#050505" d="m76.8407,47.0586c-0.8862,0 -1.3602,0.4837 -1.3602,1.3879l0,1.93c0,0.9043 0.474,1.388 1.3602,1.388l1.9854,0c0.8862,0 1.3603,-0.4814 1.3603,-1.388l0,-1.93c0,-0.9042 -0.4741,-1.3879 -1.3603,-1.3879l-1.9854,0z"/>
  <path id="svg_28" fill="#050505" d="m76.8407,65.8828c-0.8862,0 -1.3602,0.4837 -1.3602,1.3879l0,1.9301c0,0.9042 0.474,1.3879 1.3602,1.3879l1.9854,0c0.8862,0 1.3603,-0.4813 1.3603,-1.3879l0,-1.9301c0,-0.9042 -0.4741,-1.3879 -1.3603,-1.3879l-1.9854,0z"/>
  <path id="svg_29" fill="#050505" d="m76.8407,28.2363c-0.8862,0 -1.3602,0.4837 -1.3602,1.388l0,1.93c0,0.9042 0.474,1.3879 1.3602,1.3879l1.9854,0c0.8862,0 1.3603,-0.4813 1.3603,-1.3879l0,-1.93c0,-0.9043 -0.4741,-1.388 -1.3603,-1.388l-1.9854,0z"/>
  <path id="svg_30" fill="#050505" d="m76.8407,9.41211c-0.8862,0 -1.3602,0.48367 -1.3602,1.38789l0,1.9301c0,0.9042 0.474,1.3879 1.3602,1.3879l1.9854,0c0.8862,0 1.3603,-0.4813 1.3603,-1.3879l0,-1.9301c0,-0.90422 -0.4741,-1.38789 -1.3603,-1.38789l-1.9854,0z"/>
  <path id="svg_31" fill="#050505" d="m76.8407,37.6465c-0.8862,0 -1.3602,0.4837 -1.3602,1.3879l0,1.93c0,0.9043 0.474,1.388 1.3602,1.388l1.9854,0c0.8862,0 1.3603,-0.4814 1.3603,-1.388l0,-1.93c0,-0.9042 -0.4741,-1.3879 -1.3603,-1.3879l-1.9854,0z"/>
  <path id="svg_32" fill="#050505" d="m76.6532,75.293c-0.8862,0 -1.3602,0.4836 -1.3602,1.3879l0,1.93c0,0.9043 0.474,1.388 1.3602,1.388l1.9854,0c0.8862,0 1.3603,-0.4814 1.3603,-1.388l0,-1.93c0,-0.9043 -0.4741,-1.3879 -1.3603,-1.3879l-1.9854,0z"/>
 </g>
</svg>