<svg width="130" height="110" viewBox="0 0 130 110" fill="none" xmlns="http://www.w3.org/2000/svg">
<g clip-path="url(#clip0_1161_3666)">
<path d="M33.4696 92.3992C28.2143 87.9992 27.3845 81.6742 25.1717 76.1742C23.7887 72.5992 21.2994 69.5742 18.81 66.5492C22.1292 75.8992 20.193 82.4992 28.2143 89.0992C26.8313 88.5492 25.4483 87.4492 24.3419 86.6242C17.9802 81.3992 8.57596 80.5742 4.70362 72.0492C5.81001 78.3742 10.7887 83.8742 16.044 87.4492C21.2994 90.7492 27.9377 90.4742 33.4696 92.3992ZM47.2994 95.6992C48.1292 95.4242 49.2355 95.4242 50.3419 95.1492C46.4696 94.5992 42.8738 93.2242 40.1079 90.7492C35.9589 86.8992 32.3632 83.0492 27.9377 80.0242C32.6398 89.3742 34.2994 93.2242 42.044 94.8742C42.044 94.8742 39.8313 94.5992 38.7249 94.3242C30.427 92.6742 20.4696 94.8742 14.3845 87.9992C16.8738 92.3992 21.576 95.9742 26.0015 97.6242C33.193 99.8242 40.6611 97.3492 47.2994 95.6992ZM58.3632 95.1492C45.0866 95.1492 38.1717 106.699 25.1717 98.9992C31.5334 106.699 41.7675 107.249 50.0653 102.024C53.3845 99.8242 56.427 96.7992 60.576 96.7992C66.9377 96.7992 73.8526 103.399 79.6611 109.449C80.7675 108.624 81.5972 107.799 82.427 106.974C76.3419 101.199 67.4909 95.1492 58.3632 95.1492ZM21.0228 82.2242C21.0228 82.2242 19.3632 79.1992 18.81 77.2742C16.8738 69.8492 17.9802 60.7742 14.6611 53.6242C15.2143 57.7492 13.5547 61.3242 13.2781 65.1742C12.7249 70.3992 14.6611 73.9742 16.044 76.4492C16.044 76.4492 14.1079 73.9742 13.2781 72.5992C9.40575 66.5492 1.38447 62.4242 0.831283 54.9992C-0.2751 71.2242 11.0653 75.6242 21.0228 82.2242ZM17.1504 34.0992C18.2568 31.8992 18.81 29.1492 19.3632 26.6742C18.81 27.7742 18.2568 28.8742 17.427 29.6992C12.1717 34.0992 9.12916 36.5742 7.74618 43.4492L8.29937 37.3992C8.85256 31.3492 5.53341 24.7492 9.12916 19.5242C5.53341 23.3742 3.59724 28.3242 3.59724 33.2742C3.59724 39.8742 7.46958 44.5492 7.74618 50.8742C8.85256 44.2742 14.3845 39.5992 17.1504 34.0992ZM15.2143 21.9992C17.7036 19.7992 20.7462 17.8742 22.9589 15.1242C25.4483 11.8242 27.6611 7.97422 30.9802 4.94922C26.5547 6.87422 21.576 8.52422 18.5334 13.1992C16.8738 15.9492 16.5972 19.2492 15.2143 21.9992ZM9.68235 35.1992C10.7887 32.9992 12.7249 30.7992 14.6611 29.1492C19.6398 25.5742 24.6185 20.8992 24.8951 14.8492C22.1292 21.4492 13.5547 22.5492 11.6185 29.4242C11.6185 29.4242 12.7249 25.2992 13.0015 24.4742C14.3845 19.7992 14.1079 14.2992 18.81 11.2742C9.68235 13.1992 9.12916 23.0992 9.68235 30.5242C9.68235 32.1742 9.95894 33.5492 9.68235 35.1992ZM11.0653 67.0992C11.0653 67.0992 10.5121 61.8742 11.3419 59.6742C13.5547 53.0742 15.7675 45.9242 15.4909 39.0492C13.2781 47.2992 6.3632 50.0492 9.40575 61.3242C8.29937 59.1242 8.02277 56.6492 7.19299 54.4492C5.53341 48.3992 0.831283 43.1742 2.21426 36.0242C0.00149602 42.3492 0.00149602 47.2992 2.21426 53.8992C3.59724 58.8492 8.57596 62.4242 11.0653 67.0992Z" fill="black"/>
<path d="M96.5304 92.3992C101.786 87.9992 102.616 81.6742 104.828 76.1742C106.211 72.5992 108.701 69.5742 111.19 66.5492C107.871 75.8992 109.807 82.4992 101.786 89.0992C103.169 88.5492 104.552 87.4492 105.658 86.6242C112.02 81.3992 121.424 80.5742 125.296 72.0492C124.19 78.3742 119.211 83.8742 113.956 87.4492C108.701 90.7492 102.062 90.4742 96.5304 92.3992ZM82.7006 95.6992C81.8708 95.4242 80.7645 95.4242 79.6581 95.1492C83.5304 94.5992 87.1262 93.2242 89.8921 90.7492C94.0411 86.8992 97.6368 83.0492 102.062 80.0242C97.3602 89.3742 95.7006 93.2242 87.956 94.8742C87.956 94.8742 90.1687 94.5992 91.2751 94.3242C99.573 92.6742 109.53 94.8742 115.616 87.9992C113.126 92.3992 108.424 95.9742 103.999 97.6242C96.807 99.8242 89.3389 97.3492 82.7006 95.6992ZM71.6368 95.1492C84.9134 95.1492 91.8283 106.699 104.828 98.9992C98.4666 106.699 88.2325 107.249 79.9347 102.024C76.6155 99.8242 73.573 96.7992 69.424 96.7992C63.0623 96.7992 56.1474 103.399 50.3389 109.449C49.2325 108.624 48.4028 107.799 47.573 106.974C53.6581 101.199 62.5091 95.1492 71.6368 95.1492ZM108.977 82.2242C108.977 82.2242 110.637 79.1992 111.19 77.2742C113.126 69.8492 112.02 60.7742 115.339 53.6242C114.786 57.7492 116.445 61.3242 116.722 65.1742C117.275 70.3992 115.339 73.9742 113.956 76.4492C113.956 76.4492 115.892 73.9742 116.722 72.5992C120.594 66.5492 128.616 62.4242 129.169 54.9992C130.275 71.2242 118.935 75.6242 108.977 82.2242ZM112.85 34.0992C111.743 31.8992 111.19 29.1492 110.637 26.6742C111.19 27.7742 111.743 28.8742 112.573 29.6992C117.828 34.0992 120.871 36.5742 122.254 43.4492L121.701 37.3992C121.147 31.3492 124.467 24.7492 120.871 19.5242C124.467 23.3742 126.403 28.3242 126.403 33.2742C126.403 39.8742 122.53 44.5492 122.254 50.8742C121.147 44.2742 115.616 39.5992 112.85 34.0992ZM114.786 21.9992C112.296 19.7992 109.254 17.8742 107.041 15.1242C104.552 11.8242 102.339 7.97422 99.0198 4.94922C103.445 6.87422 108.424 8.52422 111.467 13.1992C113.126 15.9492 113.403 19.2492 114.786 21.9992ZM120.318 35.1992C119.211 32.9992 117.275 30.7992 115.339 29.1492C110.36 25.5742 105.381 20.8992 105.105 14.8492C107.871 21.4492 116.445 22.5492 118.381 29.4242C118.381 29.4242 117.275 25.2992 116.999 24.4742C115.616 19.7992 115.892 14.2992 111.19 11.2742C120.318 13.1992 120.871 23.0992 120.318 30.5242C120.318 32.1742 120.041 33.5492 120.318 35.1992ZM118.935 67.0992C118.935 67.0992 119.488 61.8742 118.658 59.6742C116.445 53.0742 114.233 45.9242 114.509 39.0492C116.722 47.2992 123.637 50.0492 120.594 61.3242C121.701 59.1242 121.977 56.6492 122.807 54.4492C124.467 48.3992 129.169 43.1742 127.786 36.0242C129.999 42.3492 129.999 47.2992 127.786 53.8992C126.403 58.8492 121.424 62.4242 118.935 67.0992Z" fill="black"/>
<path d="M64.9992 90.7516C89.899 90.7516 110.084 70.6827 110.084 45.9266C110.084 21.1704 89.899 1.10156 64.9992 1.10156C40.0994 1.10156 19.9141 21.1704 19.9141 45.9266C19.9141 70.6827 40.0994 90.7516 64.9992 90.7516Z" stroke="black" stroke-width="4"/>
<path d="M64.9973 81.4031C84.7032 81.4031 100.678 65.5204 100.678 45.9281C100.678 26.3358 84.7032 10.4531 64.9973 10.4531C45.2913 10.4531 29.3164 26.3358 29.3164 45.9281C29.3164 65.5204 45.2913 81.4031 64.9973 81.4031Z" stroke="black" stroke-width="4"/>
<path d="M65.0009 72.8766C79.9714 72.8766 92.1073 60.8106 92.1073 45.9266C92.1073 31.0425 79.9714 18.9766 65.0009 18.9766C50.0305 18.9766 37.8945 31.0425 37.8945 45.9266C37.8945 60.8106 50.0305 72.8766 65.0009 72.8766Z" stroke="black" stroke-width="4"/>
<path d="M64.999 63.5281C74.7756 63.5281 82.7011 55.6483 82.7011 45.9281C82.7011 36.2079 74.7756 28.3281 64.999 28.3281C55.2224 28.3281 47.2969 36.2079 47.2969 45.9281C47.2969 55.6483 55.2224 63.5281 64.999 63.5281Z" stroke="black" stroke-width="4"/>
<path d="M64.9988 55.0016C70.0398 55.0016 74.1264 50.9385 74.1264 45.9266C74.1264 40.9146 70.0398 36.8516 64.9988 36.8516C59.9577 36.8516 55.8711 40.9146 55.8711 45.9266C55.8711 50.9385 59.9577 55.0016 64.9988 55.0016Z" stroke="black" stroke-width="4"/>
<path d="M64.9992 1.10156V36.8516M64.9992 55.0016V90.7516M33.1907 14.3016L58.6375 39.6016M71.3609 52.2516L96.8077 77.5516M19.9141 45.9266H55.8715M74.1268 45.9266H110.084M33.1907 77.5516L58.6375 52.2516M71.3609 39.6016L96.8077 14.3016" stroke="black" stroke-width="4"/>
<path d="M62.8146 56.9822C62.9252 56.7622 63.1465 55.8822 63.4231 56.1572C63.6997 56.4322 63.8656 56.1572 63.8656 56.1572C63.8656 56.1572 64.0039 56.2947 63.921 56.5697C63.8656 56.8447 63.7827 57.1197 63.6167 57.1747C63.4507 57.2022 63.3124 57.3122 63.0912 57.3397C62.9252 57.3672 62.8146 56.9822 62.8146 56.9822ZM65.0827 56.6247C65.138 56.5697 65.221 56.8447 65.3593 56.7897C65.4976 56.7622 65.5529 57.0372 65.4146 57.0372C65.2763 57.0372 65.2763 57.2022 65.2763 57.2847C65.2763 57.3672 65.2763 57.5322 65.1656 57.6422C65.055 57.7522 64.972 57.6697 64.8337 57.6147C64.6954 57.5322 64.6401 57.5322 64.4465 57.5322C64.2805 57.5322 64.4188 57.8072 64.4188 57.8072C64.4188 57.8072 63.6997 57.7797 63.838 57.6697C63.9763 57.5597 64.1146 57.5322 64.0039 57.4497C63.8933 57.3672 64.0039 57.3122 64.0039 57.1747C64.0039 57.0372 64.3358 57.0922 64.2529 57.0097C64.1422 56.8997 64.2529 56.5147 64.4188 56.7347L64.5295 56.4872C64.4188 56.3772 64.5018 56.3497 64.2805 56.2672C64.0869 56.1847 64.2529 55.7722 64.2529 55.7722L64.2805 55.4972C64.3358 55.1397 65.0273 55.1122 65.0827 55.4147C65.1103 55.7172 65.0827 55.9372 65.0827 55.9372L65.2763 56.0197C65.2763 56.0197 65.2486 56.2397 65.0827 56.2397C64.9167 56.2397 65.0827 56.3497 64.972 56.4597L65.0827 56.6247ZM90.5571 39.9047C90.3635 40.0972 89.9486 40.1797 89.9486 40.1797L89.8103 40.7022L89.589 40.8947C89.589 40.8947 89.6444 41.0322 89.589 41.3622C89.5337 41.6922 89.1188 41.8847 89.1188 41.8847L88.9252 42.1047C88.9252 42.1047 87.8188 42.1597 87.6805 42.1047C87.2656 41.9122 87.5422 41.3622 87.8188 41.4172C88.0954 41.4722 87.7635 40.6197 87.7635 40.6197L88.1231 40.5647C88.1231 40.5647 88.1784 39.7397 88.3167 39.7397C88.455 39.7397 88.2614 39.4647 88.0954 39.3272C87.9018 39.1897 87.6805 38.7222 87.4869 38.7772C87.2933 38.8322 86.5741 38.7772 86.5741 38.7772L86.4358 39.0522L85.938 39.1347C85.938 39.1347 85.9933 39.4922 85.8827 39.6022C85.6061 39.9322 84.555 40.6197 84.9976 39.4647L85.1358 39.1897V38.7772L84.3061 38.7222C84.3061 38.7222 83.8912 38.5847 83.8912 38.3922C83.8912 38.1997 83.8358 37.9797 83.8358 37.9797L82.8678 36.9072L81.7061 36.7697L81.6231 36.5497L80.9316 36.4672C80.1018 36.0547 79.355 36.4122 79.4933 37.1272C79.6316 37.8147 79.8529 38.0897 79.4103 38.0897C78.9401 38.0897 78.8571 37.7322 78.8571 37.7322C78.8571 37.7322 78.4976 37.5947 78.4976 37.7872C78.4976 37.9797 78.3593 38.3372 78.4976 38.5297C78.6358 38.7222 78.3039 38.9972 78.1656 38.8597C78.0273 38.7222 77.6678 38.3097 77.7507 38.1722C77.8337 38.0347 77.1146 37.1547 77.8337 37.0172C78.5805 36.8797 77.7784 36.4672 78.055 36.3572L78.4146 36.1647H78.7741L78.9954 35.9722L78.3869 35.8897L78.0273 35.8347L77.3358 35.7797C76.6444 36.2472 76.5061 36.7972 76.5061 36.7972C76.1465 37.4847 75.2614 36.5222 75.5933 36.1372C75.9252 35.7522 74.5699 36.0822 74.3486 36.2747C74.1273 36.4672 73.4358 36.3572 73.4358 36.3572C73.2976 36.7697 72.6614 36.3022 72.8273 36.0272C73.021 35.7522 73.021 35.5597 73.021 35.5597L72.7997 35.5047L72.5231 36.0272C71.8869 36.0272 71.6933 36.3847 71.8316 36.6322C71.9699 36.8522 71.638 36.5772 71.555 36.9072C71.472 37.2372 71.6103 37.2372 71.8869 37.3747C72.1635 37.5122 71.7486 37.5122 71.9422 37.7322C72.1358 37.9522 72.689 37.7322 72.3571 38.0622C72.0252 38.3922 71.389 38.2547 71.389 38.2547C71.3337 38.6672 70.4763 38.5847 70.3656 38.4472C70.2827 38.3097 69.5912 37.4847 69.5912 37.4847L68.7061 37.4297C68.6231 36.7697 69.121 37.0997 69.3146 36.6047C69.5082 36.0822 69.5912 35.2572 69.5912 35.2572C69.5912 35.2572 68.8444 35.2022 68.8167 35.4497C68.7614 35.6697 68.3188 35.8347 68.3188 35.8347C68.3188 35.8347 67.9593 35.9722 68.0975 36.1647C68.2358 36.3572 67.821 36.4397 67.821 36.4397C67.821 36.4397 67.9039 36.7422 67.7656 36.8522C67.4061 37.2372 66.4656 36.9072 66.3273 36.7697L65.7741 36.5497L65.221 36.1922L64.5848 36.4672L64.3912 36.6597H63.6997L63.6444 37.2097L64.889 37.3472L64.972 38.5022L64.4741 38.3372H64.1422L64.0039 38.0622L63.7273 38.0072V39.0247L64.0039 39.2447L64.2252 39.4647L64.6954 39.5197L64.7784 40.0697L65.9401 40.1247L66.0784 40.3447L66.7699 40.3997L68.0975 41.7472L68.0146 42.1597L67.7933 42.2972C67.8763 42.6272 67.1848 42.4347 67.1848 42.4347V42.7097L67.5167 42.7647L67.8486 42.9572L68.3188 42.1597C68.8167 41.8297 69.0656 42.2972 69.0933 42.5722C69.1486 42.8472 68.872 42.7922 68.872 42.7922V43.4522L69.1486 43.5347C69.6188 44.0847 68.955 44.4147 68.955 44.4147L68.8167 44.8822C68.6784 45.2947 68.1805 45.2122 68.1805 45.2122L67.9869 45.4872L67.4337 45.6247L68.5124 45.7622C68.6231 45.3772 68.8997 45.2947 69.038 45.4872C69.1763 45.6797 69.1763 46.0097 69.1763 46.0097L69.4529 46.0647L69.3975 46.5872L69.6741 46.6697V48.1547L70.0061 48.5122C70.5593 48.2922 70.5593 48.6497 70.2827 48.8422C70.0061 49.0347 70.1997 49.8597 70.1997 49.8597L69.9784 50.0797V50.4647L69.7018 50.6572V51.1797C69.2316 50.9597 68.6784 51.0422 68.5401 51.1797C68.1252 50.9047 67.2401 50.9872 67.2401 51.2347C67.5167 51.5922 66.9082 51.7022 66.9082 51.7022L66.5763 52.0597C66.7976 52.5272 66.355 52.5822 66.355 52.5822V53.4622L65.8018 53.9847L65.8571 55.1947C65.8571 55.5247 66.5486 55.5522 66.6869 55.3872C66.8252 55.1947 67.3784 55.7722 67.3784 55.7722H67.7933L67.8763 54.9472L67.5997 54.8097V53.4622L68.0699 52.9397C68.6231 52.7472 68.4295 54.1497 68.4295 54.2872C68.4848 54.8097 68.7061 54.7547 68.9273 54.6447C69.3975 54.4522 69.0103 55.1672 68.6507 55.1122C68.2912 55.0572 68.5124 55.5797 68.5124 55.5797L68.7337 55.6622L68.3188 55.9922L67.9593 56.4047L67.489 56.2672L66.9358 56.2122L66.7422 55.8822L66.4103 55.8272L66.355 56.4872L66.1337 56.7622L65.5805 57.3122C66.3273 57.3122 65.4976 57.8347 65.3039 57.8347C65.7188 57.9722 65.2486 58.3847 64.1976 58.0547V58.3847L63.838 58.4397L64.1699 58.7972L64.5295 58.8522L64.3912 59.6497C64.3912 60.2547 62.8699 59.8422 62.7316 59.7047L62.6763 60.5297L62.3997 60.5847L62.455 61.1347L62.3997 61.9322L62.8976 61.8497V62.1797L64.1422 62.2347L65.9401 60.3372L66.9912 60.1172C67.0741 59.6497 67.5444 60.1997 67.5444 60.1997C68.0146 60.1447 68.0975 60.4747 68.0975 60.4747L68.7061 60.5572C69.2039 60.6947 68.8997 60.7497 68.9273 60.9422C68.9827 61.2172 69.2039 61.1347 69.2039 61.1347L69.2869 60.5297L69.5635 60.5847L69.2869 60.2547L68.789 60.0347L68.2358 59.8147C67.8763 59.2922 68.3188 59.4022 68.7061 59.4572H69.3146C69.3146 59.4572 70.0061 60.3922 70.0061 60.6122C70.0061 60.8322 70.338 60.8872 70.338 60.8872L70.7529 60.8322L70.8912 61.1622H71.3061L71.4444 61.4372H72.2741L72.3295 61.0247L71.555 60.8872L71.4997 60.4197L70.9465 60.2822C70.7529 59.4847 71.0848 59.2647 71.3061 59.6222L71.5827 59.6772L71.4997 58.9897L71.8316 58.9072L71.7486 57.9447L71.472 57.8622V57.5322L72.6337 57.5872C72.5507 56.9822 72.689 56.7072 72.689 56.7072H73.021L73.0763 56.9272L74.4869 57.0647L75.4827 55.9372C75.4273 55.8547 75.5933 55.7997 75.4827 55.6897C75.3444 55.5522 75.1507 55.6897 74.9295 55.5522C74.7082 55.4147 74.9295 54.6172 74.8741 54.4522C74.8188 54.2597 75.6486 53.9847 75.5103 54.3972C75.372 54.8097 75.5103 55.0022 75.5103 55.0022C76.1188 54.4522 76.6167 55.0572 76.5614 55.1947C76.5061 55.3322 76.8933 55.4697 77.1146 55.3322C77.3358 55.1947 77.6124 55.7447 77.5295 56.0197C77.4465 56.2947 76.6167 56.2397 76.5614 55.9647C76.5061 55.6897 76.3678 55.7722 76.2848 55.9097C76.2018 56.0472 75.7869 56.1297 75.538 55.9922C75.4827 55.9647 75.4827 55.9372 75.455 55.9097L74.4593 57.0372H74.5146C75.0678 57.3672 74.7912 57.7797 74.5975 57.8622C74.4039 57.9447 74.0997 57.9447 74.0997 57.9447L74.0167 58.1372L72.8273 58.2197L72.7444 58.6872C72.1358 58.6047 71.9146 59.2372 72.0529 59.5672C72.1912 59.8972 72.0529 60.1722 72.0529 60.1722L72.5507 60.3922L73.1869 60.1997C73.2699 59.7322 73.6848 59.6497 74.072 59.3747C74.4316 59.0997 75.0401 59.8972 74.8465 60.2547C74.6529 60.6122 74.6529 60.7772 74.6529 60.7772L74.7082 61.1897L74.238 61.3822L73.8784 61.5747L73.8231 61.7947H72.5784L72.3571 62.0147L71.7486 62.0697L71.555 62.3447L71.1401 62.3997C71.1401 62.3997 70.4486 62.7297 70.7252 63.0872C71.0018 63.4722 69.5635 63.4172 69.2593 62.8947C69.1763 63.3622 68.6507 62.9497 68.6507 62.9497L68.1529 62.8122L68.0975 62.1247C68.0146 61.6572 67.1295 61.6572 67.1848 61.9872C67.2401 62.3172 65.5252 62.1247 65.5252 62.1247L64.972 62.3997L64.4741 62.7022L64.4188 62.9222L63.589 63.0047L63.2295 63.1972L63.0912 62.9222H62.7316L62.372 63.4447C61.4039 63.4997 60.4912 64.0497 60.5741 64.2697C60.6571 64.4897 60.2146 64.7372 60.2146 64.7372L59.7997 64.8747L59.5231 65.2872L58.9699 65.4797L58.8869 66.4422L58.6103 66.6347V67.0472L58.2784 67.1297V67.3497L57.8082 67.4047L58.0848 68.0922L58.4444 68.2847C59.0805 68.3672 58.8039 69.1647 58.8039 69.1647L59.1635 69.2197L59.3571 69.7422L59.7167 70.4847C59.855 71.0347 60.2699 70.8972 60.4635 70.8697C60.6571 70.8147 60.8231 71.4197 60.8231 71.4197L62.6486 71.4747C62.6486 71.4747 62.5656 71.6672 62.8699 71.7497C63.2018 71.8322 65.3039 71.9422 65.3869 71.8047C65.3039 71.3922 66.5486 71.2822 67.0465 71.6672C67.5444 72.0247 68.2358 71.8047 68.2358 71.8047L68.9273 72.6297L69.3975 73.6472L70.172 73.8672L70.7252 74.0047L70.9188 74.8022L71.3337 74.8572L71.472 75.3797C71.9699 75.7372 71.3337 76.5347 71.3337 76.5347V77.5522L71.6933 77.7447L71.638 78.1297L72.2465 78.7347L72.938 78.7897L74.6805 80.6322L76.0635 81.0447L76.2848 81.7872L76.6444 81.7322L76.921 81.5122L78.0273 81.4572L78.5805 80.9347L79.189 80.8522L84.3061 76.5347L83.8358 76.2597V75.2422C84.6656 74.6372 84.721 73.5647 83.9188 73.4822C83.338 73.3997 83.5869 72.7947 84.1401 72.6847L84.472 72.5472V72.1347L85.5231 71.1722V70.4297L83.2273 68.5322C82.2039 68.1747 83.2273 65.9472 83.9188 65.9747C84.6103 66.0297 83.8635 62.5372 83.8635 62.5372L83.5039 62.3447L83.5869 61.2172H83.089L82.2593 62.2897L82.038 63.0322C81.955 63.9947 79.1061 63.8297 78.9678 63.6922C78.8295 63.5547 77.8614 63.1422 77.8614 63.1422C77.8614 63.1422 77.1146 62.5372 76.9763 62.7297C76.838 62.9222 76.2018 62.5097 76.2018 62.6472C76.2018 62.7847 75.5933 62.3172 75.5933 62.3172L74.6805 61.9872L75.372 61.8497L75.2337 61.2997L76.4231 61.9047C76.5614 62.0972 77.1699 62.0422 77.1699 62.0422L77.3635 62.2622C77.3635 62.2622 77.7231 62.2072 77.972 62.4822C78.1933 62.7572 79.4103 62.5372 79.4103 62.5372L79.7422 62.8122L80.2401 63.0047L81.6784 63.0597L81.7337 62.1797L82.0103 61.9047L81.955 61.3547L82.2869 61.0797V60.6122L82.5635 60.5297L82.6188 59.5122L82.8401 59.4572V57.2297L82.1486 56.5697C82.0933 56.7897 81.3741 56.7897 81.3741 56.7897C81.3741 56.7897 81.1805 57.1197 81.0422 57.1197C80.9039 57.1197 81.2358 57.5322 81.1252 57.8072C81.0422 58.0822 80.655 58.0822 80.655 58.0822L79.9635 58.2747L79.7699 58.4947H79.0231L78.9401 57.8897L79.7699 57.6697L80.2401 57.4497L80.4614 56.9822C80.5167 56.5147 81.0699 56.5697 81.0699 56.5697C81.0699 56.5697 82.121 55.6897 82.1763 55.2772C82.2316 54.8647 82.5912 53.7097 83.2273 53.7097H84.4167C84.8869 53.5172 84.7486 52.9122 84.7486 52.9122L85.3571 52.8297L85.4401 53.1597C85.4401 53.1597 86.2699 53.2422 86.3529 53.1047C86.4358 52.9672 86.6295 52.6372 86.8507 52.7747C87.072 52.9122 87.8188 52.4447 87.8188 52.4447C87.8741 52.1147 89.0082 52.2522 89.0082 52.2522L89.1465 51.8397C89.1465 51.8397 88.372 50.7672 88.2337 50.7672C88.0954 50.7672 87.3486 50.1072 87.2656 50.3547C86.5188 50.1622 86.5741 49.1447 86.5741 49.1447L86.2976 48.4847C86.2976 48.0997 85.6061 47.3297 85.4678 47.4122C84.7763 46.8897 85.2741 46.3122 85.4678 46.2572C85.6614 46.2022 86.1039 45.5697 86.1039 45.5697L86.3252 44.9097L87.0997 44.6897L87.1827 44.0847L86.7678 44.0297C86.7678 44.0297 87.238 43.2047 87.4593 43.2047C87.6805 43.2047 89.2018 43.2047 89.3401 43.1222C89.4784 43.0397 89.755 42.2972 89.755 42.1597C89.755 42.0222 90.1146 41.9672 90.2529 41.9397C90.3912 41.8847 90.7231 41.5272 90.8061 41.3347C91.055 40.8672 90.7507 39.7122 90.5571 39.9047ZM103.308 54.7272C103.281 54.6447 103.253 54.5622 103.17 54.5347C102.976 54.4522 102.617 54.5897 102.451 54.6997L102.617 54.9197C102.783 54.8097 103.032 54.7547 103.059 54.7822V54.7547L103.308 54.7272ZM104.498 60.2547L104.221 60.2272C104.193 60.4472 104.249 60.7222 104.47 60.7497L104.525 60.4747C104.525 60.4747 104.498 60.3647 104.498 60.2547ZM105.521 59.1547C105.604 59.4297 105.687 59.7047 105.687 59.7322L105.936 59.6222C105.936 59.6222 105.825 59.3472 105.77 59.0722L105.521 59.1547ZM106.129 58.9347V58.8797C106.129 58.7972 106.102 58.6872 106.046 58.5772L105.798 58.7147C105.825 58.7697 105.825 58.8522 105.853 58.9072C105.853 58.9897 105.881 59.0722 105.936 59.1272C105.991 59.1547 106.046 59.1822 106.129 59.1547L106.074 58.8797C106.074 58.9072 106.102 58.9072 106.129 58.9347ZM103.778 60.9147C103.972 60.8047 104.221 60.5572 104.193 61.0797C104.166 61.6022 103.944 61.4372 103.778 61.6022C103.612 61.7672 103.502 61.0797 103.778 60.9147ZM92.6869 64.4897L92.7146 64.0772L93.1571 64.1322L93.1295 64.5172L92.6869 64.4897ZM92.7146 65.3972C92.6592 65.1497 92.3827 65.0672 92.355 65.0672L92.272 65.3422C92.2997 65.3422 92.3273 65.3697 92.355 65.3972L92.4103 65.6447C92.3827 65.6722 92.355 65.6997 92.355 65.7272L92.5486 65.9197C92.6869 65.6997 92.7422 65.5622 92.7146 65.3972ZM58.3337 73.9772L58.0571 74.2247L57.9188 74.3347L58.0571 74.4447L58.389 74.6647L58.555 74.4447L58.3614 74.3072L58.4997 74.1972L58.3337 73.9772ZM61.5975 77.3047L61.4869 77.5522L61.7635 77.6897L61.6805 77.7997L61.8741 77.9922L62.2337 77.6347L62.0678 77.5247L61.5975 77.3047ZM48.9018 17.6297L49.1784 17.9047L48.9848 18.0972L48.7082 17.8222L48.9018 17.6297ZM57.255 26.2922L57.5316 26.5122L57.3656 26.7322L57.089 26.5122L57.255 26.2922ZM56.2039 26.4847L56.2593 27.0072H56.9507C57.2273 27.0072 56.7295 26.6772 56.7295 26.6772C56.7295 26.6772 56.1763 26.7322 56.2039 26.4847ZM71.3614 13.5597L70.8912 13.5047L70.8635 13.7797L71.2507 13.8072L71.555 14.2747L71.7763 14.1097L71.472 13.6147L71.4167 13.5597H71.3614ZM72.6061 3.82469L72.4678 4.07219L72.8273 4.29219L72.9103 4.34719L72.9656 4.29219L73.4912 3.96219L73.3252 3.74219L72.9103 4.01719L72.6061 3.82469ZM75.0678 5.14469L74.8465 4.89719L74.6529 5.11719L75.0678 5.52969L75.1507 5.44719L75.621 5.06219L75.4273 4.84219L75.0678 5.14469ZM59.7997 14.7972C59.772 14.6322 60.7124 14.6047 60.8507 14.7422C60.989 14.8797 60.9061 15.1272 61.321 15.1272C61.7358 15.1272 61.5422 15.4022 61.5146 15.5397C61.4593 15.6772 61.0167 15.6222 60.9614 15.4847C60.9061 15.3472 60.2146 15.2922 60.2146 15.2922C60.2146 15.2922 59.855 15.0172 59.7997 14.7972ZM65.0827 14.2747C65.8018 14.4947 66.0507 14.3297 66.1061 14.1372C66.1614 13.9447 66.189 13.9172 66.4656 13.8622C66.7422 13.8072 66.4103 13.2572 66.1337 13.3122C65.8571 13.3672 65.5805 13.2297 65.5252 12.9822C65.4699 12.7622 65.0273 12.1572 64.972 12.6247C64.9167 13.0922 64.6401 13.0922 64.6954 13.4222C64.7784 13.7247 64.9167 14.2197 65.0827 14.2747ZM69.6465 6.43719C69.5358 6.02469 68.955 6.95969 69.5635 7.12469C70.172 7.31719 70.7529 7.12469 70.7529 7.12469L70.8912 6.84969L73.1869 6.90469C73.3805 6.71219 73.4635 6.43719 73.4635 6.43719C73.4635 6.43719 74.0167 6.24469 74.238 6.35469C74.4593 6.43719 74.2933 5.69469 74.0444 5.80469C73.8231 5.88719 73.3529 5.85969 73.3529 5.85969H72.5231C72.4678 5.52969 71.7486 5.66719 71.6933 5.85969C71.6656 6.02469 71.389 6.07969 71.389 6.07969L70.338 6.16219C70.2273 6.43719 69.7018 6.62969 69.6465 6.43719ZM69.7295 8.71969L69.121 8.11469V7.59219L68.9273 7.39969L68.7337 6.73969L68.1252 6.54719L67.5167 6.76719L66.8805 7.17969L66.189 7.26219L65.8295 7.67469L67.2954 7.81219L67.572 8.27969L68.6231 8.36219L69.3146 9.04969C69.9507 9.32469 70.089 9.04969 69.7295 8.71969ZM71.8593 13.1747L72.0529 12.7347L72.3018 12.8722L72.1082 13.2847L71.8593 13.1747ZM85.6061 12.7072C85.5231 12.3497 86.5188 12.0197 86.7678 12.2947C86.989 12.5697 87.6529 12.6247 87.7358 13.9997C87.7635 14.4947 86.9061 13.4772 86.9061 13.4772L86.2146 13.2572C85.8273 13.1747 85.6337 12.9547 85.6061 12.7072ZM80.7656 13.9172C80.6273 14.3297 80.572 14.8797 80.3507 14.8797C80.1295 14.8797 80.2124 15.4847 80.2124 15.4847C80.2124 15.4847 80.821 15.4847 80.9869 15.5397C81.1805 15.5947 81.1805 16.0622 81.1805 16.0622C81.872 16.0072 82.1486 16.9422 82.0656 17.1897C81.9827 17.4097 82.3422 17.4097 82.3422 17.4097C82.3422 17.4097 82.3422 18.1522 82.2593 18.3447C82.1763 18.5372 82.8678 18.6747 83.0337 18.9497C83.2273 19.2247 82.9507 20.1597 82.8124 20.2147C82.6741 20.2697 83.172 20.4072 83.1444 20.6272C83.089 20.8472 83.2827 20.6272 83.338 21.0122C83.3933 21.3697 83.4763 22.1672 83.4763 22.1672L84.1124 22.2222C84.1954 21.6172 85.3848 21.5897 85.5784 21.6722C86.3529 21.9472 86.9614 23.1572 86.9614 23.4322C86.9614 23.7072 86.4635 23.7622 86.4635 23.7622L86.5465 25.1097C87.321 25.3297 87.9848 26.4572 87.8741 26.6497C87.7912 26.8422 88.4273 26.7872 88.4273 26.7872C88.5103 25.9622 89.3124 26.2372 89.3401 26.5122C89.3954 26.7872 89.5337 27.3922 89.5337 27.3922L89.755 27.8047L90.0869 28.1347L90.5848 28.0797L90.7231 28.3547L91.3316 28.4372C91.3316 28.4372 91.8295 28.9872 91.8848 29.1247C91.9401 29.2622 92.6316 29.2072 92.7975 29.2622C92.9912 29.3172 93.2678 29.4547 93.2954 29.6747C93.3507 29.8947 93.6273 30.2797 93.6273 30.2797C93.6273 30.2797 94.1805 30.4172 94.2358 30.6097C94.2912 30.8022 94.5124 31.2147 94.5124 31.2147L94.9827 31.5997L95.038 32.0122L95.5358 32.0672L95.6741 32.6172L96.5039 32.5622L96.9741 32.2322C97.5827 31.9022 97.9976 31.4897 98.0252 31.2972C98.0805 31.1047 98.1635 30.4172 98.6337 30.5547C99.1039 30.6922 98.772 29.5372 98.772 29.5372C98.772 29.5372 98.1358 29.0697 98.1635 28.8497C98.2188 28.6297 97.5273 28.1622 97.555 27.9697C97.6103 27.7772 96.9465 27.4197 97.0018 27.2272C97.0571 27.0347 96.6699 26.5397 96.6699 26.5397L95.9784 25.8797L95.8954 25.4672L95.3422 25.4122L94.2358 24.0647L94.2912 23.6797L93.9593 23.6247V23.1022L93.6273 22.9097L93.1295 22.8547L92.1061 21.7547L92.0231 21.2322H91.5252L91.6082 20.2697C91.9401 19.8572 91.7465 19.0597 91.7465 19.0597C91.7465 19.0597 91.1103 19.3897 90.7784 19.2522C90.4465 19.1147 90.9167 18.7847 90.9167 18.7847V18.4272L90.6401 18.1522C90.6401 18.1522 89.8656 18.2347 89.8103 18.0972C89.755 17.9597 89.6167 17.3547 89.6167 17.3547L89.5614 16.5572L89.2295 16.4197L89.1741 16.1447L88.6763 16.1997V15.6497L88.3997 15.5672L88.1231 15.4297L88.0678 14.8797L87.0444 14.8247L86.7124 14.3572L86.3529 13.8072L85.1912 13.7247L84.9146 13.4497L84.4444 13.3672L84.1124 13.2297L83.9741 13.4497L83.089 13.5047L83.0337 13.7797C82.6465 13.9722 80.821 13.7797 80.7656 13.9172ZM72.3018 13.6422C72.3848 13.7797 72.938 13.9172 72.938 13.9172C73.2976 13.9172 73.5465 14.1922 73.5465 14.3297C73.5465 14.4672 74.0444 14.4122 74.0444 14.4122L74.0997 14.0822L73.7401 13.6147L73.4082 13.3947C73.4082 13.3947 72.9103 13.3397 72.9103 13.2022C72.9103 13.0922 72.3848 13.5047 72.3018 13.6422ZM72.3018 15.2097L71.9422 15.1272V15.5397L72.4401 15.5947L72.3018 15.2097ZM77.4188 20.3247V19.9672C77.4188 19.9672 77.3635 19.6097 77.1422 19.6097C76.921 19.6097 76.5061 19.3347 76.589 19.1422C76.672 18.9497 75.8146 18.7572 75.8146 18.7572C75.8146 18.7572 75.0401 18.0147 75.3167 18.0972C75.5933 18.1797 75.455 17.7672 75.455 17.7672C75.455 17.7672 74.9018 17.8497 74.7635 17.8222C74.6252 17.7672 74.6805 17.3547 74.6805 17.3547C74.6805 17.3547 74.1273 17.2172 74.1273 17.3547C74.1273 17.4922 74.321 17.4922 74.4039 17.7672C74.4869 18.0422 74.4593 18.5097 74.8741 18.5922C75.289 18.6747 75.372 18.7847 75.4273 18.9772C75.4827 19.1697 75.9805 19.1972 75.9805 19.1972L76.3401 19.3897L77.4188 20.3247ZM77.7784 21.5622C77.7231 21.3697 77.6401 20.7372 77.9167 20.7647C78.1933 20.8197 77.9997 20.7647 78.3316 20.9022C78.6635 21.0397 78.6912 20.6822 78.6912 20.6822H79.189L79.8252 21.2047L79.7422 21.6172L79.272 21.6722C79.0507 21.3147 78.5805 21.4522 78.6635 21.7547C78.7465 22.0847 78.4422 22.6897 78.2486 22.7172C78.055 22.7722 77.4741 22.7722 77.5018 22.4972C77.5848 22.2222 77.7784 21.5622 77.7784 21.5622ZM85.3571 27.8872L85.689 26.8697C85.2188 26.7872 85.3295 26.2647 85.3295 26.2647C85.2741 25.8522 84.638 25.3847 84.4167 25.5222C84.1954 25.6597 84.2784 24.5597 84.2784 24.5597C84.2784 24.5597 84.6933 24.2847 84.8869 24.4222C85.0805 24.5597 83.3103 22.1122 82.9507 22.3322C82.5912 22.5522 81.7614 22.1122 81.789 21.6722C81.8444 21.2597 80.1295 19.8572 80.1295 19.8572C80.1295 19.8572 79.5763 19.4997 79.4933 19.7747C79.4103 20.0497 79.2167 20.2422 79.4933 20.3797C79.7699 20.5172 79.7146 20.1597 80.0465 20.4622C80.3784 20.7922 80.9593 21.2047 80.738 21.4797C80.5167 21.7547 80.2401 21.8647 80.2401 21.8647L80.572 22.2497H81.0699L81.1529 23.0472C81.1529 23.0472 81.7061 23.3222 81.8444 23.6522C81.9827 23.9822 81.9827 24.1747 81.8444 24.3397C81.7061 24.5322 81.4295 24.8622 81.4848 25.1647C81.5401 25.4947 81.8997 25.6322 81.8997 25.6322L82.2593 25.6872L82.5358 25.8247V26.4297C82.8954 26.3472 83.5039 26.8422 83.4486 27.1722C83.3933 27.5022 83.5316 27.3097 84.0018 27.6397C84.472 27.9697 84.3337 28.0247 84.638 28.2447C84.9422 28.4372 85.2188 28.2997 85.3571 27.8872ZM74.7912 33.8272C74.7912 33.9647 74.7082 34.1572 74.9848 34.2122C75.2614 34.2672 75.7593 34.0197 75.8146 34.2947C75.8699 34.5697 75.8699 34.7622 76.2295 34.8997C76.589 35.0372 76.838 35.0922 77.1146 35.0922C77.3912 35.0922 77.9997 35.0097 77.9997 35.0097C77.9997 35.0097 78.6635 35.1197 78.7741 35.2297C79.272 35.7522 79.6039 35.8897 79.7422 35.6422C79.8805 35.4222 79.6869 34.8997 79.6593 34.7072C79.6039 34.5147 78.9678 33.6347 78.7465 33.8272C78.5252 34.0197 78.4699 33.8272 78.055 33.9647C77.6401 34.1022 76.755 34.0197 76.7273 33.8272C76.672 33.6347 76.0358 33.5522 76.0358 33.3597C76.0358 33.1672 75.5656 32.9472 75.621 33.2222C75.6763 33.4972 75.289 33.6347 75.2061 33.5522C75.0678 33.4422 74.7912 33.8272 74.7912 33.8272ZM72.4954 34.3222L72.4401 34.6522L72.938 34.7072C72.938 34.7072 73.1593 34.8997 73.1593 35.0372C73.1593 35.1747 73.4912 35.3122 73.6571 35.3122C73.8507 35.3122 74.3486 34.9272 74.3486 34.9272C74.3486 34.9272 74.5699 34.2672 74.4039 34.3222C74.2103 34.3772 73.8507 34.6522 73.7954 34.3772C73.7401 34.1022 73.1869 34.2397 73.1869 34.2397L72.4954 34.3222ZM70.1167 34.8447L70.255 34.8172L70.338 35.0647L70.1997 35.1197L70.1167 34.8447ZM70.2827 34.4047L70.5593 34.3497L70.6422 34.7622L70.3933 34.8172L70.2827 34.4047ZM71.0571 34.4597L71.0848 34.7347L72.0805 34.7072V34.4322L71.0571 34.4597ZM80.0188 34.2397L80.489 34.1847L80.5167 34.4597L80.0465 34.5147L80.0188 34.2397ZM81.2358 35.2572L81.3741 34.9272L81.6231 35.0372L81.4848 35.3672L81.2358 35.2572ZM85.2465 30.6097L85.7167 30.5822L85.7444 30.8572L85.2741 30.8847L85.2465 30.6097ZM86.021 30.8847H86.2976V31.1047H86.021V30.8847ZM86.8507 26.9797L86.5741 27.0072L86.5188 26.5947L86.7954 26.5672L86.8507 26.9797ZM86.5741 32.7547H86.8507V33.0847H86.5741V32.7547ZM87.1827 32.9197L87.4316 33.0297L87.2933 33.3322L87.0444 33.1947L87.1827 32.9197ZM85.8273 29.2622C86.1039 29.2622 85.7444 30.3347 86.4635 30.2247C87.2103 30.1422 86.5188 30.5547 87.072 30.5822C87.6252 30.6372 87.4869 30.1697 87.6805 29.8397C87.8741 29.5097 87.7635 29.3172 87.4593 29.2347C87.1273 29.1522 87.1273 29.1522 87.0444 28.7672C86.9614 28.4097 86.5741 28.2997 86.5741 28.2997L86.4358 27.7497L85.8273 28.1072L85.2188 28.9047C85.2188 29.5647 85.5507 29.2622 85.8273 29.2622ZM87.6252 31.7922C87.9848 31.5997 88.7869 31.5997 88.7316 31.3247C88.6763 31.0497 89.2018 30.9672 89.2018 30.9672L89.3401 31.5172L89.755 31.7922L89.8103 32.3147C89.8103 32.3147 89.9486 32.2322 89.4507 32.3697C88.9529 32.5072 89.2571 32.7272 89.2571 32.7272L88.1507 32.7822L88.0124 32.3147L87.6252 31.7922ZM81.6784 35.6697C81.8997 35.6147 82.4529 35.5872 82.5635 35.7247C82.6465 35.8622 82.2316 36.0547 82.2316 36.0547L81.6784 36.1372C81.5124 35.9172 81.4571 35.7247 81.6784 35.6697ZM84.638 35.2572C84.8869 35.5047 83.255 35.4497 83.255 35.2572C83.255 35.0647 83.3933 34.4322 83.8082 34.5697C84.2231 34.7072 84.2784 33.7447 84.2784 33.7447C84.2784 33.7447 83.9188 33.7997 84.2231 33.6072C84.555 33.4147 84.2231 33.1397 84.0848 33.0022C83.9465 32.8647 83.8082 32.6172 83.8082 32.6172H84.4444C84.721 32.4247 84.8039 31.5447 84.8039 31.5447C85.3571 31.7372 85.6337 31.3522 85.6337 31.3522C85.6337 31.3522 85.7167 31.6272 85.9103 31.8747C86.1039 32.0947 85.4401 32.2047 85.689 32.3422C85.9103 32.4797 86.021 32.8922 85.9103 33.0297C85.8273 33.1672 85.3018 33.0847 85.3018 32.8922C85.3018 32.6997 85.1082 33.1122 85.3018 33.3597C85.4954 33.5797 85.0805 33.9097 84.9699 33.9097C84.8869 33.9097 84.2784 33.9922 84.7763 34.2947C85.2741 34.5697 85.8273 34.4322 85.8273 34.4322C85.8273 34.4322 86.2422 34.3772 86.3805 34.6247C86.5188 34.8447 86.3252 34.8997 86.1039 34.8997C85.8827 34.8997 84.7763 34.8172 84.7763 34.8172C84.7763 34.8172 84.4997 35.1197 84.638 35.2572ZM90.0039 30.0047C89.8656 29.8122 89.7273 29.6747 89.5337 29.5922C89.3401 29.5097 89.2018 29.3997 89.0359 29.3997C88.8422 29.3997 88.6763 29.2072 88.7593 28.9872C88.8422 28.7672 88.621 28.6572 88.621 28.4647C88.621 28.2722 88.7593 28.2722 88.9805 28.4097C89.2018 28.5472 89.1741 28.6022 89.3401 28.8222C89.5337 29.0422 89.6167 29.2897 89.8103 29.2347C90.0039 29.1797 90.1422 29.6472 90.3082 29.5097C90.5018 29.3722 90.4465 29.8397 90.4465 29.8397L90.0039 30.0047ZM89.5614 30.4447C89.6997 30.6372 89.9763 30.7747 89.9763 30.9672C89.9763 31.1597 89.8933 31.2972 90.1699 31.3247C90.4465 31.3797 90.6401 31.2697 90.7231 31.5172C90.8061 31.7372 90.8061 32.1222 90.7784 32.3147C90.7231 32.5072 90.8337 32.7822 91.055 32.7822C91.2763 32.7822 91.3316 32.8372 91.3316 32.9747C91.3316 33.1122 91.6082 32.4522 91.6082 32.4522C91.3869 32.2597 91.1933 31.8472 91.1933 31.8472C91.1933 31.8472 90.972 31.1872 90.972 31.1047C90.972 31.0222 90.6401 30.9122 90.5018 30.8847C90.3635 30.8297 90.1422 30.4172 90.1422 30.4172L89.5614 30.4447ZM92.5486 37.9522L92.355 37.5397C92.355 37.5397 92.355 37.1822 92.438 36.9897C92.521 36.7972 92.2444 36.6322 92.1061 36.5772C91.9678 36.5222 92.0231 36.1647 91.9678 35.9722C91.9124 35.7797 91.6082 35.6422 91.6082 35.6422C91.6082 35.6422 91.5252 34.9547 91.5252 34.8172C91.5252 34.6797 91.1103 34.4872 91.2486 34.3497C91.3869 34.2122 91.4699 34.0197 91.6082 33.9372C91.7465 33.8547 91.4699 33.1947 91.6912 33.3322C91.9124 33.4697 91.9124 33.7172 92.0231 33.8822C92.1061 34.0747 91.9678 34.7072 92.2167 34.8447C92.438 34.9822 92.1614 35.4497 92.5486 35.4497C92.9082 35.4497 92.6869 36.3297 92.6869 36.3297C92.6869 36.3297 92.6039 36.9897 92.8252 37.0172C93.0465 37.0722 92.9082 38.1722 92.9082 38.1722L92.5486 37.9522ZM92.6869 41.4997L92.8252 41.2247L93.0741 41.3622L92.9358 41.6372L92.6869 41.4997ZM92.9912 39.9872L93.2678 40.0147L93.2401 40.3997L92.9635 40.3447L92.9912 39.9872ZM92.4103 38.4472L92.0507 38.3922L91.221 38.5297L90.7507 39.4097C90.7507 39.4097 90.972 39.5472 91.1656 39.8772C91.3593 40.2072 91.4422 42.1047 90.889 42.4347C90.3358 42.7647 90.9444 42.5722 90.9444 42.5722L90.8614 43.5897C90.9997 44.0572 91.221 43.8097 91.3593 43.5897C91.4976 43.3697 91.6358 43.3147 91.8295 43.0672C92.0231 42.8472 92.2997 42.4072 92.3273 42.1047C92.3827 41.7747 92.6039 41.2797 92.4656 41.1422C92.3273 41.0047 92.6039 40.3447 92.6039 40.3447C92.6039 40.3447 92.7975 39.9597 92.6039 39.6022C92.4103 39.2172 92.6592 38.8047 92.7975 38.6397L92.4103 38.4472ZM90.3912 33.7172H89.6997C89.6997 33.7172 89.921 33.7997 89.2848 33.1947C88.6486 32.5897 88.2337 33.3322 88.2337 33.3322L87.4869 33.4147V34.1572L87.1273 34.2947L87.1827 34.7622L87.6805 34.7072C87.6805 34.7072 87.6805 35.2572 87.8188 35.0372C87.9571 34.8172 89.1188 35.0922 89.0082 35.6422C88.9805 35.8622 90.1699 36.4672 90.0316 37.2097C90.6401 37.2922 90.5018 37.8972 90.5018 37.8972L91.2763 37.9797L91.4976 37.5122L91.7188 37.5672V37.2922L91.221 37.1547L91.138 35.6697L90.8061 35.4497L90.889 35.0647L90.5295 34.9272L90.7231 34.3222L90.3912 33.7172ZM88.6763 45.1022L88.9529 44.9922L88.8422 44.7722L88.7869 44.6072L88.6486 44.6897L88.3167 44.8822L88.0124 44.6897L87.8741 44.9372L88.2337 45.1572L88.3167 45.2122L88.372 45.1572L88.6486 45.0197L88.6763 45.1022ZM89.8933 44.4972L90.3912 44.5797L90.4465 44.3047L89.9486 44.2222L89.8933 44.4972ZM88.9529 50.4372C88.7593 50.1622 89.8656 49.6947 90.0592 50.2447C90.2529 50.7947 90.0592 50.7122 89.8656 50.6572C89.6997 50.6022 89.2295 50.7947 88.9529 50.4372ZM84.1954 59.3747H84.5273V60.2547H84.1954V59.3747ZM86.3252 67.8722C86.2422 68.2297 85.9103 68.4222 85.7167 68.2847C85.5231 68.1472 85.938 68.5047 86.0486 68.6972C86.1316 68.8897 86.4082 68.8897 86.5188 68.6972C86.6018 68.5047 86.5741 68.0922 86.6571 67.8997C86.7401 67.7347 86.3805 67.6797 86.3252 67.8722ZM87.3486 69.7422L87.7635 69.9347L87.8188 70.7322C88.372 71.2822 90.1699 70.8147 90.1699 70.6772C90.1699 70.5397 90.0869 68.9722 90.0869 68.9722L89.8656 68.7522L89.8103 67.5972C90.0039 66.9922 88.9252 66.1122 88.8422 66.3047C88.7593 66.4972 88.1507 66.3597 88.1507 66.5247C88.1507 66.7172 87.7912 67.6247 87.9571 67.9547C88.1507 68.2847 87.8188 68.2847 87.7635 68.6147C87.7082 68.8897 87.238 69.4397 87.3486 69.7422ZM74.4039 59.8147L74.2656 59.5947L73.8784 59.8147L74.0444 60.0622L74.4039 59.8147ZM67.3784 60.7222C67.1571 60.9422 67.2124 61.1347 67.3784 61.2997V60.7222ZM68.8167 61.8497L69.121 61.3272L68.872 61.2447L68.5401 61.4647L68.6784 61.6022L68.8167 61.8497ZM68.5401 47.3572C68.7337 47.7697 68.6784 48.3747 69.3699 48.8422C69.5912 49.0072 69.2316 49.3097 69.0103 49.1722C68.789 49.0347 68.1252 48.0172 68.1252 48.0172V47.4122C68.2635 47.0547 68.4571 47.1922 68.5401 47.3572ZM66.1061 49.7772C66.2167 50.1897 66.189 49.1172 66.3827 49.1722C66.5763 49.2272 66.438 48.5122 66.438 48.5122L65.6082 49.1172C65.9954 49.1722 66.0507 49.5847 66.1061 49.7772ZM63.6167 52.7472C63.5614 53.2972 62.8699 53.4897 62.8699 53.4897L62.372 53.3522L62.0954 53.1322L62.0401 52.4722L62.455 52.4172L62.538 52.6922L63.6167 52.7472ZM62.8699 47.1372V46.4772L62.7869 45.8722L62.0954 45.5422L61.5975 46.0097L61.5146 46.6697V47.0822L61.0444 47.1647L60.9614 48.4297L60.6018 48.5672L60.6571 49.0347L59.6614 49.3097L59.5784 49.9147L59.2188 50.1347L59.0252 50.6847L58.8039 52.0322C58.8039 52.0322 59.2188 52.8297 59.4401 52.4447C59.6614 52.0872 60.0486 52.0322 60.0486 52.0322L60.1869 51.7022L61.4316 51.7572C61.5146 51.2347 62.1231 51.4272 62.1231 51.6747C62.1231 51.8947 62.5933 51.7297 62.5933 51.7297L62.9252 51.2072H63.4231L63.4784 50.6572L63.6997 50.5197V49.6947C64.4465 49.4747 64.3358 48.7597 64.3358 48.7597L64.5295 48.5397L64.4465 48.2097C64.0869 48.0722 64.2529 47.7422 64.5018 47.8247C64.7231 47.9072 64.1699 47.4122 64.1699 47.4122C63.8933 47.6322 63.672 47.1372 63.672 47.1372H62.8699ZM60.7678 45.2397L60.4082 45.3222L59.5784 46.1197L59.5231 46.4772L59.3018 46.8072L59.0252 47.4947L58.0571 47.5497L57.8635 48.3747L58.0018 49.0897L58.8316 49.4197L58.9146 48.9522L59.1912 48.8147L59.2465 48.3472L59.4401 48.0172L59.7167 47.6872L59.7997 47.3297L60.2699 47.0547L60.8231 46.9447L61.0444 46.6697L61.1273 46.1197L61.1827 45.7072L61.3763 45.4047L61.9295 45.1847V44.3047H61.6529L61.5975 43.9747L61.0997 43.9197L60.989 44.1672H60.7678L60.7124 44.5247H60.989L61.0444 44.8272L60.8507 44.9922L60.7678 45.2397ZM46.1635 50.8222C46.1635 50.9322 46.0805 51.0147 45.9699 51.0147C45.8593 51.0147 45.7763 50.9322 45.7763 50.8222C45.7763 50.7122 45.8593 50.6297 45.9699 50.6297C46.0805 50.6297 46.1635 50.7122 46.1635 50.8222ZM46.1358 56.1297C46.1358 56.2397 46.0529 56.3222 45.9422 56.3222C45.8316 56.3222 45.7486 56.2397 45.7486 56.1297C45.7486 56.0197 45.8316 55.9372 45.9422 55.9372C46.0529 55.9372 46.1358 56.0197 46.1358 56.1297ZM45.638 55.3597C45.7486 55.3597 45.8316 55.2772 45.8316 55.1672C45.8316 55.0572 45.7486 54.9747 45.638 54.9747C45.5273 54.9747 45.4444 55.0572 45.4444 55.1672C45.4444 55.2772 45.5273 55.3597 45.638 55.3597ZM45.0848 56.4597L44.6976 56.5147V56.8447L45.0848 56.7897V56.4597ZM45.4997 54.0947L45.1678 54.1497L45.1401 54.5072L45.4997 54.5622V54.0947ZM45.4167 51.5922L45.4444 51.2622L44.7529 51.7297L44.3103 51.4547V52.5547L45.0295 53.5447L45.3061 52.8847L45.4167 52.4722L45.0848 52.3347L45.1401 51.6472L45.4167 51.5922ZM45.1401 47.6872L44.3103 47.6047L44.3656 47.9347H44.5869C44.9465 48.5947 44.6422 50.1622 44.6422 50.1622C44.6422 50.1622 44.089 50.2172 44.0061 49.9422C43.9231 49.6672 43.6741 50.5472 43.8678 50.6847C44.0614 50.8222 44.6976 50.6847 44.7529 51.2072C44.8082 51.7297 45.1678 50.8772 45.1678 50.8772L45.1401 47.6872ZM63.672 38.5022H63.1741L63.0912 37.4847L63.3678 37.2922V36.7697H61.7635L61.7082 36.2472L61.9295 36.1097L61.5699 35.9722L61.2933 36.3297L61.2103 36.7422L60.7401 36.8247V37.0447H60.4082V37.6497L59.1082 38.7222L56.5359 38.6397C56.3422 39.0522 55.8997 38.5847 55.8997 38.5847C55.8167 38.3097 55.1529 38.5847 55.1529 38.5847C55.1529 39.1072 54.2678 38.3647 54.2678 38.3647L52.6635 37.2097C51.7507 36.3847 50.3678 37.4297 50.3124 37.6772C50.3678 38.3372 49.2614 37.8147 49.2614 37.8147C49.2614 37.8147 48.3486 37.5397 48.2103 37.8972C48.072 38.2547 47.4635 38.1722 47.4635 38.1722L47.3805 38.3647L46.9103 38.4472L46.8273 38.7222L46.2741 38.8047L47.6571 38.7497C48.0167 38.6947 47.5188 39.5472 47.2976 39.4922L46.6614 39.5472L46.4401 39.7672H45.8316L45.555 40.1522L44.6699 40.0972C44.6699 40.0972 44.172 40.5097 44.1997 40.6472C44.255 40.7847 44.1167 41.1972 43.9784 41.1972C43.8401 41.1972 43.5635 41.6097 43.6465 41.7472C43.7295 41.8847 43.3699 42.3522 43.3699 42.3522L43.2869 42.8197L43.0103 42.9022V44.1672L42.4571 44.5522V45.1022L41.6273 45.9822L41.7103 46.7247L41.0188 47.4672L41.1018 48.2097L40.6869 48.3472L40.6039 48.6772L40.4103 49.6397L40.8805 49.6947C41.1018 49.6122 41.0741 50.2997 40.8805 50.3822C40.6869 50.4647 40.189 50.6572 40.4656 50.8497C40.7422 51.0422 39.7188 50.9872 39.7188 50.7122C39.7188 50.4372 39.1656 50.1897 39.0273 50.2997C38.889 50.3822 38.6678 49.8872 38.6678 49.8872C38.1699 49.3647 36.5933 49.9422 36.5933 49.9422L36.372 50.6847C35.8741 50.7672 35.5422 51.6197 35.5422 51.6197C35.1273 51.7572 34.7954 52.2797 34.9337 52.4172C35.072 52.5547 34.7124 52.6097 34.7124 52.6097V53.6272L34.4912 53.9572L34.5465 55.0572C34.8231 55.0572 34.7678 55.5797 34.7678 55.5797C34.2976 55.6347 34.4082 56.2397 34.4082 56.2397L33.4401 56.5697L33.2465 56.8447L32.0571 56.7897L31.7252 57.1197L31.3933 56.7897H29.0976L29.0146 56.5697L28.5444 56.4872L28.489 55.9647L27.7976 56.0197L27.6593 56.2947L26.9124 56.3497C26.9678 56.8172 26.1656 57.5047 26.0827 57.3122C25.9997 57.1197 25.4741 56.6247 25.7231 56.5147C25.9444 56.4322 26.5529 56.3222 26.5529 56.3222V55.9922L24.838 55.9372L24.6444 56.2122L23.9529 56.2672V57.0097L23.621 57.0922C23.3997 57.2297 23.6763 57.7522 23.6763 57.7522C24.0082 58.0822 23.621 58.5772 23.621 58.5772C23.3444 58.8522 23.8422 59.3747 23.8422 59.3747C24.2018 59.4572 23.621 59.7322 23.621 59.7322C23.7039 60.1997 23.9805 60.3372 23.9805 60.3372C23.7039 60.8047 24.1741 61.0247 24.1741 61.0247L24.2295 61.8222L24.5614 62.0147V62.5372L24.755 62.8672H25.5018L25.4465 61.7122C24.8103 60.9697 25.9997 60.7772 26.055 61.0522C26.1103 61.3272 26.6082 61.4647 26.6082 61.4647C26.6912 62.1522 27.4933 62.5647 27.7146 61.8772C27.9359 61.1897 28.1295 61.6022 28.2678 61.9322C28.4061 62.2622 29.2912 63.0597 29.2912 63.0597H29.9827L30.0656 63.7197C30.8401 63.6647 31.089 63.7747 31.3933 64.8197C31.7252 65.8922 32.5827 66.1672 32.5827 66.1672L33.2188 66.1122C33.2188 65.5622 33.855 66.1947 33.855 66.4972C33.855 66.7722 35.0997 67.8447 35.0997 67.8447L36.3444 68.1197L37.5061 69.0547L38.3912 68.9722H38.7507C38.972 68.1747 40.0784 69.0272 40.189 69.3022C40.272 69.5772 41.0188 70.0447 41.1018 69.8247C41.1848 69.6047 41.7103 69.7422 41.7933 70.4297C41.8763 71.1172 42.2082 70.9797 42.2082 70.9797L44.8358 70.9247L45.7486 70.1272L48.0997 70.0722C49.289 70.0172 48.5699 68.3947 48.321 68.3947C47.9061 68.0647 48.4593 66.7172 48.4593 66.7172L45.1124 63.6097C44.338 63.6097 45.0295 62.4822 45.0295 62.4822C45.638 62.0972 44.8912 61.5197 44.8912 61.5197C44.9741 60.9697 44.5593 60.3097 44.5593 60.3097C43.7295 59.7597 43.9507 58.6872 43.9507 58.6872V57.9447C43.2593 57.2847 44.2273 57.2022 44.2273 57.2022C44.5593 56.6522 44.0061 56.2397 44.0061 56.2397L43.9507 55.6347L43.2039 55.5522L43.121 53.3797L41.4614 51.0147C41.1295 50.9322 41.3784 50.3547 41.3784 50.3547C41.7933 50.1347 41.2954 49.5572 41.2954 49.5572L41.2401 48.5397L42.2082 48.4572L42.4295 48.0997H42.8997L42.8444 46.8897C43.0656 46.2847 43.6188 46.6147 43.6188 46.6147L44.255 46.6697L44.6146 45.9822L44.6976 45.4322L44.1997 45.3772C43.6465 45.0472 43.9231 43.8372 43.9231 43.8372C44.8082 42.5447 45.8039 43.2872 45.8039 43.2872L46.4401 43.2322C47.4082 43.8922 46.5231 45.0747 46.5231 45.0747C46.3295 45.3497 46.4401 46.2297 46.4401 46.2297L46.6614 47.7147L46.0529 48.2372C45.555 48.5122 45.555 49.1722 46.1082 49.3097C46.4678 49.3647 46.3295 50.2447 45.7763 49.6397C44.9465 49.6397 46.2465 50.3822 45.8593 50.1897C46.689 50.6022 46.4954 49.8322 46.4954 49.8322L47.6018 48.9522C48.0167 48.6222 48.7635 49.6397 48.7635 49.7772C48.7635 49.9147 50.589 49.8322 50.589 49.8322C51.0869 50.1622 51.2805 50.9872 51.2805 50.9872C51.7784 50.3272 52.8571 50.9322 52.055 51.3172C52.8018 51.7847 52.8018 52.1972 52.8018 52.1972C53.4103 52.0047 53.4103 52.4722 53.4103 52.6097C53.4103 52.7472 53.6039 51.9222 53.6039 51.9222C52.9124 51.3997 54.5167 51.2347 54.0741 52.1422L53.7976 52.5547L54.2678 52.9122L54.3231 53.9847C55.3465 53.9022 55.0699 52.6372 55.0699 52.6372L55.5401 52.5547C55.5401 52.1422 55.872 52.3622 55.872 52.3622C55.5401 50.7947 56.6188 50.5197 56.6188 50.5197C57.2273 50.3822 57.255 49.1172 57.255 49.1172C56.8401 48.9247 57.0614 48.2922 57.5316 48.8422C58.0018 49.3922 57.255 47.7147 57.255 47.7147L56.8954 47.3847L56.3976 47.3297L56.3422 46.8072H55.5124L55.3741 47.4672L55.0699 47.6047L54.9869 47.4122L54.8486 47.9347H54.0188L53.9635 47.3847L54.4614 47.2472L54.655 46.9722L54.7933 46.2297H55.4018L56.1763 46.0097C56.2316 45.2122 56.6465 45.4047 56.6465 45.4047L57.338 45.9547L57.3933 46.2297L57.1167 46.3672L57.0614 46.7522L57.1997 47.2747H57.5593C57.6976 46.5322 58.6656 46.5322 58.9422 46.9997L59.2188 46.3397C58.5827 46.0097 59.2188 45.5147 59.3848 45.7347C59.5784 45.9547 59.9933 45.1297 59.9933 45.1297C59.9933 45.1297 60.3252 45.5422 59.9933 44.9922C59.6614 44.4422 60.2146 44.1672 60.2146 44.1672C60.1316 43.6172 60.8231 43.6997 60.8231 43.6997L60.8784 42.9572L60.2422 42.9022C60.1039 43.5622 59.5507 42.9847 59.8273 42.8472C60.1039 42.7097 60.3805 42.4347 60.3805 42.4347V41.9672L60.6571 41.8847L60.7124 41.4172H61.4039L62.0124 41.1422L62.1507 40.9222L62.7869 40.8672L63.6997 40.0422L63.6167 39.6847C63.0635 39.6847 63.6167 39.2722 63.6167 39.2722L63.672 38.5022ZM38.6954 80.2197L38.3359 79.6697L38.889 79.7522L39.4699 80.2472L39.7188 80.8522L39.3869 81.0447L39.1933 80.7697L38.7507 80.6322L38.6954 80.2197ZM28.5444 66.3047L28.7656 66.9372L29.0976 67.1847L29.4018 67.8722L29.2359 68.2022L28.7103 67.7347L28.3507 67.2122L28.1571 66.7997L27.8529 65.9747L28.5444 66.3047ZM25.7784 63.8297H25.5571V64.2972H25.9167V64.9022H26.1933L26.138 64.2147L25.7784 64.0772V63.8297ZM61.9571 35.5597L62.2337 35.5047L62.289 35.7797L62.0124 35.8347L61.9571 35.5597ZM62.289 35.3947L62.372 35.1197L62.7316 35.2297L62.6763 35.5047L62.289 35.3947ZM62.9529 35.1197L62.9805 34.8447L62.6763 34.7897L62.621 35.0647L62.9529 35.1197ZM63.4231 34.5147H63.7827V34.7897H63.4231V34.5147ZM65.7741 34.8447L65.8018 34.5697L66.1337 34.5972L66.0784 34.8722L65.7741 34.8447ZM66.6869 35.0372L66.7146 34.7622L66.3827 34.7072L66.355 34.9822L66.6869 35.0372ZM67.0188 35.0647H67.3784V35.3397H67.0188V35.0647ZM67.4337 35.5322V35.8622L67.7103 35.8347V35.5047L67.4337 35.5322Z" fill="black"/>
</g>
<defs>
<clipPath id="clip0_1161_3666">
<rect width="130" height="110" fill="white"/>
</clipPath>
</defs>
</svg>
